{"glyphs":{"0":{"ha":833,"x_min":-3,"x_max":793,"o":"m 790 265 q 669 65 772 146 q 336 0 554 -3 l 232 1 q 76 113 128 33 q 17 286 32 179 q 1 476 14 306 q 10 618 -3 529 q 22 758 22 714 q 26 786 26 767 q 29 814 26 806 q 74 956 35 883 q 122 1000 79 967 q 347 1111 217 1111 q 438 1094 393 1111 q 549 1047 476 1082 q 622 971 589 1021 q 674 882 647 926 q 758 624 690 835 q 793 354 793 510 q 790 265 793 313 m 683 594 q 621 808 647 704 q 513 979 594 911 l 483 990 q 374 1022 442 1022 q 315 1017 344 1022 q 242 988 278 1003 q 175 943 200 969 q 138 876 140 882 q 117 804 119 838 q 97 594 111 719 q 85 374 79 431 q 93 324 85 354 q 104 274 103 289 q 146 200 108 238 q 211 138 179 169 l 282 114 q 364 110 319 110 q 447 114 408 110 q 565 163 506 139 q 660 251 632 197 q 689 425 689 318 q 686 510 689 456 q 683 594 683 569 m 467 883 q 444 850 468 872 q 428 860 429 847 q 456 889 443 889 q 467 883 461 889 m 431 907 q 414 885 428 894 q 390 867 392 868 q 374 871 379 861 q 417 915 375 890 q 431 907 422 914 m 646 653 q 641 633 650 644 q 618 626 632 621 q 606 639 611 631 q 611 660 603 644 q 629 665 618 667 q 646 653 640 663 m 578 857 q 576 815 585 831 q 540 792 564 796 q 492 819 504 792 q 503 869 481 849 q 511 876 503 869 q 511 886 515 881 q 421 935 454 935 q 342 894 388 935 q 279 854 297 854 q 252 869 268 854 q 228 885 236 885 q 210 874 219 885 q 200 858 200 868 q 203 842 200 856 q 203 825 204 832 q 204 783 204 782 q 188 750 203 760 q 149 768 161 739 q 146 788 146 778 q 189 903 146 817 q 222 933 197 921 q 264 956 258 951 q 401 974 307 979 q 511 917 451 961 l 535 886 q 578 857 564 883 m 621 575 q 607 551 626 558 q 583 563 593 547 q 594 589 582 583 q 621 575 611 599 m 674 478 q 647 449 669 460 q 601 458 621 443 q 592 504 585 481 q 629 535 603 533 q 665 518 651 536 q 674 478 679 500 m 249 844 q 238 826 253 829 q 224 835 232 826 q 235 851 219 847 q 249 844 240 850 m 557 539 q 560 514 560 528 q 538 419 560 494 q 383 319 476 310 q 285 363 350 324 q 225 493 225 397 q 226 553 225 508 q 228 610 229 590 q 290 801 219 740 q 379 832 344 832 q 418 821 400 832 q 513 754 454 808 q 557 539 564 696 m 369 278 q 363 261 369 265 q 346 268 350 261 q 353 283 346 281 q 369 278 365 285 m 279 290 q 256 288 269 276 q 224 311 240 292 q 196 343 210 326 q 190 338 196 343 q 261 243 194 297 q 264 221 268 229 q 247 206 263 214 q 182 239 206 199 q 139 436 139 315 q 150 572 139 494 q 156 606 151 578 q 171 635 157 626 q 188 626 186 638 q 186 528 186 576 q 188 429 186 478 q 275 310 208 340 q 281 297 281 304 q 279 290 281 293 m 324 288 q 317 271 325 274 q 300 276 303 269 q 307 293 299 290 q 324 288 319 293 m 564 821 q 564 856 572 833 q 531 874 557 875 q 506 854 513 867 q 506 822 497 839 q 538 806 517 804 q 564 821 558 810 m 301 925 q 288 932 299 929 q 278 915 274 929 q 292 907 279 906 q 301 925 306 908 m 306 892 q 299 886 306 892 q 283 885 292 881 q 268 892 276 889 q 279 871 264 878 q 301 876 289 865 q 306 892 307 890 m 649 513 q 624 522 636 526 q 611 496 603 515 q 639 486 619 479 q 649 513 656 494 m 538 557 q 524 567 533 567 q 514 553 514 563 q 529 543 521 542 q 538 557 540 549 m 471 517 q 485 610 485 567 q 450 713 485 676 q 375 756 407 756 q 317 714 335 756 q 300 638 308 696 q 306 549 303 593 q 339 472 311 497 q 408 446 361 440 q 471 517 440 454 m 192 779 q 161 786 174 774 q 158 775 161 785 q 179 764 163 765 q 192 779 197 769 m 378 399 q 358 406 376 406 q 351 388 350 403 q 371 381 353 381 q 378 399 379 382 m 314 393 q 311 403 314 397 q 300 400 307 403 q 290 404 296 399 q 282 410 285 410 q 279 408 281 410 q 289 385 272 393 q 314 393 307 382 m 242 229 q 236 249 247 246 l 228 236 q 213 232 222 236 l 219 224 q 242 229 235 218 m 554 831 q 544 818 556 825 q 517 831 526 810 l 517 838 q 536 826 522 832 l 554 831 z "},"1":{"ha":583,"x_min":-14,"x_max":563,"o":"m 542 422 q 554 310 542 419 q 563 193 563 239 q 532 35 563 100 q 486 8 518 15 q 432 0 460 4 q 388 10 432 0 q 174 21 317 13 q 110 74 156 28 q 75 151 81 101 q 74 239 72 171 q 94 361 78 281 q 111 496 111 411 q 111 535 111 510 q 111 575 111 561 q 132 719 111 668 q 124 728 129 726 q 7 760 31 722 q -14 817 -14 783 q 25 929 -14 854 q 85 1019 56 975 q 161 1099 121 1071 q 210 1111 183 1111 q 275 1097 236 1111 q 336 1075 336 1075 q 403 1033 369 1054 q 454 975 440 1008 q 518 707 499 868 q 542 422 529 564 m 486 314 q 458 540 482 376 q 421 858 442 644 q 349 978 417 922 q 275 1014 313 996 q 197 1039 232 1035 q 161 1014 174 1029 q 60 857 108 949 q 53 838 58 851 q 49 818 49 825 q 58 801 49 807 q 80 788 68 794 q 104 785 92 781 q 189 793 142 796 q 203 774 203 790 q 206 749 204 751 q 176 551 179 683 q 161 350 175 404 q 140 201 140 275 q 144 139 140 169 q 206 93 163 97 q 238 97 217 99 q 268 97 258 94 q 369 89 306 97 q 468 76 443 78 l 479 83 q 496 181 496 124 q 486 314 496 163 m 393 778 q 364 765 383 758 q 349 783 350 771 q 351 794 351 789 q 332 824 351 807 q 306 849 308 844 q 283 839 303 850 q 261 826 274 838 q 279 714 274 772 q 293 682 300 697 q 264 671 283 663 q 249 686 257 672 q 264 715 247 703 l 246 826 q 231 831 242 831 q 218 832 221 831 q 190 846 206 829 q 167 863 175 863 q 150 854 158 863 q 132 843 150 853 q 124 826 121 838 q 93 813 117 810 q 76 831 79 818 q 96 860 74 853 q 111 857 101 863 q 125 857 119 853 q 163 881 138 864 q 171 963 143 926 q 242 999 199 999 q 319 949 296 999 q 313 867 340 906 l 315 861 q 347 828 321 857 q 385 807 367 807 q 393 778 397 799 m 406 739 q 389 560 407 665 q 363 540 383 547 q 336 543 353 536 q 310 550 315 550 q 274 510 286 550 q 263 451 263 481 q 272 392 263 421 q 272 371 272 381 q 261 354 271 358 q 226 363 240 347 q 219 390 218 372 q 222 421 222 421 q 231 619 229 458 q 253 643 235 636 q 294 642 274 642 q 324 663 317 643 q 325 699 328 671 q 336 729 324 722 q 372 728 332 728 q 389 744 388 728 q 406 739 397 756 m 439 414 q 436 382 442 389 q 389 356 415 351 q 318 401 333 361 q 318 497 308 471 q 336 504 326 504 q 386 482 340 504 q 410 456 399 475 q 431 429 422 436 l 439 414 m 439 282 q 431 268 438 271 q 415 278 418 268 q 426 292 414 290 q 439 282 436 292 m 443 214 q 414 206 436 199 q 406 233 399 217 q 421 244 408 240 q 440 238 432 246 q 443 214 449 229 m 364 314 q 363 297 367 313 q 338 290 353 286 q 324 307 326 294 l 325 317 q 333 313 329 318 q 342 307 338 307 q 364 314 349 306 m 286 283 q 274 246 290 267 q 232 238 257 232 q 201 276 201 250 l 203 283 q 242 258 225 257 q 282 281 271 256 q 283 283 282 282 l 286 283 m 300 886 q 292 957 318 922 q 257 978 281 967 q 240 981 249 981 q 189 951 211 981 q 179 892 167 922 q 197 899 182 892 q 215 950 193 932 q 253 958 235 963 q 279 935 265 953 q 283 911 285 928 q 288 889 281 894 q 300 886 296 878 m 261 932 q 231 943 253 951 q 219 914 211 933 q 247 900 229 896 q 261 932 271 911 m 282 863 q 280 874 285 868 q 268 881 275 881 q 258 874 263 881 q 261 853 256 856 q 282 863 261 853 m 240 850 q 238 868 240 850 q 220 876 231 869 q 204 882 210 882 q 192 874 197 882 q 217 853 192 868 q 228 849 217 853 q 240 850 235 846 m 382 701 q 358 715 376 717 q 340 703 344 714 q 350 675 333 686 q 376 679 361 667 q 382 701 386 692 m 375 578 q 363 569 374 578 q 349 569 357 565 q 336 578 343 574 q 340 560 332 571 q 363 554 356 550 q 375 578 383 563 m 276 613 q 257 624 274 626 q 247 606 244 615 q 268 594 253 590 q 276 613 279 599 m 415 421 q 403 436 414 428 q 379 386 396 418 l 379 375 q 404 390 397 371 q 415 421 414 419 m 376 468 q 361 474 363 474 q 338 401 351 451 q 349 393 349 393 q 376 468 368 435 m 372 694 q 361 683 372 685 q 350 692 350 688 q 356 704 349 696 q 372 694 371 707 z "},"2":{"ha":876,"x_min":-25,"x_max":911,"o":"m 908 0 q 885 -33 903 -14 q 781 -74 850 -49 l 643 -75 q 618 -68 635 -68 q 592 -68 597 -69 q 454 -26 524 -47 q 310 -1 374 -4 q 182 -42 264 0 q 119 -21 153 -43 q 64 18 92 -1 q -25 142 -25 86 q -22 164 -25 153 q 49 340 -3 225 q 150 542 82 449 q 199 582 185 571 q 253 611 228 603 q 404 696 306 635 q 422 738 422 728 q 361 801 399 785 q 336 804 349 804 q 250 760 283 804 q 240 724 247 747 q 245 699 240 717 q 250 674 250 682 q 234 648 250 654 q 199 643 218 642 q 164 646 164 646 q 107 679 164 646 q 53 724 72 700 q -18 894 -18 811 q 27 1031 -18 967 q 140 1119 72 1094 q 246 1132 214 1132 q 397 1075 317 1132 q 408 1078 403 1074 q 418 1085 414 1083 q 511 1093 463 1093 q 679 1061 604 1093 l 733 1028 q 853 840 806 983 q 864 703 868 776 q 808 549 860 632 q 696 468 772 506 q 576 399 606 424 q 553 358 553 364 q 554 350 553 354 q 765 306 654 350 q 797 306 776 301 q 793 338 794 311 q 778 365 792 358 q 765 368 771 368 q 742 360 756 368 q 721 351 728 351 q 697 368 707 351 q 696 425 692 379 q 753 454 710 456 q 857 396 825 451 q 889 332 874 364 q 904 263 906 294 q 911 226 911 246 q 906 178 911 210 q 899 133 900 147 q 908 0 899 132 m 850 218 q 843 249 850 231 q 807 224 832 229 q 763 219 804 222 q 597 279 693 264 q 568 283 583 283 q 517 275 547 283 q 468 263 474 264 q 426 301 433 268 q 424 332 424 317 q 476 433 424 396 q 525 458 490 444 q 636 515 525 458 q 739 593 704 549 q 760 638 756 607 q 764 688 764 688 q 756 769 757 757 q 729 843 747 814 q 704 885 719 854 q 674 928 689 915 q 506 1019 626 1019 q 457 1015 482 1019 q 401 1000 426 1000 q 357 1019 375 1000 q 300 1054 328 1040 q 183 1036 238 1067 q 104 925 118 1001 q 99 844 100 900 q 153 739 129 771 q 167 742 158 739 q 226 832 183 774 q 339 871 279 871 q 394 860 369 871 q 485 732 472 825 q 454 656 482 692 q 389 607 426 619 q 288 558 338 582 q 194 490 228 528 q 136 365 144 388 q 107 228 107 292 q 111 185 107 207 q 157 125 125 158 q 213 72 185 99 l 225 65 q 339 90 271 90 q 453 68 403 90 q 510 44 482 56 q 571 28 543 31 q 643 11 596 10 q 721 13 724 11 l 799 40 q 828 54 813 46 q 844 76 844 63 q 840 93 844 85 q 850 218 833 131 m 443 910 q 429 889 444 890 q 408 904 410 888 q 421 922 408 914 q 443 910 435 926 m 393 943 q 383 922 393 926 q 361 932 371 917 q 374 957 353 950 q 393 943 389 958 m 707 726 q 688 706 704 708 q 669 713 678 703 q 653 729 657 728 q 614 744 622 744 q 597 740 606 744 q 571 701 578 729 q 565 649 568 693 q 528 616 554 628 q 478 592 503 604 q 436 532 454 579 q 396 465 417 481 q 347 472 368 454 q 339 517 335 489 q 396 586 354 556 q 474 631 411 597 q 525 686 507 642 q 508 793 529 768 q 497 814 508 794 q 490 835 490 826 q 500 860 490 842 q 504 894 510 878 q 474 943 496 913 q 482 976 467 964 q 510 982 492 983 q 539 978 525 979 q 657 885 624 957 q 707 726 700 814 m 665 649 q 643 618 657 638 q 649 592 639 607 q 660 572 660 576 q 647 558 660 564 q 629 572 629 557 q 628 617 640 606 q 604 601 608 622 q 595 579 603 594 q 588 556 588 564 q 590 543 588 549 q 578 528 585 529 q 557 540 563 524 q 560 558 556 544 q 585 583 576 563 q 600 618 597 614 q 597 625 601 622 q 504 560 558 606 q 492 533 510 540 q 468 549 476 528 q 476 572 465 557 q 489 574 481 576 q 500 575 497 572 q 586 638 531 594 q 589 693 569 663 q 625 711 601 711 q 659 690 647 711 q 665 649 671 669 m 299 910 q 272 899 289 893 q 263 929 250 911 q 275 940 264 936 q 294 935 289 942 q 299 910 304 924 m 343 971 q 333 949 346 954 q 306 954 324 949 q 278 960 288 960 q 260 956 268 960 q 224 885 218 929 q 175 833 215 856 q 169 825 174 832 q 161 821 165 818 q 153 851 158 832 q 150 906 151 879 q 163 956 150 938 q 258 1004 194 1004 q 289 1001 274 1004 q 343 971 329 990 m 561 210 q 551 193 561 194 q 536 203 538 193 q 543 218 535 208 q 561 210 558 222 m 328 431 q 317 413 331 418 q 303 421 311 414 q 313 440 296 433 q 328 431 321 443 m 499 201 q 488 188 499 193 q 475 196 482 189 q 485 215 472 211 q 499 201 496 214 m 385 306 q 374 293 382 296 q 360 303 364 292 q 371 319 357 317 q 385 306 382 318 m 575 119 q 543 100 565 100 q 511 106 529 100 q 482 117 489 115 q 315 171 403 153 q 275 150 299 168 q 240 128 251 132 q 208 125 219 115 q 179 160 193 142 q 164 197 165 178 q 151 260 151 232 q 167 310 151 292 q 218 447 218 400 q 240 490 228 468 q 272 511 251 511 q 296 499 292 510 q 276 463 299 481 q 251 429 253 446 q 254 340 236 375 q 293 322 276 317 q 325 389 318 357 q 356 400 332 401 q 375 388 364 399 l 374 368 q 310 260 349 333 q 317 247 310 254 q 339 264 324 254 q 369 263 354 274 q 378 233 383 253 q 353 223 374 224 q 335 204 333 222 q 406 182 358 197 q 485 163 433 171 q 565 147 542 154 q 575 119 581 132 m 433 226 q 422 208 435 214 q 408 215 417 208 q 418 236 401 228 q 433 226 428 239 m 294 374 q 285 350 297 357 q 264 361 269 347 q 275 385 256 379 q 294 374 283 385 m 554 942 q 535 950 550 951 q 522 938 529 949 q 526 913 517 925 q 542 924 535 911 q 554 942 554 942 m 606 906 q 586 924 606 911 l 550 874 l 550 831 l 554 831 q 606 906 569 857 m 656 815 q 638 778 639 801 q 650 783 642 778 q 656 815 661 800 m 639 853 q 628 876 638 863 q 582 808 597 835 q 581 794 575 803 q 600 792 593 788 q 639 853 608 815 m 651 650 q 644 690 661 669 q 622 699 633 699 q 593 675 600 693 q 600 639 588 658 q 628 629 611 629 q 651 650 647 636 m 214 951 q 203 961 210 958 q 190 957 196 964 q 186 940 185 950 q 204 929 189 926 q 214 951 219 936 m 203 897 l 201 897 q 188 892 196 892 q 172 897 179 892 q 179 878 167 890 q 199 882 192 872 q 203 897 207 892 m 403 507 q 392 499 400 507 q 376 492 383 490 q 356 507 369 499 l 354 496 q 371 479 358 483 q 396 485 378 475 q 403 507 406 492 m 282 490 q 274 501 281 497 q 263 500 267 506 q 275 478 265 490 q 282 490 278 479 m 361 378 q 343 390 361 394 q 338 379 333 386 q 349 376 343 381 q 360 369 356 371 q 361 378 361 378 m 560 128 q 546 140 556 147 q 540 114 551 131 q 551 113 540 114 q 560 128 557 114 m 368 249 q 356 257 367 251 q 357 232 353 246 q 368 249 369 235 m 293 265 q 221 303 272 308 q 180 273 200 300 q 176 200 160 246 q 219 164 192 169 q 288 192 261 156 q 293 265 310 221 m 642 671 q 638 649 647 660 q 617 643 628 639 q 604 657 606 650 q 617 683 601 675 q 642 671 631 692 m 285 215 q 243 178 279 188 q 197 192 217 174 q 183 249 176 219 q 225 290 192 285 q 269 276 243 293 q 285 215 293 254 m 275 218 q 263 269 282 250 q 229 279 254 276 q 194 254 206 276 q 208 196 185 211 q 251 192 228 181 q 275 218 265 197 m 250 225 q 238 200 253 211 q 214 214 219 196 q 218 233 213 215 q 236 239 225 243 q 250 225 249 236 z "},"3":{"ha":928,"x_min":-25,"x_max":944,"o":"m 915 193 q 769 29 857 75 q 725 -6 747 11 q 675 -29 699 -24 q 575 -26 640 -31 q 474 -22 506 -22 q 397 -26 432 -22 q 358 -29 385 -26 q 319 -32 332 -32 q 267 -17 286 -32 q 194 32 236 -4 q 126 88 139 78 q 67 147 113 106 q 13 211 28 185 q -25 319 -25 256 q -7 392 -25 361 q 11 432 -4 410 q 38 468 24 450 l 97 525 q 225 581 185 581 q 282 561 256 581 q 333 492 303 540 q 326 479 332 481 q 321 481 324 479 q 285 492 308 499 q 263 465 271 485 q 347 283 249 340 q 385 274 356 282 q 424 267 410 267 q 454 275 440 267 q 479 342 488 294 q 333 578 446 428 q 322 593 332 581 q 314 608 314 601 q 319 619 314 614 q 396 656 358 638 q 444 722 442 678 q 415 776 446 754 q 190 754 278 785 q 147 729 169 742 q 111 693 122 713 q 108 672 108 682 q 140 604 108 632 q 124 596 133 596 q 96 607 113 596 q 69 621 75 619 q 46 664 56 636 q 29 708 32 701 q 13 819 13 761 q 64 994 13 925 q 243 1140 136 1125 q 328 1125 279 1146 q 410 1092 400 1094 q 569 1057 528 1057 q 620 1060 586 1057 q 671 1063 654 1063 q 753 1038 722 1063 q 888 915 849 974 q 890 858 889 896 q 885 856 888 856 q 875 863 882 856 q 864 869 868 869 q 810 858 844 875 q 783 810 796 842 q 760 758 769 772 q 747 685 758 738 q 738 610 738 639 q 826 544 757 588 q 906 465 883 508 q 944 326 944 408 q 915 193 944 253 m 807 931 q 772 949 799 953 q 754 929 764 943 q 763 899 754 904 q 790 893 771 888 q 807 931 818 901 m 169 1013 q 168 1022 171 1017 q 139 1022 153 1036 q 146 1010 138 1014 q 169 1013 165 1006 m 149 975 q 146 986 149 978 q 106 985 132 990 q 110 972 101 979 q 149 975 140 968 m 132 936 q 114 947 131 947 q 88 949 92 946 q 81 933 74 942 q 132 936 99 929 m 115 892 q 113 906 121 901 q 79 907 103 903 q 49 904 60 911 q 51 893 44 899 q 115 892 117 892 m 833 336 q 708 528 835 446 q 615 574 707 529 q 606 601 604 586 q 660 753 632 657 q 706 908 693 872 l 706 929 q 681 961 704 938 q 567 982 643 975 q 453 1000 486 990 q 383 1015 436 1003 q 314 1028 340 1028 q 263 1018 286 1028 q 197 972 226 1010 q 154 906 186 958 q 114 806 132 868 q 154 804 126 800 q 426 842 282 849 q 492 833 458 838 q 551 810 531 828 q 563 724 575 779 q 432 601 546 654 q 422 575 415 593 q 513 453 468 514 q 582 321 561 381 q 590 264 590 293 q 556 169 590 204 q 482 147 526 147 q 371 178 426 147 q 275 244 318 196 q 217 347 232 292 q 211 414 217 367 q 207 479 207 457 q 213 531 207 507 q 86 449 142 504 q 21 318 21 385 q 51 238 21 279 q 111 169 81 203 q 132 154 121 167 q 150 135 146 138 q 206 93 163 128 q 265 60 240 65 q 394 35 313 38 q 533 32 532 32 q 622 57 564 39 q 711 108 667 68 q 786 188 729 125 q 833 336 832 278 m 101 861 q 74 868 93 868 q 43 868 43 868 q 32 853 29 863 q 90 849 51 853 q 101 861 104 850 m 82 825 q 69 831 78 831 q 54 829 54 829 q 46 818 49 831 q 74 813 53 807 q 82 825 85 813 m 96 746 l 79 743 q 73 748 76 743 q 65 751 69 753 q 64 736 64 738 q 86 725 69 722 q 96 746 103 735 m 792 936 q 776 921 786 933 q 781 903 778 928 q 764 915 767 901 q 776 939 758 931 q 792 936 782 939 m 664 922 q 654 867 676 899 q 617 850 636 850 q 583 870 600 850 q 572 918 567 890 q 608 951 578 938 q 664 922 646 956 m 635 781 q 625 760 642 769 q 601 769 608 753 l 603 786 q 635 781 621 775 m 529 879 q 501 871 517 864 q 490 896 483 881 q 511 890 497 893 l 528 897 q 529 879 532 896 m 450 939 q 436 911 454 917 q 425 917 431 917 q 407 901 415 917 q 394 881 394 881 q 363 874 378 868 q 349 899 349 881 q 356 904 353 904 q 364 898 358 904 q 374 892 369 892 q 381 894 376 892 q 403 965 401 911 q 414 967 411 969 q 416 954 418 963 q 417 942 414 946 l 428 932 q 440 934 433 931 q 450 939 447 938 m 615 696 q 601 674 615 678 q 581 688 583 674 q 592 710 576 704 q 615 696 610 713 m 333 929 q 288 894 319 894 q 247 921 263 894 q 249 973 233 953 q 290 993 264 993 q 326 972 313 993 q 333 929 339 950 m 575 617 q 563 594 576 599 q 539 607 546 590 q 553 629 536 622 q 575 617 572 628 m 519 574 q 504 551 521 554 q 483 567 486 553 q 499 589 482 586 q 519 574 517 588 m 200 864 q 190 851 196 851 q 178 861 183 850 q 185 874 178 867 q 200 864 197 876 m 765 388 q 775 304 775 344 q 764 226 775 260 q 719 171 753 192 q 658 143 713 167 q 632 149 649 139 l 621 163 q 624 222 624 193 q 596 407 624 322 q 574 454 593 424 q 556 506 556 485 q 559 522 556 513 q 576 532 563 532 q 600 526 588 529 q 692 475 635 511 q 765 388 735 447 m 235 210 q 221 175 244 188 q 188 189 200 167 q 175 228 190 207 q 146 260 160 244 q 79 268 106 244 q 53 324 53 292 q 104 390 53 376 q 129 406 122 386 q 143 438 142 436 q 143 464 136 456 q 156 475 144 471 q 178 467 167 476 q 183 442 189 457 q 170 427 182 433 q 157 414 158 421 q 153 381 150 404 q 182 310 190 353 q 167 274 175 297 l 206 225 q 235 210 228 225 m 653 892 q 646 928 658 908 q 599 931 621 950 q 619 921 611 929 q 625 893 631 907 q 599 872 622 883 q 631 867 607 860 q 653 892 649 871 m 613 910 q 599 919 610 917 q 588 901 583 915 q 603 892 593 889 q 613 910 614 893 m 322 931 q 317 960 328 944 q 294 965 306 967 q 278 951 281 960 q 284 922 272 932 q 306 915 296 913 q 322 931 314 918 m 689 418 l 689 426 q 675 438 685 428 q 657 446 665 449 q 628 433 647 444 q 633 407 628 425 q 689 418 664 404 m 736 321 q 724 363 738 356 q 665 338 706 353 q 656 324 654 336 q 658 303 658 303 q 736 321 683 311 m 731 253 l 726 256 q 664 244 706 254 q 667 217 664 244 q 671 190 665 207 q 731 253 714 207 m 163 310 q 151 356 168 336 q 119 371 142 371 q 88 360 100 371 q 71 324 76 350 q 96 281 71 299 q 135 278 115 269 q 163 310 158 294 m 143 326 q 122 346 138 335 q 97 339 117 347 q 113 357 94 344 q 143 340 131 361 l 143 326 m 129 315 q 118 294 132 304 q 97 306 104 292 q 107 325 94 315 q 129 315 119 328 z "},"4":{"ha":860,"x_min":-85,"x_max":868,"o":"m 851 443 q 844 350 868 385 q 796 322 815 317 q 790 335 789 328 q 797 383 807 350 q 750 418 778 417 q 703 390 726 418 q 699 349 699 371 q 703 289 699 326 q 710 229 708 246 q 765 89 729 138 q 753 46 765 69 q 729 8 742 28 q 622 -14 692 -14 q 568 -12 603 -14 q 518 -10 533 -10 q 371 7 469 0 q 335 4 358 7 q 297 0 307 0 q 246 28 261 0 q 222 75 222 63 q 226 90 222 83 q 317 308 322 213 q 307 354 318 326 q 249 371 279 356 q 44 472 182 408 q -14 463 -3 479 q -6 411 -19 425 q 8 398 -4 404 q 21 385 21 392 q 18 376 21 381 q -8 369 14 364 q -82 506 -69 390 q -58 581 -85 531 l 413 1085 q 438 1093 419 1093 q 464 1097 457 1093 q 518 1082 488 1096 q 569 1058 567 1060 q 679 992 607 1040 l 688 974 q 683 547 692 889 q 714 536 692 540 q 743 529 736 532 q 851 443 832 510 m 753 461 q 747 488 761 472 q 738 490 743 490 q 726 488 731 490 q 700 472 719 475 q 667 467 669 468 q 642 501 661 479 q 631 507 640 503 q 624 518 621 511 q 628 549 625 522 q 644 572 631 568 q 636 596 651 586 q 617 594 625 600 q 611 576 610 588 q 614 549 617 567 q 610 517 610 518 l 606 513 q 582 514 597 508 l 588 929 l 579 939 q 522 965 553 946 q 463 1003 490 985 q 442 1008 451 1008 q 401 983 422 1008 q 365 944 368 947 l 32 588 q 28 574 32 583 q 24 560 24 564 q 32 547 24 551 q 168 489 88 538 q 301 419 261 432 q 365 414 324 419 q 383 304 378 360 q 385 260 382 293 q 385 215 386 232 q 371 176 382 192 q 356 139 364 157 q 347 99 346 117 q 374 79 354 85 q 406 74 389 76 q 418 101 417 81 q 465 121 426 119 q 474 132 469 122 q 485 144 478 142 q 499 142 490 149 q 493 125 504 135 q 490 117 490 119 q 506 111 490 110 q 525 107 521 113 q 518 94 526 103 q 500 85 510 85 q 480 91 494 85 q 457 96 465 97 q 449 78 446 92 q 465 64 454 65 q 663 51 526 51 q 675 76 679 54 q 615 222 636 135 q 586 383 604 268 l 589 388 q 654 410 632 382 q 672 453 658 425 q 694 456 681 451 q 714 460 708 460 q 731 453 724 460 q 753 461 743 446 m 500 868 q 492 856 500 860 q 478 864 483 853 q 488 878 479 876 q 500 868 500 876 m 460 878 q 449 865 460 868 q 436 874 439 868 q 447 888 435 886 q 460 878 458 888 m 557 908 l 550 724 q 563 657 563 650 q 553 624 563 638 q 526 621 538 613 q 514 650 514 633 q 533 711 514 653 q 543 840 533 718 q 510 896 539 885 q 468 913 471 913 q 457 911 463 913 q 422 892 444 908 q 386 875 399 875 q 361 886 374 875 q 378 917 358 906 q 408 939 404 933 q 426 963 411 940 q 450 974 436 978 l 506 943 q 535 931 521 936 q 557 908 551 921 m 346 849 q 339 833 349 838 q 325 842 328 832 q 333 857 322 856 q 346 849 344 856 m 314 810 q 304 797 313 799 q 290 807 294 797 q 300 819 293 818 q 314 810 311 821 m 499 801 q 500 761 504 785 q 493 722 497 742 q 435 531 482 643 q 407 521 424 521 q 356 535 392 521 q 274 617 307 554 q 250 653 261 624 q 260 689 250 653 l 410 843 q 425 844 417 844 q 488 821 443 844 l 499 801 m 510 476 q 501 464 508 465 q 488 471 490 461 q 494 485 485 481 q 510 476 508 488 m 644 436 q 617 407 636 415 q 579 408 603 404 l 549 375 q 544 303 571 335 q 492 276 524 276 q 475 278 483 276 q 433 314 443 290 q 443 383 417 347 q 456 392 443 383 q 460 403 461 397 q 461 427 451 414 q 486 431 471 440 q 497 406 494 426 q 526 400 525 400 q 547 424 526 401 q 561 450 561 438 q 558 463 561 456 q 560 469 558 464 l 506 528 q 481 542 489 522 q 493 564 478 556 q 519 553 514 567 q 538 515 521 535 q 567 483 567 483 q 583 490 571 485 q 603 496 594 496 q 640 474 631 492 q 644 436 649 456 m 265 532 q 240 525 256 518 q 222 569 224 535 q 207 615 219 604 q 185 636 201 625 q 156 624 172 638 q 140 599 140 611 q 151 571 140 589 q 161 546 161 553 q 135 533 161 533 q 92 563 122 546 q 81 594 74 574 q 147 661 96 625 q 213 728 199 697 q 225 750 215 731 q 243 769 235 769 q 258 760 250 769 l 257 746 q 231 706 254 739 q 213 664 213 681 q 226 632 213 647 q 268 550 268 596 q 265 532 268 540 m 314 496 q 306 482 315 488 q 290 492 292 483 q 301 504 292 504 q 314 496 310 506 m 461 944 q 447 954 456 954 q 433 939 433 953 q 453 928 440 924 q 461 944 464 932 m 400 899 q 383 910 397 913 q 375 892 372 904 q 393 886 382 881 q 400 899 396 889 m 439 715 q 443 738 442 726 q 439 760 446 751 q 424 758 433 763 q 407 751 415 754 q 361 632 357 706 q 388 610 368 621 q 396 604 392 604 q 415 619 400 604 q 439 715 433 669 m 633 440 q 625 476 639 461 q 586 482 611 492 q 568 450 568 475 q 583 422 569 431 q 617 421 603 414 q 633 440 628 429 m 346 701 q 331 707 342 708 q 313 706 315 704 q 304 693 300 704 q 338 689 310 686 q 346 701 350 690 m 333 653 q 329 667 340 664 q 274 664 310 668 q 279 649 267 653 l 328 649 l 333 653 m 567 419 l 561 419 q 547 407 558 415 q 536 392 536 399 q 539 386 536 389 q 567 419 568 408 m 340 622 q 317 629 338 628 q 304 614 300 626 q 317 608 307 607 q 332 610 329 610 q 340 622 343 614 m 488 415 l 483 415 q 474 411 482 411 q 465 407 465 411 q 479 399 471 397 q 488 415 496 403 m 535 372 q 497 388 524 396 q 483 358 479 376 q 499 340 488 344 q 526 344 514 336 q 535 372 539 358 m 263 549 l 257 549 q 246 544 254 543 q 236 543 238 544 q 256 535 240 528 q 263 549 267 542 m 489 310 l 479 310 q 469 317 474 310 q 463 325 465 325 q 458 306 453 317 q 481 296 463 293 q 489 310 497 297 m 115 576 q 104 604 101 585 q 92 594 96 604 q 99 574 85 582 q 115 576 110 569 m 622 460 q 617 439 622 444 l 613 439 q 608 463 615 454 l 596 469 q 610 471 601 475 q 622 460 619 467 m 601 449 q 594 435 603 442 q 579 442 582 433 q 586 457 578 453 q 601 449 594 458 m 524 369 q 513 351 525 360 q 494 364 497 346 q 499 374 494 368 q 511 379 503 381 q 524 369 521 378 z "},"5":{"ha":961,"x_min":-32,"x_max":963,"o":"m 840 108 q 713 33 811 75 q 538 -6 640 1 q 350 -7 478 -10 q 167 -8 228 -3 q 114 -19 124 -19 q 82 -8 94 -19 q 25 50 54 21 q -6 119 -6 86 q 0 150 -6 135 q 4 228 4 185 q 0 330 4 263 q -4 426 -4 397 q 57 535 14 506 q 126 525 100 542 q 140 483 147 507 q 129 488 135 483 q 121 493 124 493 q 82 479 99 496 q 76 440 65 463 q 98 425 82 428 q 128 421 114 422 q 214 401 171 411 q 293 364 264 389 q 422 329 386 329 q 492 351 463 329 q 500 421 517 375 q 449 449 488 442 q 410 431 431 453 q 372 410 389 408 l 208 429 q 174 460 183 436 q 40 813 131 578 q 8 881 26 835 q -21 946 -11 928 q -4 1026 -32 989 q 124 1113 26 1054 q 140 1117 132 1117 q 167 1108 150 1117 q 192 1100 183 1100 q 256 1092 222 1092 q 367 1108 297 1092 q 479 1132 447 1128 q 611 1139 556 1139 q 846 1092 740 1139 q 864 1050 860 1079 q 874 1003 869 1013 q 882 940 875 986 q 889 876 889 900 q 883 835 889 854 q 800 746 865 761 q 775 743 801 746 q 757 753 761 742 q 751 806 767 796 l 739 814 q 631 828 697 826 q 522 829 522 829 q 501 813 501 824 q 524 729 507 783 l 532 724 q 768 688 593 725 q 890 581 858 651 q 963 367 963 482 q 840 108 963 244 m 847 833 q 828 846 847 850 q 806 834 817 840 q 796 815 794 828 q 815 806 801 804 q 836 817 825 811 q 847 833 847 822 m 807 778 q 792 788 804 790 q 783 776 783 785 q 796 765 786 765 q 807 778 801 765 m 899 438 q 886 447 897 446 q 872 440 875 449 q 875 422 868 425 q 890 419 883 415 q 899 438 901 425 m 843 483 q 822 496 838 501 q 813 475 811 492 q 832 465 818 464 q 843 483 842 469 m 476 822 q 444 836 467 831 q 410 847 418 843 q 386 843 389 850 q 390 833 385 838 q 467 811 417 828 q 476 822 481 811 m 868 375 q 849 386 865 389 q 839 367 838 382 q 857 357 844 354 q 868 375 871 360 m 472 782 q 469 794 474 789 l 417 800 q 408 788 407 797 q 436 779 417 781 q 467 778 451 778 l 472 782 m 482 751 l 479 758 q 433 756 460 761 q 432 746 429 751 q 439 739 433 740 q 464 740 439 739 q 482 751 479 740 m 497 722 q 485 728 496 729 q 460 718 482 725 q 443 700 444 713 q 453 694 446 697 q 481 705 467 700 q 497 722 494 710 m 921 286 q 874 329 919 329 q 840 314 851 329 q 833 264 824 297 q 861 238 844 244 q 904 247 886 232 q 921 286 922 263 m 632 403 q 611 417 628 417 q 599 389 589 410 q 621 379 604 378 q 632 403 635 386 m 826 904 q 818 978 824 914 q 794 1046 814 1024 l 703 1078 q 578 1076 661 1076 q 410 1053 517 1078 q 249 1028 303 1028 q 202 1033 224 1028 q 174 1035 181 1038 l 107 989 q 90 972 99 981 q 82 953 81 964 q 257 503 140 803 q 281 481 265 483 q 360 476 342 471 q 442 514 389 513 l 446 518 q 442 538 446 526 q 407 550 415 551 q 390 528 403 542 q 385 525 388 525 q 372 533 379 525 q 358 540 365 542 l 321 506 q 294 510 314 497 q 293 518 293 514 q 307 540 293 529 q 331 560 326 554 q 322 574 331 572 q 304 572 318 575 q 285 574 290 571 q 267 596 263 582 q 294 613 274 611 q 332 610 314 611 q 340 621 340 614 q 337 634 340 625 q 333 649 333 643 q 336 657 333 653 q 360 668 347 671 q 379 656 369 667 q 396 636 394 636 q 433 617 407 617 q 450 617 439 617 q 468 618 463 618 q 501 606 489 618 q 488 585 501 589 q 458 585 482 583 q 431 579 439 585 q 442 563 432 569 q 458 551 457 551 q 483 539 467 550 q 482 513 489 532 q 565 431 560 475 q 582 442 565 431 q 618 439 604 446 q 644 396 646 422 q 610 351 643 363 q 588 351 600 347 q 568 357 572 357 q 532 297 558 317 q 422 264 489 264 q 326 282 371 264 q 281 296 311 283 q 107 357 221 339 q 81 354 94 356 q 63 339 67 353 q 61 114 71 183 q 86 79 65 97 q 117 49 110 57 l 124 47 q 193 57 138 53 q 344 58 242 63 q 499 58 449 54 q 639 97 582 65 q 729 153 686 114 q 790 240 772 193 q 807 317 807 268 q 804 397 807 318 q 726 569 775 519 q 529 646 642 656 q 488 644 518 647 q 446 644 460 643 q 408 660 424 647 q 326 914 354 804 q 336 922 328 919 q 533 890 435 907 q 736 869 650 874 q 794 871 783 868 q 826 904 822 879 m 592 375 q 581 410 575 396 q 587 416 582 413 q 590 424 592 419 q 572 419 585 425 q 567 389 561 408 q 592 375 576 371 m 396 568 q 382 567 388 567 q 368 568 376 567 l 367 561 q 385 551 379 550 q 396 568 400 556 m 789 938 q 760 904 785 918 q 706 918 726 892 q 701 926 701 921 q 747 917 729 910 q 775 944 767 925 q 771 976 778 972 q 739 989 747 969 l 739 1006 q 771 996 761 989 l 781 1006 q 783 994 786 1001 q 781 981 779 983 q 789 938 794 961 m 650 954 q 643 943 643 943 q 616 984 629 953 q 583 1025 603 1015 q 556 1031 571 1031 q 501 1014 526 1031 q 479 983 497 1011 q 450 963 467 965 q 417 981 426 965 q 411 1021 407 997 q 419 1033 414 1029 q 429 1028 426 1036 q 432 989 422 1000 q 456 982 446 974 q 476 1011 463 988 q 504 1033 489 1031 q 550 1046 522 1046 q 611 1026 586 1046 q 631 990 621 1015 q 650 954 642 964 m 554 979 q 549 971 553 971 q 515 969 529 979 q 456 925 479 925 q 390 960 432 925 q 368 961 379 961 q 289 949 338 961 q 211 929 229 932 q 193 910 194 911 q 169 899 181 899 q 131 910 151 894 q 117 946 119 922 q 146 989 119 976 q 201 974 172 1000 l 215 974 l 363 1013 q 377 1021 368 1013 q 390 1029 386 1029 q 399 1022 394 1029 q 383 1004 396 1010 q 358 994 371 999 l 335 993 q 161 950 276 979 q 169 963 158 954 q 186 967 179 961 q 174 979 186 972 q 140 971 158 985 q 129 932 122 957 q 151 910 135 915 q 185 914 169 904 l 189 921 q 181 924 188 924 q 172 924 172 924 q 168 931 167 925 l 176 936 q 357 978 238 947 q 371 981 364 981 q 414 960 388 981 q 454 940 440 940 q 482 953 468 940 q 519 989 492 968 q 554 979 544 994 m 906 268 q 863 250 890 240 q 843 275 850 256 q 849 303 838 289 q 872 318 860 317 q 906 297 899 315 q 906 268 914 283 m 594 563 q 578 560 585 554 q 575 581 564 569 q 590 583 581 586 q 594 563 604 576 m 553 599 q 543 579 556 588 q 525 588 529 576 q 533 607 521 603 q 553 599 549 610 m 742 472 q 728 454 742 460 q 717 458 725 453 q 707 464 710 464 q 700 456 703 464 q 725 351 700 439 q 707 311 725 326 q 690 325 701 310 q 683 450 689 368 q 671 468 682 458 q 646 467 672 468 q 621 468 631 465 q 614 485 610 476 q 628 490 617 492 q 644 492 639 488 q 649 501 649 496 q 644 517 649 507 q 639 533 639 528 q 643 544 639 539 q 675 554 660 560 q 742 472 725 536 m 340 767 q 328 742 344 750 q 306 757 310 731 q 300 819 310 786 q 278 875 289 847 q 260 886 269 889 q 246 839 254 878 q 253 818 246 832 q 260 797 260 804 q 257 786 260 792 q 236 778 249 775 q 219 802 225 783 q 204 826 213 821 q 193 818 194 824 q 275 688 210 735 q 283 656 288 664 q 265 640 275 642 q 234 656 244 638 q 214 692 224 675 q 165 822 194 735 q 142 878 154 840 q 163 881 147 885 q 185 883 178 878 q 214 907 196 885 q 247 921 229 925 q 271 918 258 919 q 288 906 283 917 q 340 767 308 861 m 613 288 q 606 265 617 281 q 583 260 600 258 q 571 288 567 269 q 590 301 575 301 q 613 288 607 301 m 443 193 q 431 161 449 163 q 409 181 415 161 q 390 204 403 200 q 335 193 371 204 q 278 182 299 182 q 251 186 264 182 q 146 249 179 196 q 133 240 140 250 q 132 226 132 233 q 138 190 132 214 q 144 156 144 167 q 122 119 144 132 q 93 136 100 118 q 103 193 88 168 q 99 303 111 243 q 117 328 100 315 q 165 317 139 332 q 208 288 186 303 q 403 228 267 229 q 443 193 435 217 m 897 293 q 871 307 893 306 q 854 296 860 306 q 860 264 844 281 q 882 260 864 260 q 897 293 907 269 m 131 146 q 118 149 128 150 q 104 147 108 146 q 110 135 103 140 q 128 138 122 129 l 131 146 z "},"6":{"ha":864,"x_min":-28,"x_max":860,"o":"m 854 399 q 854 338 860 386 q 849 297 849 289 q 828 197 844 263 q 797 135 817 176 q 765 97 789 121 q 671 51 713 68 q 644 39 664 44 q 618 28 625 33 q 596 21 610 28 q 572 15 582 14 q 490 6 544 11 q 415 0 465 4 q 354 4 394 1 q 278 15 329 8 q 239 29 271 17 q 215 36 231 29 q 186 49 206 40 q 147 69 161 64 q 82 139 128 86 q 46 201 67 160 q 29 234 36 214 q 3 290 22 254 q -12 344 -1 310 q -28 454 -28 376 l -26 572 q -23 603 -24 582 q -19 636 -22 625 q -8 701 -18 660 q 14 772 3 738 q 46 839 28 814 q 61 883 51 854 q 82 918 69 893 q 122 967 92 938 q 179 1001 143 975 q 235 1032 197 1013 q 294 1063 257 1051 q 367 1088 318 1074 q 428 1103 386 1094 q 465 1108 426 1103 q 519 1111 483 1110 l 661 1110 q 763 1067 711 1099 l 799 1035 q 828 986 811 1019 q 833 943 833 969 q 832 896 833 883 q 818 857 826 869 q 765 822 797 828 q 733 836 743 821 q 738 844 732 842 q 746 849 744 847 q 765 890 771 867 q 731 919 763 904 q 700 917 706 921 q 668 874 688 903 q 644 847 663 863 q 600 831 625 831 q 581 829 592 826 q 561 832 561 832 q 521 832 542 832 q 489 817 499 831 q 475 771 472 785 q 489 749 478 763 q 560 753 513 751 q 658 733 592 749 q 728 700 682 722 q 763 674 744 688 q 788 643 781 660 q 818 592 796 626 q 836 542 832 567 q 850 447 851 499 q 854 399 853 438 m 454 808 q 454 822 457 815 q 446 829 453 825 q 429 826 435 832 q 426 810 424 819 q 444 801 432 800 q 454 808 451 803 m 449 758 q 438 771 444 768 q 414 771 425 778 q 403 749 401 764 q 421 726 403 732 q 444 735 435 724 q 449 758 454 747 m 797 379 q 790 435 797 399 q 775 538 792 456 q 753 581 771 556 q 726 625 743 594 l 700 646 q 614 683 672 664 q 568 689 607 686 q 532 690 554 694 q 496 688 506 686 q 456 678 493 688 q 435 667 450 672 q 410 671 428 668 q 389 690 408 672 q 372 717 378 699 q 361 746 367 731 q 378 815 357 782 q 405 847 390 831 q 435 871 419 864 q 482 888 450 878 q 528 893 499 893 q 575 893 569 892 q 583 878 578 888 q 596 867 588 869 q 622 875 611 863 q 626 894 628 885 q 622 902 626 897 q 618 910 618 907 q 663 964 618 911 q 721 981 685 983 q 725 972 725 978 q 747 960 731 960 q 772 978 769 963 q 767 1001 775 990 q 744 1008 758 1011 q 728 1015 740 1006 q 649 1050 681 1043 l 522 1051 q 517 1061 522 1051 q 506 1069 513 1067 q 485 1067 496 1074 q 475 1049 475 1060 q 451 1039 474 1046 q 388 1015 428 1032 q 356 999 375 1014 q 324 983 336 985 q 292 964 314 975 q 269 949 285 956 q 247 936 253 942 q 222 911 232 929 q 206 882 207 882 q 188 842 197 869 q 156 754 161 789 l 154 551 q 158 519 154 532 q 151 497 160 517 q 163 468 147 483 l 165 450 q 147 433 158 446 q 143 407 135 419 q 155 394 146 399 q 172 386 164 389 q 171 361 176 383 q 178 342 169 349 q 190 313 188 336 q 207 269 192 294 q 228 226 224 238 q 278 158 244 204 q 331 122 294 144 q 375 106 346 117 q 414 96 383 104 q 456 90 439 89 q 494 82 476 86 q 592 83 528 82 q 625 96 603 88 q 676 119 654 113 q 729 147 694 128 l 744 165 q 776 239 758 189 q 788 294 781 251 q 793 336 788 310 q 797 379 796 350 m 122 761 q 118 775 124 768 q 93 775 106 792 q 90 757 86 768 q 107 749 97 747 q 122 761 118 750 m 111 692 q 75 721 103 717 q 32 705 49 725 q 21 660 15 685 q 60 625 29 631 q 106 644 88 621 q 111 692 125 667 m 78 589 q 65 599 76 593 q 49 594 58 601 q 44 576 40 586 q 61 564 49 564 q 76 572 69 565 q 78 589 82 578 m 104 525 q 96 533 103 531 q 79 531 88 536 q 71 517 71 526 q 81 500 71 506 q 100 503 90 496 q 104 525 110 511 m 319 85 q 299 85 313 97 q 275 63 288 81 q 281 54 276 60 q 289 54 288 53 q 318 76 300 61 q 319 85 321 82 m 174 231 q 172 241 176 236 q 161 244 167 246 q 96 218 139 236 q 71 206 86 217 q 74 195 69 199 q 85 193 79 192 q 151 219 107 203 q 174 231 160 221 m 281 117 q 271 124 279 122 q 243 106 265 121 q 210 81 232 99 q 208 72 207 74 q 218 67 211 67 q 245 82 228 69 q 279 107 263 94 q 281 117 283 113 m 196 185 q 195 195 199 192 q 186 197 192 199 q 143 178 171 190 q 108 158 131 174 q 108 147 104 153 q 121 144 113 143 q 186 176 142 156 q 196 185 190 178 m 235 149 q 225 153 231 153 q 203 143 226 153 q 158 118 188 135 q 153 110 154 115 q 157 101 153 104 q 168 101 161 97 q 217 128 185 111 q 235 139 224 131 q 235 149 236 146 m 671 1017 q 671 1006 674 1013 q 660 1000 667 999 q 649 1007 651 999 q 657 1024 643 1018 q 671 1017 667 1025 m 600 1021 q 594 1013 599 1014 q 576 1019 579 1011 q 576 1029 575 1022 q 586 1036 581 1036 q 600 1031 597 1035 q 600 1021 601 1024 m 619 964 q 617 950 621 954 q 603 947 608 944 q 596 956 597 949 q 598 967 593 963 q 611 971 603 972 q 619 964 618 967 m 678 622 q 676 619 678 622 q 650 615 654 619 q 642 590 639 604 q 643 581 643 581 q 628 599 632 583 q 637 625 626 615 q 664 632 647 635 q 678 622 672 629 m 715 578 q 713 551 724 564 q 688 540 701 538 q 669 560 672 544 q 682 588 665 578 q 715 578 704 597 m 728 511 q 721 503 726 507 q 707 503 715 500 q 701 514 701 507 q 706 524 701 519 q 725 522 718 533 q 728 511 728 519 m 543 674 q 542 663 544 672 q 533 660 535 658 q 531 675 533 665 q 532 681 529 679 q 543 674 540 681 m 743 486 q 724 458 742 465 q 697 464 707 456 q 689 489 683 478 l 690 489 q 710 472 697 474 q 736 485 726 469 q 739 489 736 486 q 743 486 740 489 m 574 607 q 567 599 572 601 q 560 599 563 596 q 561 608 560 599 q 563 619 560 613 q 571 617 567 621 q 574 607 575 613 m 431 744 q 426 738 429 740 q 418 743 422 738 q 422 750 418 747 q 431 744 429 751 m 547 968 q 519 944 539 957 q 458 947 467 947 q 401 921 439 940 q 375 907 390 918 q 351 887 356 890 q 333 853 347 883 q 331 768 333 853 q 315 742 328 749 q 292 742 303 735 q 276 793 281 749 q 272 800 275 797 q 252 783 263 803 q 244 728 242 764 q 258 692 247 715 q 299 639 279 671 q 299 589 310 611 q 275 569 289 571 q 242 583 256 567 q 208 636 228 599 q 204 735 192 690 q 229 810 214 760 q 261 879 238 833 q 294 910 279 904 q 338 935 308 917 q 383 956 353 942 q 413 965 392 960 l 442 979 q 474 999 446 981 q 507 1013 493 1013 q 542 995 532 1013 q 547 968 553 978 m 497 658 q 494 650 499 654 q 453 636 481 647 q 446 638 450 635 q 443 646 442 642 l 449 650 q 486 663 458 653 q 497 658 496 664 m 533 617 q 529 610 533 614 q 504 606 525 607 q 480 603 497 606 q 453 603 463 601 q 450 607 450 604 q 451 614 449 610 l 457 617 q 518 622 478 618 q 533 617 532 622 m 464 571 q 454 568 463 565 q 451 576 450 571 q 463 578 457 586 q 464 571 465 575 m 333 701 q 324 692 329 694 q 307 697 314 690 q 303 714 300 703 q 317 724 307 724 q 330 719 324 725 q 333 701 336 714 m 351 657 q 344 650 350 651 q 335 652 340 649 q 331 667 329 656 q 340 674 335 674 q 350 669 347 674 q 351 657 356 661 m 431 603 q 406 554 435 569 q 376 550 392 549 q 368 551 374 550 q 338 588 342 561 q 358 636 333 619 q 393 643 367 643 q 400 642 396 643 q 431 603 426 633 m 654 471 q 654 447 657 463 q 650 424 650 431 q 583 306 644 375 q 539 283 569 296 q 442 287 460 278 q 389 324 424 296 q 373 349 381 331 q 363 372 365 368 q 356 408 356 386 q 357 447 357 457 q 382 496 360 463 q 405 515 388 506 q 429 533 422 524 q 460 544 439 536 q 533 565 500 557 q 554 569 540 565 q 576 572 568 572 q 611 569 601 579 q 639 533 614 565 q 648 501 646 524 q 654 471 650 479 m 376 522 q 371 514 376 515 q 363 518 367 511 q 367 526 363 525 q 376 522 374 529 m 329 557 q 326 550 329 551 q 247 517 324 549 q 238 521 239 515 q 239 528 238 521 q 261 538 246 531 q 322 563 268 540 q 329 557 329 563 m 343 519 q 315 463 335 500 q 307 460 311 458 q 303 471 299 463 q 335 533 314 499 q 342 531 340 535 q 343 519 343 526 m 290 500 q 290 488 293 492 q 285 485 288 485 q 272 501 283 493 q 265 504 269 501 q 275 510 268 510 q 290 500 283 511 m 94 682 q 78 664 92 667 q 54 672 63 661 q 49 693 47 679 q 65 710 53 706 q 92 699 81 713 q 94 682 97 692 m 97 651 q 93 647 97 649 q 89 650 90 646 q 92 656 88 653 q 97 651 96 657 m 219 497 q 208 494 214 493 q 197 504 201 496 q 197 518 193 513 q 206 522 203 524 l 207 510 q 219 501 208 506 q 219 497 222 500 m 304 422 q 292 411 303 414 q 279 415 285 410 q 274 426 274 421 q 278 435 274 429 q 290 424 281 429 q 304 422 296 426 m 71 647 q 67 639 74 642 q 60 642 64 639 q 63 650 57 649 q 71 647 69 653 m 46 661 q 42 654 47 657 q 36 658 38 654 q 39 665 35 664 q 46 661 44 665 m 249 428 q 229 413 243 417 q 199 424 208 408 q 196 456 189 444 q 228 469 206 472 q 247 454 240 465 q 249 428 253 443 m 349 301 q 342 296 346 296 q 333 300 335 294 q 328 313 331 306 q 314 329 325 319 q 290 326 294 325 q 285 335 286 328 q 279 344 283 343 q 263 340 271 346 q 257 313 256 335 q 277 293 260 301 q 299 279 294 285 q 300 261 301 269 q 296 256 300 257 q 257 272 274 253 q 239 311 249 285 q 233 336 238 319 q 236 357 232 353 q 257 367 242 367 q 282 367 269 367 q 299 364 290 363 q 319 400 318 372 q 326 406 321 404 q 332 383 332 404 q 333 349 332 354 q 344 328 338 338 q 349 301 351 310 m 532 989 q 519 1000 528 997 q 497 995 507 1004 q 490 972 486 986 q 507 958 496 960 q 529 965 521 956 q 532 989 538 975 m 588 515 q 558 526 578 532 q 544 511 546 522 q 549 508 546 508 q 571 504 568 510 q 579 486 574 499 q 586 489 583 485 q 588 515 596 501 m 322 772 q 319 774 322 774 q 303 767 300 767 q 294 769 300 765 q 286 774 289 774 q 286 763 286 771 q 304 751 292 751 q 318 757 313 753 q 322 772 324 767 m 422 592 q 419 611 422 596 q 393 632 408 631 q 361 626 378 639 q 347 586 340 611 q 376 560 353 565 q 409 567 397 558 q 422 592 421 576 m 544 408 q 526 431 539 424 q 489 456 507 453 q 479 457 483 457 q 456 450 468 457 q 433 438 436 439 q 425 397 425 431 q 440 361 426 383 q 476 344 451 354 q 518 349 513 344 q 544 408 543 365 m 290 617 q 283 621 288 622 q 274 606 282 615 q 258 603 268 601 q 251 606 256 603 q 243 610 246 610 q 240 603 242 608 q 258 586 243 590 q 283 591 272 582 q 290 617 293 600 m 89 688 q 88 696 90 692 q 65 704 81 708 q 54 688 53 697 q 60 678 54 682 q 69 693 61 683 q 86 686 74 694 q 89 688 88 685 m 243 451 q 221 465 235 465 q 201 454 208 464 q 200 433 194 444 q 214 421 203 425 q 238 428 229 417 q 243 451 247 439 m 515 979 q 513 972 515 978 q 504 969 510 967 q 501 979 500 972 q 508 983 504 983 q 515 979 514 983 m 408 610 q 406 578 418 594 q 389 571 396 569 l 389 572 q 403 601 406 585 q 390 619 400 613 q 397 621 393 621 q 408 610 407 615 m 381 599 q 372 592 376 593 q 362 594 367 589 q 358 606 357 599 q 368 615 363 614 q 381 608 376 615 q 381 599 382 601 m 374 579 q 371 575 374 576 q 365 578 371 575 q 368 583 364 582 q 374 579 372 585 m 235 450 q 231 443 235 447 q 222 442 226 439 q 219 451 218 446 q 226 457 222 456 q 235 450 233 456 z "},"7":{"ha":658,"x_min":-40,"x_max":657,"o":"m 650 549 q 600 446 657 492 q 535 422 579 436 q 518 374 519 407 q 513 319 515 328 q 497 161 503 201 q 469 -4 486 58 q 428 -28 457 -25 q 381 -32 381 -31 q 308 -37 349 -28 q 240 -54 275 -46 q 179 -75 211 -58 q 156 -69 171 -76 q 122 -55 140 -74 q 96 -33 104 -36 q 72 2 85 -17 q 60 39 60 21 q 63 54 60 47 q 68 93 64 67 q 147 358 99 188 q 176 463 147 358 q 118 478 156 481 q 108 470 115 476 q 96 464 101 464 q 89 467 93 464 q 78 482 81 468 q 115 583 92 515 q 142 617 128 600 q 175 635 157 635 q 213 638 193 636 q 238 654 232 639 q 274 775 246 696 q 235 789 260 785 q 193 797 200 794 q 151 783 171 801 q 113 750 131 765 q 110 711 106 731 l 121 696 q 94 674 108 693 q 75 678 88 667 l -14 765 q -24 804 -24 779 q -22 847 -22 849 q -14 888 -15 864 q -14 931 -12 903 q -15 973 -15 964 q -19 1001 -15 982 q -17 1090 -40 1044 l 3 1107 q 176 1101 128 1110 q 219 1100 194 1104 q 261 1093 261 1093 l 471 1094 q 520 1104 486 1101 q 568 1111 554 1107 q 610 1099 599 1113 l 624 1069 l 622 850 q 561 635 599 781 q 572 629 567 629 q 588 638 578 629 q 601 647 597 646 q 642 644 625 656 q 651 614 649 632 q 651 582 653 603 q 650 549 650 556 m 600 586 q 593 590 599 592 q 564 581 585 581 q 532 578 539 582 q 510 588 524 578 l 510 660 l 507 665 q 508 690 503 682 q 534 782 513 721 q 558 879 556 843 q 560 1038 557 933 q 535 1040 550 1043 q 510 1036 515 1036 q 282 1028 400 1025 q 129 1042 207 1042 q 92 1054 121 1043 q 53 1064 69 1064 q 29 1029 28 1053 q 37 997 29 1019 q 43 961 44 975 q 33 824 35 900 q 65 808 50 808 q 111 833 82 808 q 156 861 140 858 q 285 840 219 867 q 340 781 331 810 q 288 615 325 725 q 204 594 267 583 q 140 538 165 582 q 146 528 132 528 q 175 535 156 535 q 206 533 206 533 q 235 521 233 521 q 253 496 250 510 q 219 381 238 457 q 189 257 199 290 q 158 161 189 257 q 136 89 136 108 q 144 60 136 74 q 181 28 167 28 q 317 54 228 29 q 399 83 354 57 q 431 189 403 94 q 439 240 432 207 q 467 432 447 310 q 465 440 465 436 q 489 478 465 446 q 536 498 503 489 q 583 521 569 507 q 600 586 601 563 m 460 813 q 450 796 465 800 q 440 803 447 796 q 446 821 439 818 q 460 813 453 824 m 246 907 q 238 894 250 894 q 221 904 222 894 q 232 917 222 911 q 246 907 240 918 m 213 921 q 203 907 210 910 q 190 918 192 908 q 197 929 189 926 q 213 921 211 933 m 96 1022 q 86 1001 99 1004 q 63 1017 67 997 q 76 1033 64 1028 q 96 1022 94 1031 m 506 967 q 513 929 513 950 q 507 886 513 913 q 499 843 500 854 q 494 815 497 840 q 479 796 493 799 q 460 838 478 811 q 440 842 451 847 q 419 817 432 839 q 428 793 417 804 q 446 774 446 774 q 464 665 471 721 q 451 638 463 657 q 444 604 440 618 q 424 579 439 593 q 372 628 404 581 q 383 707 371 649 q 378 807 397 768 q 288 889 342 879 q 240 944 275 910 q 211 954 226 954 q 174 946 196 954 q 138 932 142 933 q 111 908 118 922 q 113 893 111 906 q 113 876 114 882 q 101 864 110 867 q 75 869 81 861 q 72 908 65 882 q 106 945 78 924 q 136 986 133 967 q 160 994 146 994 q 186 990 165 994 q 214 989 203 988 q 296 982 242 988 q 368 979 297 982 q 440 982 410 978 q 506 967 463 978 m 546 546 q 531 529 544 536 q 518 539 521 532 q 528 556 517 554 q 546 546 543 558 m 500 533 q 488 515 504 517 q 474 526 475 517 q 483 543 471 542 q 500 533 496 546 m 446 510 q 417 498 435 501 q 383 490 400 494 q 358 494 375 494 q 337 417 340 474 q 315 340 333 361 q 275 336 310 335 q 256 394 247 356 q 275 463 263 417 q 285 492 278 472 q 278 526 288 506 q 251 539 275 531 q 238 560 236 544 q 275 571 246 571 q 310 590 304 571 q 325 600 315 600 q 343 586 338 600 q 340 556 339 558 q 369 535 347 538 q 411 532 390 533 q 436 535 417 539 q 446 510 444 533 m 392 453 q 376 342 389 414 q 358 339 374 335 q 354 353 354 346 q 358 374 354 360 q 361 397 363 389 q 368 442 363 413 q 376 458 367 456 q 392 453 389 458 m 424 385 l 410 306 q 407 261 408 301 q 393 222 406 228 q 381 232 385 221 q 401 386 389 288 q 413 394 404 394 q 424 385 421 393 m 421 947 q 399 963 417 963 q 381 950 385 963 q 385 926 375 938 q 396 922 385 926 q 407 924 403 919 q 421 947 425 931 m 447 919 q 435 905 440 917 q 422 890 429 893 q 382 889 404 881 q 356 919 381 890 q 351 906 354 915 q 389 864 363 868 q 401 861 394 861 q 439 882 417 861 q 447 919 451 910 m 447 679 q 425 696 443 699 q 411 669 408 694 q 431 658 414 663 q 447 679 443 661 m 314 414 q 297 425 313 425 q 288 420 290 426 q 286 406 286 414 q 301 397 286 404 q 314 414 311 399 m 313 374 q 288 364 307 363 q 274 383 276 372 q 268 378 267 382 q 281 353 269 360 q 309 356 306 350 q 315 365 313 361 q 313 374 318 371 z "},"8":{"ha":843,"x_min":-26,"x_max":842,"o":"m 833 393 q 842 264 842 293 q 829 168 842 208 q 703 46 789 83 q 528 10 639 17 q 340 1 433 6 q 269 0 342 0 q 201 10 226 0 q 14 151 78 29 q -26 350 -26 229 q -6 553 -26 435 q 36 638 32 631 q 108 700 65 685 q 158 739 126 711 q 106 897 106 835 q 110 938 106 918 q 153 1036 113 990 q 247 1096 194 1082 q 376 1111 313 1111 q 546 1067 482 1111 q 644 868 647 993 q 611 731 642 785 q 693 653 639 706 q 833 393 799 539 m 289 919 q 269 932 283 936 q 258 911 256 925 q 278 900 268 897 q 289 919 288 904 m 718 231 q 738 333 738 275 q 704 500 738 414 q 525 703 604 654 l 525 708 q 557 767 535 728 q 569 853 569 810 q 515 993 569 944 q 490 1018 503 996 q 464 1032 478 1036 q 452 1050 457 1036 q 436 1065 447 1064 q 429 1058 429 1063 q 435 1047 429 1057 q 439 1032 440 1038 q 419 1028 432 1026 q 399 1031 399 1031 q 391 1017 393 1028 q 385 1004 389 1007 q 359 990 379 994 q 339 971 339 986 l 371 969 q 408 961 400 978 q 406 943 413 953 q 389 933 399 933 q 374 947 383 933 q 356 957 365 960 q 347 950 347 954 q 350 941 347 947 q 353 932 353 935 q 350 926 353 929 q 335 935 339 922 q 325 956 328 953 q 318 982 324 965 q 285 960 289 979 q 296 924 276 940 q 285 893 303 907 q 261 896 272 890 q 250 914 250 901 q 267 940 250 928 q 288 989 264 974 q 371 1013 315 996 q 378 1050 383 1025 q 356 1071 371 1058 q 336 1074 358 1071 q 318 1068 324 1075 q 335 1056 319 1057 q 357 1046 351 1054 q 351 1031 365 1033 q 275 1015 278 1015 q 208 979 233 1003 q 188 864 178 950 q 214 785 192 829 q 256 710 235 747 l 247 699 q 68 465 121 671 q 61 356 61 406 q 82 203 61 265 q 165 110 110 144 q 286 75 221 76 q 589 96 481 71 q 670 145 633 106 q 718 231 707 185 m 549 839 q 546 789 547 814 q 525 747 542 760 q 508 757 515 744 q 517 775 508 764 q 526 790 525 786 q 536 849 538 831 q 519 853 529 860 q 507 847 513 846 q 504 858 504 853 q 510 882 504 867 q 515 904 515 897 q 509 922 515 915 q 497 929 503 929 q 469 919 489 911 q 478 957 463 944 q 467 981 481 968 q 449 976 458 979 q 436 986 439 975 q 443 1002 433 993 q 449 1019 453 1011 l 451 1022 q 549 839 556 932 m 490 833 q 491 825 490 833 q 493 804 493 818 q 444 707 493 728 q 371 704 426 699 q 306 750 329 715 q 293 797 293 769 q 315 863 293 836 q 400 899 350 899 q 444 889 424 899 q 471 863 465 869 q 490 833 486 847 m 697 449 q 650 342 699 410 q 635 338 643 338 q 619 342 628 338 q 610 413 594 372 q 631 451 626 444 q 667 475 646 472 q 697 449 678 476 m 307 682 q 303 674 308 676 q 293 669 299 671 q 280 675 288 669 q 269 682 272 681 q 288 689 275 689 q 307 682 300 689 m 269 658 q 249 654 257 650 q 240 660 247 657 q 233 668 233 663 q 246 672 239 672 q 269 658 260 672 m 583 424 q 489 306 565 346 q 411 297 447 297 q 243 374 297 297 q 214 479 214 415 q 293 638 214 594 q 375 657 331 657 q 542 593 460 657 q 583 424 592 549 m 238 642 q 210 633 221 626 q 214 653 204 646 q 238 642 224 651 m 192 585 q 181 571 199 575 q 158 585 163 569 q 158 594 157 592 q 167 599 161 600 q 179 583 167 592 q 192 585 189 586 m 197 522 q 188 501 204 511 q 167 513 174 497 l 168 522 q 197 522 178 508 m 142 525 q 132 511 147 514 q 108 524 113 507 q 111 539 108 529 q 124 528 113 538 q 138 525 131 522 l 142 525 m 190 454 l 189 450 l 113 432 q 106 438 107 432 q 107 446 103 442 q 188 460 158 460 l 190 454 m 192 411 q 97 371 160 397 q 88 378 88 375 l 90 385 l 181 422 q 192 415 186 422 l 192 411 m 219 339 q 178 294 210 322 q 168 297 171 286 l 168 303 l 210 344 q 219 339 218 343 m 199 367 q 93 296 164 340 q 85 300 88 296 l 88 307 l 192 381 q 199 375 197 381 q 199 367 200 371 m 431 769 q 427 794 429 782 q 417 814 425 807 q 388 824 404 824 q 347 803 361 824 q 357 760 340 779 q 414 744 374 742 q 431 769 422 746 m 671 417 q 649 435 663 432 q 640 421 631 433 q 667 403 657 401 q 671 417 676 411 m 525 549 q 506 558 517 558 q 494 533 492 556 q 515 524 497 521 q 525 549 532 532 m 653 385 q 629 400 639 400 q 626 382 629 399 q 646 372 632 369 q 653 385 647 376 m 468 501 q 451 540 468 519 q 403 569 442 569 q 361 564 390 569 q 338 482 331 547 q 397 436 349 446 q 468 501 468 458 z "},"9":{"ha":846,"x_min":-42,"x_max":839,"o":"m 818 549 q 751 229 796 458 q 738 150 744 189 q 696 81 725 106 q 400 -1 596 -1 q 149 33 226 -1 q 74 71 93 60 q 15 132 33 96 q -15 193 -1 151 q -42 257 -32 242 q -14 307 -39 279 q 25 350 21 344 q 29 379 35 363 q 14 386 19 389 q 8 374 11 385 q -4 367 4 363 q -7 394 -11 372 q 63 415 8 422 q 143 407 103 411 q 217 375 190 400 l 299 300 q 356 313 333 288 q 358 332 356 313 q 356 350 360 343 l 326 364 q 251 381 293 364 q 183 410 218 394 q 74 528 132 446 q -11 810 -11 647 q -7 885 -11 846 q 61 1006 -6 951 q 185 1078 97 1035 q 310 1111 274 1111 l 500 1110 q 606 1083 535 1099 q 717 1037 665 1075 q 796 943 769 999 q 839 722 839 851 q 818 549 839 632 m 108 971 q 92 981 101 983 q 85 967 82 975 q 97 957 88 957 q 108 971 107 958 m 81 933 q 54 946 74 956 q 44 924 42 936 q 68 913 51 910 q 81 933 79 917 m 740 617 q 751 750 751 713 q 721 886 751 836 q 626 986 700 954 q 443 1018 574 1021 q 276 1004 360 1011 q 139 925 182 989 q 111 871 121 907 q 92 814 96 821 q 168 536 82 626 q 276 447 203 474 q 417 421 324 429 q 467 401 442 411 q 508 367 493 388 q 521 267 536 324 q 444 197 514 228 q 414 193 431 193 q 339 204 424 193 q 192 325 224 242 q 146 363 183 358 q 81 364 114 364 l 78 361 q 53 306 78 335 q 10 257 10 257 l 10 249 q 32 207 15 233 q 107 146 58 171 q 192 108 149 126 q 406 85 322 85 q 478 89 443 85 q 574 107 525 99 q 644 167 626 124 q 740 617 676 317 m 57 867 q 31 881 54 892 q 21 857 18 872 q 44 846 28 843 q 57 867 56 850 m 51 807 q 36 817 44 819 q 28 803 25 811 q 43 794 31 792 q 51 807 53 797 m 461 367 l 456 372 q 388 360 432 374 q 393 344 381 346 l 457 358 l 461 367 m 481 293 q 476 306 482 303 l 393 325 l 385 321 q 390 306 381 315 q 453 290 411 303 q 481 293 475 286 m 415 233 q 382 289 414 235 q 364 286 371 299 q 378 259 368 274 q 399 231 389 244 q 415 233 411 225 m 708 622 q 706 567 719 579 q 685 558 693 556 q 675 579 675 567 q 681 604 675 588 q 686 629 686 621 q 689 682 689 654 q 686 735 689 710 q 679 739 682 739 q 672 731 676 739 q 663 724 667 724 q 639 726 653 719 q 643 779 635 733 q 644 831 642 785 q 633 879 647 864 q 606 894 610 894 q 599 891 601 894 q 596 882 596 888 q 606 850 596 871 q 617 819 617 829 q 599 793 617 804 q 583 797 590 788 q 565 878 575 838 q 521 944 553 924 q 504 936 510 946 q 507 921 503 932 q 504 907 510 913 q 486 901 499 901 q 477 935 475 911 q 475 968 479 960 q 451 990 465 974 q 488 997 457 1001 q 676 881 638 992 q 711 724 711 826 q 708 622 711 724 m 657 668 q 644 646 661 653 q 628 651 635 646 q 626 674 617 664 q 643 681 632 682 q 657 668 654 679 m 618 626 q 608 608 621 610 q 593 618 600 607 q 601 633 590 629 q 618 626 615 636 m 308 928 q 301 899 308 917 q 294 935 294 904 q 303 936 297 940 q 308 928 307 933 m 603 571 q 593 556 603 556 q 578 563 581 553 q 586 581 574 579 q 603 571 596 583 m 569 732 q 472 543 557 601 q 421 532 449 532 q 315 583 360 532 q 276 693 269 633 q 371 885 268 815 q 482 872 428 900 q 569 732 568 828 m 281 922 q 269 856 292 875 q 256 847 268 856 q 238 838 244 838 q 225 843 231 838 q 233 853 222 851 q 249 860 243 854 q 240 879 250 865 q 211 878 235 888 q 190 876 201 860 q 174 915 179 896 q 186 917 176 922 q 192 904 188 915 q 206 893 196 893 q 240 901 224 907 q 253 890 247 901 q 264 879 260 879 q 272 885 267 879 q 267 935 267 901 q 281 922 272 936 m 419 936 q 396 931 408 925 q 381 943 390 932 q 365 954 372 954 q 357 951 361 954 q 329 903 335 940 q 310 849 324 861 q 268 813 306 843 q 219 704 258 743 q 225 699 219 704 q 242 704 225 699 q 254 699 251 707 q 239 688 239 693 l 239 681 q 226 685 233 679 q 215 692 218 692 q 197 690 201 692 q 185 681 189 689 q 190 672 183 678 q 238 657 207 671 q 265 651 261 660 q 257 648 264 647 q 249 643 250 649 q 249 626 251 638 q 238 637 242 626 q 228 649 233 647 q 211 626 226 638 q 210 631 210 628 q 213 638 210 633 q 215 646 215 643 q 210 655 215 650 q 181 664 206 660 q 175 651 172 656 q 197 604 192 642 q 231 583 211 601 q 224 552 236 565 q 192 544 211 539 q 174 572 172 557 q 181 591 174 579 q 188 610 188 603 q 185 619 188 614 q 163 640 172 643 q 146 631 151 629 q 144 636 144 633 q 153 644 144 640 q 164 654 163 649 q 157 706 160 671 q 146 721 154 711 q 124 710 131 724 q 122 701 124 708 q 115 696 121 694 q 117 719 110 701 q 144 732 124 729 q 163 839 139 790 q 157 860 163 846 q 151 882 151 875 q 156 896 151 889 q 168 883 161 896 q 174 858 168 875 q 181 833 181 842 q 171 813 181 821 q 161 754 161 776 q 181 704 161 721 q 222 736 206 710 q 244 785 226 742 q 251 818 251 810 q 278 838 257 826 q 303 864 299 850 q 325 958 326 900 q 336 979 328 969 q 347 972 344 981 q 350 961 346 968 q 376 968 363 968 q 392 967 385 968 q 419 936 419 946 m 615 456 q 596 417 610 428 q 579 406 588 411 q 571 393 571 401 q 574 383 571 389 q 581 362 572 376 q 590 342 590 347 q 575 328 590 333 q 556 344 557 326 q 560 403 567 360 q 535 413 549 407 q 519 431 522 419 l 511 454 l 339 494 q 322 492 329 488 q 315 515 304 503 q 338 521 329 528 l 351 507 l 513 467 q 521 488 518 472 q 499 499 517 496 q 481 513 481 503 q 485 524 481 517 q 513 519 500 542 q 528 496 511 507 q 578 504 567 508 q 615 456 614 492 m 239 229 q 199 218 218 242 q 197 233 189 219 q 210 246 201 242 q 239 233 232 244 l 239 229 m 179 268 q 169 221 179 251 q 106 211 132 211 q 57 222 76 211 q 53 258 50 229 q 136 333 82 325 q 179 268 165 325 m 139 193 q 128 161 126 182 q 115 171 122 160 q 128 196 113 192 q 139 193 132 197 m 503 819 q 496 828 501 826 q 486 822 489 829 l 464 756 q 467 731 460 733 q 476 733 468 729 q 503 819 486 761 m 446 853 q 439 860 444 858 q 429 856 432 861 l 421 796 q 418 769 421 797 q 425 744 417 753 q 435 750 425 743 l 446 853 m 539 739 q 532 747 538 744 q 522 744 525 749 q 499 721 519 740 q 488 693 485 707 l 500 693 q 539 739 517 707 m 390 746 q 385 785 392 761 q 378 825 378 814 q 363 842 381 842 q 356 831 354 842 l 374 744 q 390 746 383 739 m 357 719 q 342 750 356 732 q 324 774 328 768 q 314 776 319 779 q 310 767 308 772 l 343 714 q 357 719 349 710 m 454 638 q 449 685 460 657 q 418 708 438 708 q 360 665 383 708 q 357 651 357 658 q 378 603 357 639 q 426 594 390 594 q 454 638 442 603 m 599 474 q 563 496 586 494 q 533 481 543 494 q 525 444 519 463 q 549 418 528 431 q 594 428 578 413 q 599 474 610 444 m 221 578 q 194 593 217 600 q 185 564 178 585 q 210 554 190 551 q 221 578 224 560 m 163 254 q 163 269 167 261 q 158 285 158 281 q 132 310 154 297 q 114 304 114 313 l 158 256 l 163 254 m 151 238 q 97 293 135 257 l 90 286 l 133 228 l 143 228 q 151 238 154 232 m 108 228 q 78 269 104 240 q 69 254 67 264 q 83 238 71 253 q 100 225 92 225 q 108 228 103 225 m 592 454 q 581 432 594 440 q 558 447 561 426 q 572 465 558 461 q 592 454 588 464 m 572 481 q 546 461 561 478 l 547 438 q 536 447 542 436 q 544 478 531 464 q 572 481 557 492 z "}," ":{"ha":694,"x_min":0,"x_max":0,"o":""},"!":{"ha":560,"x_min":14,"x_max":393,"o":"m 392 965 q 383 826 393 917 q 354 718 379 804 q 333 606 336 653 q 313 458 332 554 q 282 351 300 424 q 274 310 276 339 q 251 175 254 242 q 251 126 251 151 q 231 85 249 97 q 197 83 214 85 q 167 99 176 85 q 115 182 136 128 q 83 276 99 229 q 43 422 68 324 q 28 490 40 446 q 19 533 26 500 q 17 578 14 560 l 14 665 l 15 888 l 22 975 q 44 1057 26 1003 q 107 1131 53 1088 q 186 1165 136 1153 q 271 1183 228 1174 q 314 1151 290 1190 q 360 1072 350 1110 q 368 1043 363 1063 q 392 965 378 1018 m 289 -24 q 254 -129 299 -97 q 231 -131 242 -131 q 160 -90 182 -131 q 151 -53 151 -75 q 165 3 151 -21 q 226 32 192 32 q 249 28 238 32 q 289 -24 276 10 m 333 922 q 321 997 335 957 q 293 1064 307 1031 l 267 1090 q 233 1104 254 1104 q 181 1089 217 1104 q 88 1010 132 1057 q 64 785 65 953 l 64 642 l 65 622 q 76 510 65 593 q 135 281 113 358 q 179 174 147 244 q 200 151 189 158 q 203 190 200 165 q 207 233 201 207 q 213 276 211 265 q 231 369 217 308 q 276 544 251 425 q 303 733 282 632 q 338 883 338 851 q 333 922 338 903 m 233 -1 q 228 4 231 1 q 222 -4 221 3 q 229 -10 224 -10 q 233 -1 235 -7 m 211 -1 q 204 4 208 6 q 200 -6 199 3 q 207 -10 204 -11 q 211 -1 210 -8 m 186 -18 q 178 -12 183 -10 q 175 -22 174 -14 q 182 -26 179 -26 q 186 -18 186 -25 m 243 -46 q 226 -31 240 -40 q 189 -46 206 -24 q 194 -81 186 -69 q 236 -94 210 -100 q 243 -46 249 -85 m 274 1043 q 268 1043 274 1043 q 271 1051 261 1049 q 274 1043 275 1051 m 244 1071 q 242 1065 244 1071 q 236 1068 242 1065 q 238 1075 235 1072 q 244 1071 244 1075 m 206 1065 q 201 1060 204 1063 q 200 1069 194 1060 q 206 1065 204 1071 m 313 913 q 313 878 313 896 q 301 850 311 858 q 283 860 294 847 q 282 868 282 864 q 290 887 282 875 q 299 908 299 899 q 303 921 299 918 q 313 913 310 924 m 229 831 q 221 828 226 818 q 224 835 221 832 q 229 831 228 836 m 119 886 q 104 876 115 879 q 92 894 93 879 q 90 921 92 908 q 92 944 88 938 q 106 967 97 951 q 106 982 107 969 q 108 993 106 993 q 115 989 111 993 q 101 940 122 957 q 100 919 97 931 q 119 906 108 918 q 119 886 121 903 m 292 776 q 282 753 294 763 q 261 755 272 746 q 254 781 250 764 q 260 801 264 790 q 236 871 253 825 q 208 861 226 869 l 201 683 q 214 654 207 675 q 197 608 218 628 q 160 612 176 597 q 144 647 144 626 q 165 685 146 674 l 171 693 l 179 869 q 169 876 176 869 q 160 883 163 883 q 154 876 157 883 q 124 804 144 851 q 128 788 124 801 q 129 772 132 779 q 113 758 125 761 q 94 775 104 757 q 103 800 90 790 q 117 808 108 800 l 150 892 q 139 915 146 900 q 144 1003 119 963 q 210 1044 169 1044 q 275 996 251 1044 q 272 907 299 947 q 249 879 264 890 l 249 876 q 260 838 253 864 q 271 800 267 813 q 292 776 281 796 m 231 771 q 226 763 231 763 q 225 772 217 765 q 231 771 226 772 m 271 700 q 261 676 272 683 q 251 674 257 674 q 244 675 247 674 q 239 679 242 676 l 239 682 q 258 688 253 682 q 264 707 264 694 q 271 700 264 707 m 246 707 q 243 700 246 700 q 236 704 240 700 q 240 710 236 708 q 246 707 243 711 m 129 696 q 108 690 118 686 q 99 703 108 690 q 103 725 96 717 q 111 707 104 718 q 120 701 113 701 q 129 696 128 701 m 260 522 q 251 519 257 510 q 254 526 249 525 q 260 522 260 528 m 226 517 q 224 508 228 510 q 221 518 213 511 q 226 517 224 518 m 188 549 q 183 540 188 542 q 182 550 174 544 q 188 549 183 551 m 160 579 q 157 574 161 575 q 153 576 156 574 q 160 579 153 586 m 110 618 q 104 619 107 618 q 107 628 103 628 q 110 618 117 625 m 226 476 q 224 469 228 469 q 221 478 214 472 q 226 476 224 479 m 129 585 q 121 582 126 572 q 124 589 118 588 q 129 585 129 590 m 194 501 q 189 500 194 500 q 190 508 181 506 q 194 501 194 508 m 150 540 q 147 533 151 533 q 144 542 136 536 q 150 540 147 543 m 169 490 q 161 488 167 479 q 164 494 158 493 q 169 490 169 496 m 136 497 q 133 489 138 489 q 131 499 124 492 q 136 497 133 499 m 218 -43 q 213 -49 217 -46 q 208 -44 213 -49 q 213 -40 208 -40 q 218 -43 217 -40 m 224 -69 q 218 -67 219 -71 q 221 -61 217 -62 q 224 -69 231 -64 m 207 -61 l 201 -67 l 197 -61 q 201 -57 199 -57 q 207 -61 206 -57 m 278 778 q 269 786 275 788 q 265 778 268 783 q 272 771 265 771 q 278 778 276 772 m 258 996 q 199 1026 233 1033 q 147 971 156 1018 q 171 896 140 925 q 189 882 179 893 q 185 783 189 849 q 182 683 182 717 q 167 668 175 681 q 171 643 164 651 q 185 639 185 638 q 199 649 190 640 q 193 674 203 665 q 201 878 196 742 l 204 882 q 257 911 236 881 q 258 996 283 950 m 108 903 q 101 908 106 910 q 99 899 97 906 q 104 893 100 897 q 108 903 110 894 m 118 789 q 110 793 114 794 q 106 783 106 789 q 113 778 113 778 q 118 789 119 781 m 254 931 l 253 931 q 211 983 249 974 q 160 965 182 992 q 163 979 160 965 q 201 1013 174 1006 q 249 988 233 1014 q 254 931 265 963 m 225 944 q 222 914 226 921 q 203 900 215 903 q 174 919 182 899 q 172 932 172 926 q 174 944 172 939 q 196 964 182 960 q 225 944 214 965 m 215 942 q 197 954 207 954 q 181 942 183 950 q 182 919 178 926 q 199 908 189 908 q 213 917 204 910 q 215 942 222 931 m 206 931 q 201 915 207 925 q 189 925 192 911 q 194 938 189 929 q 206 931 203 939 z "},"\"":{"ha":832,"x_min":47,"x_max":686,"o":"m 433 1085 q 424 1031 422 1039 q 429 994 424 1019 q 435 954 435 968 q 433 939 435 946 q 431 822 428 913 q 438 767 438 774 q 438 747 440 761 q 436 689 436 753 q 433 672 436 683 q 429 654 429 660 q 438 636 429 643 q 485 629 476 625 q 529 656 510 636 q 567 693 549 675 q 597 738 575 704 q 626 792 604 749 q 647 867 644 838 l 658 899 l 681 982 l 686 1015 q 679 1050 686 1026 q 644 1090 678 1064 q 597 1117 626 1104 q 539 1142 567 1131 q 504 1139 525 1149 q 465 1118 476 1129 q 457 1108 463 1114 q 433 1085 447 1101 m 467 1057 q 510 1101 469 1068 l 531 1107 q 590 1089 550 1111 q 644 1042 619 1068 q 636 953 653 1015 l 622 899 l 618 893 q 601 840 614 875 q 531 706 564 744 q 486 667 517 692 q 468 660 476 661 q 471 678 469 665 q 476 719 472 692 q 475 765 478 735 q 469 836 475 775 q 467 904 464 890 q 468 981 471 938 q 458 1029 458 1024 q 467 1057 458 1046 m 550 1092 m 575 1085 m 481 1048 q 480 1045 481 1048 q 478 1036 479 1043 q 482 1024 475 1029 q 494 1024 486 1021 q 497 1028 497 1025 q 493 1035 497 1029 q 490 1045 489 1042 q 488 1050 490 1049 q 481 1048 483 1053 m 576 936 m 610 1001 q 619 994 611 999 q 629 999 626 994 q 635 1009 632 1004 q 635 1018 638 1014 q 628 1029 632 1021 q 629 1036 628 1029 q 624 1039 626 1038 q 628 1018 615 1028 q 626 1010 629 1014 q 611 1008 621 1011 q 610 1001 610 1008 m 481 994 q 484 984 476 989 q 500 981 492 979 q 506 989 507 982 q 506 997 501 994 q 528 1018 513 1004 q 543 1008 533 1015 q 529 940 539 993 q 514 922 522 935 q 508 874 511 913 q 511 824 507 832 q 535 814 522 810 q 551 851 540 815 q 563 897 561 888 q 553 929 565 915 l 558 964 l 567 1007 q 585 1004 575 1010 q 599 971 589 993 q 594 967 599 971 q 592 961 590 964 q 601 953 593 956 q 615 954 606 950 q 611 965 619 960 q 603 972 608 967 l 589 1010 q 600 1017 593 1011 q 606 1050 618 1029 q 554 1081 589 1075 q 515 1072 532 1083 q 508 1039 494 1060 q 521 1025 511 1031 l 521 1022 q 509 1011 517 1019 q 497 999 501 1003 q 481 994 490 1000 m 522 979 m 506 949 m 486 961 m 504 960 m 604 938 m 583 932 m 481 890 m 497 885 m 529 885 m 551 856 m 592 899 m 496 813 m 571 890 m 522 815 m 556 878 m 533 808 m 563 804 m 490 992 q 496 993 493 994 q 499 990 497 992 q 493 988 497 988 q 490 992 490 989 m 526 1069 q 571 1069 547 1079 q 599 1039 599 1058 q 575 1015 599 1019 q 561 1014 569 1015 q 546 932 554 975 q 550 918 547 928 q 553 912 551 917 q 554 900 554 907 q 547 854 554 881 q 526 825 539 821 q 514 860 514 831 q 522 917 514 894 q 535 931 526 929 q 553 1014 539 957 l 551 1017 q 518 1038 529 1022 q 526 1069 506 1057 m 619 1006 q 624 1006 622 1007 q 625 1001 626 1004 q 621 1001 625 1001 q 619 1006 617 1003 m 600 965 q 607 965 603 967 q 608 960 608 963 q 603 960 603 960 q 600 965 599 961 m 522 1044 l 524 1044 q 557 1056 531 1060 q 590 1039 578 1053 q 590 1044 590 1039 q 567 1065 586 1057 q 532 1065 546 1072 q 522 1044 518 1058 m 544 1044 q 543 1032 540 1036 q 554 1022 546 1026 q 576 1025 568 1018 q 579 1035 579 1029 q 567 1046 575 1040 q 544 1044 554 1049 m 550 1042 q 564 1042 557 1044 q 574 1033 572 1038 q 569 1025 575 1028 q 558 1025 564 1024 q 549 1032 554 1026 q 550 1042 544 1039 m 556 1035 q 557 1028 554 1033 q 567 1029 564 1025 q 564 1035 567 1032 q 556 1035 558 1038 m 58 1085 q 49 1031 47 1039 q 54 994 49 1019 q 60 954 60 968 q 58 939 60 946 q 56 822 53 913 q 63 767 63 774 q 63 747 65 761 q 61 689 61 753 q 58 672 61 683 q 54 654 54 660 q 63 636 54 643 q 110 629 101 625 q 154 656 135 636 q 192 693 174 675 q 222 738 200 704 q 251 792 229 749 q 272 867 269 838 l 283 899 l 306 982 l 311 1015 q 304 1050 311 1026 q 269 1090 303 1064 q 222 1117 251 1104 q 164 1142 192 1131 q 129 1139 150 1149 q 90 1118 101 1129 q 82 1108 88 1114 q 58 1085 72 1101 m 92 1057 q 135 1101 94 1068 l 156 1107 q 215 1089 175 1111 q 269 1042 244 1068 q 261 953 278 1015 l 247 899 l 243 893 q 226 840 239 875 q 156 706 189 744 q 111 667 142 692 q 93 660 101 661 q 96 678 94 665 q 101 719 97 692 q 100 765 103 735 q 94 836 100 775 q 92 904 89 890 q 93 981 96 938 q 83 1029 83 1024 q 92 1057 83 1046 m 175 1092 m 200 1085 m 106 1048 q 105 1045 106 1048 q 103 1036 104 1043 q 107 1024 100 1029 q 119 1024 111 1021 q 122 1028 122 1025 q 118 1035 122 1029 q 115 1045 114 1042 q 113 1050 115 1049 q 106 1048 108 1053 m 201 936 m 235 1001 q 244 994 236 999 q 254 999 251 994 q 260 1009 257 1004 q 260 1018 263 1014 q 253 1029 257 1021 q 254 1036 253 1029 q 249 1039 251 1038 q 253 1018 240 1028 q 251 1010 254 1014 q 236 1008 246 1011 q 235 1001 235 1008 m 106 994 q 109 984 101 989 q 125 981 117 979 q 131 989 132 982 q 131 997 126 994 q 153 1018 138 1004 q 168 1008 158 1015 q 154 940 164 993 q 139 922 147 935 q 133 874 136 913 q 136 824 132 832 q 160 814 147 810 q 176 851 165 815 q 188 897 186 888 q 178 929 190 915 l 183 964 l 192 1007 q 210 1004 200 1010 q 224 971 214 993 q 219 967 224 971 q 217 961 215 964 q 226 953 218 956 q 240 954 231 950 q 236 965 244 960 q 228 972 233 967 l 214 1010 q 225 1017 218 1011 q 231 1050 243 1029 q 179 1081 214 1075 q 140 1072 157 1083 q 133 1039 119 1060 q 146 1025 136 1031 l 146 1022 q 134 1011 142 1019 q 122 999 126 1003 q 106 994 115 1000 m 147 979 m 131 949 m 111 961 m 129 960 m 229 938 m 208 932 m 106 890 m 122 885 m 154 885 m 176 856 m 217 899 m 121 813 m 196 890 m 147 815 m 181 878 m 158 808 m 188 804 m 115 992 q 121 993 118 994 q 124 990 122 992 q 118 988 122 988 q 115 992 115 989 m 151 1069 q 196 1069 172 1079 q 224 1039 224 1058 q 200 1015 224 1019 q 186 1014 194 1015 q 171 932 179 975 q 175 918 172 928 q 178 912 176 917 q 179 900 179 907 q 172 854 179 881 q 151 825 164 821 q 139 860 139 831 q 147 917 139 894 q 160 931 151 929 q 178 1014 164 957 l 176 1017 q 143 1038 154 1022 q 151 1069 131 1057 m 244 1006 q 249 1006 247 1007 q 250 1001 251 1004 q 246 1001 250 1001 q 244 1006 242 1003 m 225 965 q 232 965 228 967 q 233 960 233 963 q 228 960 228 960 q 225 965 224 961 m 147 1044 l 149 1044 q 182 1056 156 1060 q 215 1039 203 1053 q 215 1044 215 1039 q 192 1065 211 1057 q 157 1065 171 1072 q 147 1044 143 1058 m 169 1044 q 168 1032 165 1036 q 179 1022 171 1026 q 201 1025 193 1018 q 204 1035 204 1029 q 192 1046 200 1040 q 169 1044 179 1049 m 175 1042 q 189 1042 182 1044 q 199 1033 197 1038 q 194 1025 200 1028 q 183 1025 189 1024 q 174 1032 179 1026 q 175 1042 169 1039 m 181 1035 q 182 1028 179 1033 q 192 1029 189 1025 q 189 1035 192 1032 q 181 1035 183 1038 z "},"&":{"ha":361,"x_min":47,"x_max":311,"o":"m 58 1085 q 49 1031 47 1039 q 54 994 49 1019 q 60 954 60 968 q 58 939 60 946 q 56 822 53 913 q 63 767 63 774 q 63 747 65 761 q 61 689 61 753 q 58 672 61 683 q 54 654 54 660 q 63 636 54 643 q 110 629 101 625 q 154 656 135 636 q 192 693 174 675 q 222 738 200 704 q 251 792 229 749 q 272 867 269 838 l 283 899 l 306 982 l 311 1015 q 304 1050 311 1026 q 269 1090 303 1064 q 222 1117 251 1104 q 164 1142 192 1131 q 129 1139 150 1149 q 90 1118 101 1129 q 82 1108 88 1114 q 58 1085 72 1101 m 92 1057 q 135 1101 94 1068 l 156 1107 q 215 1089 175 1111 q 269 1042 244 1068 q 261 953 278 1015 l 247 899 l 243 893 q 226 840 239 875 q 156 706 189 744 q 111 667 142 692 q 93 660 101 661 q 96 678 94 665 q 101 719 97 692 q 100 765 103 735 q 94 836 100 775 q 92 904 89 890 q 93 981 96 938 q 83 1029 83 1024 q 92 1057 83 1046 m 175 1092 m 200 1085 m 106 1048 q 105 1045 106 1048 q 103 1036 104 1043 q 107 1024 100 1029 q 119 1024 111 1021 q 122 1028 122 1025 q 118 1035 122 1029 q 115 1045 114 1042 q 113 1050 115 1049 q 106 1048 108 1053 m 201 936 m 235 1001 q 244 994 236 999 q 254 999 251 994 q 260 1009 257 1004 q 260 1018 263 1014 q 253 1029 257 1021 q 254 1036 253 1029 q 249 1039 251 1038 q 253 1018 240 1028 q 251 1010 254 1014 q 236 1008 246 1011 q 235 1001 235 1008 m 106 994 q 109 984 101 989 q 125 981 117 979 q 131 989 132 982 q 131 997 126 994 q 153 1018 138 1004 q 168 1008 158 1015 q 154 940 164 993 q 139 922 147 935 q 133 874 136 913 q 136 824 132 832 q 160 814 147 810 q 176 851 165 815 q 188 897 186 888 q 178 929 190 915 l 183 964 l 192 1007 q 210 1004 200 1010 q 224 971 214 993 q 219 967 224 971 q 217 961 215 964 q 226 953 218 956 q 240 954 231 950 q 236 965 244 960 q 228 972 233 967 l 214 1010 q 225 1017 218 1011 q 231 1050 243 1029 q 179 1081 214 1075 q 140 1072 157 1083 q 133 1039 119 1060 q 146 1025 136 1031 l 146 1022 q 134 1011 142 1019 q 122 999 126 1003 q 106 994 115 1000 m 147 979 m 131 949 m 111 961 m 129 960 m 229 938 m 208 932 m 106 890 m 122 885 m 154 885 m 176 856 m 217 899 m 121 813 m 196 890 m 147 815 m 181 878 m 158 808 m 188 804 m 115 992 q 121 993 118 994 q 124 990 122 992 q 118 988 122 988 q 115 992 115 989 m 151 1069 q 196 1069 172 1079 q 224 1039 224 1058 q 200 1015 224 1019 q 186 1014 194 1015 q 171 932 179 975 q 175 918 172 928 q 178 912 176 917 q 179 900 179 907 q 172 854 179 881 q 151 825 164 821 q 139 860 139 831 q 147 917 139 894 q 160 931 151 929 q 178 1014 164 957 l 176 1017 q 143 1038 154 1022 q 151 1069 131 1057 m 244 1006 q 249 1006 247 1007 q 250 1001 251 1004 q 246 1001 250 1001 q 244 1006 242 1003 m 225 965 q 232 965 228 967 q 233 960 233 963 q 228 960 228 960 q 225 965 224 961 m 147 1044 l 149 1044 q 182 1056 156 1060 q 215 1039 203 1053 q 215 1044 215 1039 q 192 1065 211 1057 q 157 1065 171 1072 q 147 1044 143 1058 m 169 1044 q 168 1032 165 1036 q 179 1022 171 1026 q 201 1025 193 1018 q 204 1035 204 1029 q 192 1046 200 1040 q 169 1044 179 1049 m 175 1042 q 189 1042 182 1044 q 199 1033 197 1038 q 194 1025 200 1028 q 183 1025 189 1024 q 174 1032 179 1026 q 175 1042 169 1039 m 181 1035 q 182 1028 179 1033 q 192 1029 189 1025 q 189 1035 192 1032 q 181 1035 183 1038 z "},"'":{"ha":560,"x_min":413,"x_max":590,"o":"m 413 524 q 417 469 413 504 q 440 382 428 442 q 450 324 442 361 q 464 281 456 310 q 469 263 467 276 q 478 218 471 249 q 478 193 478 206 q 489 175 479 181 q 517 183 500 174 q 543 214 533 192 q 558 251 550 232 q 576 308 565 269 q 585 336 579 318 q 588 351 585 340 q 589 371 590 363 l 590 404 l 590 493 l 588 528 q 576 560 585 539 q 547 589 572 572 q 512 603 533 599 q 469 611 490 607 q 447 597 461 613 q 428 567 433 581 q 424 554 428 563 q 413 524 415 544 m 440 514 q 460 563 439 525 l 471 572 q 513 571 483 581 q 556 544 535 560 q 567 468 567 525 l 567 418 l 567 413 q 561 374 567 401 q 533 296 544 322 q 503 251 526 276 q 503 263 503 256 q 500 280 503 269 q 497 294 497 290 q 488 324 496 304 q 467 385 479 344 q 456 450 464 415 q 439 501 439 490 q 440 514 439 508 m 468 556 q 471 556 468 556 q 469 558 475 557 q 468 556 468 558 m 482 565 q 483 563 482 565 q 486 564 485 563 q 485 567 486 565 q 482 565 482 567 m 500 563 q 501 561 501 563 q 503 564 506 561 q 500 563 501 565 m 450 511 q 456 490 449 503 q 464 493 458 489 q 462 502 467 497 q 457 510 457 507 q 454 514 457 513 q 450 511 451 515 m 489 483 q 493 482 490 479 q 492 485 493 483 q 489 483 490 485 m 540 503 q 549 499 543 500 q 554 514 550 499 q 554 522 557 519 q 547 529 551 524 q 547 536 547 529 q 543 538 544 536 q 549 521 540 526 q 550 514 551 517 q 540 508 546 513 q 540 503 540 507 m 460 465 q 464 457 458 460 q 474 457 469 454 q 478 467 479 460 q 475 472 474 469 q 486 497 478 481 q 499 493 490 496 l 501 433 q 496 422 500 429 q 504 407 494 414 q 521 408 513 404 q 529 421 529 411 q 519 433 529 429 l 517 436 l 513 496 q 519 500 514 496 q 525 499 522 503 q 539 474 529 490 q 536 463 538 461 q 544 458 539 460 q 553 464 549 458 q 550 471 554 469 q 543 475 546 472 l 526 504 q 532 513 528 507 q 528 544 542 528 q 492 556 515 560 q 468 539 476 553 q 469 508 457 524 q 479 500 474 503 l 481 499 q 469 472 478 490 q 460 465 465 471 m 489 463 q 490 460 489 460 q 492 463 494 461 q 489 463 489 463 m 469 439 q 475 431 469 433 q 482 431 479 428 q 485 432 483 431 l 485 432 q 472 442 474 432 q 469 439 472 442 m 482 442 q 483 439 482 439 q 486 440 483 439 q 482 442 485 442 m 536 438 q 546 435 542 433 q 551 439 546 435 q 549 447 551 444 q 544 442 549 444 q 536 438 540 440 m 475 378 q 479 376 476 375 q 478 379 481 379 q 475 378 475 379 m 490 376 q 492 374 490 374 q 493 376 497 374 q 490 376 490 376 m 508 386 q 511 385 508 385 q 511 388 515 385 q 508 386 510 388 m 522 397 q 524 394 522 396 q 525 396 524 396 q 522 397 524 399 m 546 411 q 549 411 549 411 q 547 414 549 414 q 546 411 542 413 m 490 363 q 492 360 490 360 q 493 363 497 361 q 490 363 490 363 m 536 399 q 540 399 538 394 q 539 400 542 400 q 536 399 536 401 m 506 371 q 508 369 506 369 q 507 374 513 372 q 506 371 506 372 m 526 385 q 528 382 526 382 q 529 385 533 382 q 526 385 526 385 m 518 367 q 521 365 518 363 q 519 368 522 368 q 518 367 518 368 m 533 369 q 535 367 533 367 q 536 369 539 367 q 533 369 533 369 m 467 465 q 471 468 468 468 q 472 465 471 468 q 469 463 472 463 q 467 465 467 464 m 475 539 q 504 550 488 553 q 528 531 524 547 q 517 506 531 515 q 508 501 513 504 q 510 467 508 489 q 511 433 511 444 q 518 428 514 432 q 515 419 521 422 q 510 417 510 417 q 504 421 507 418 q 507 429 501 426 q 503 500 504 453 l 501 501 q 475 512 486 500 q 475 539 464 524 m 546 507 q 549 510 547 510 q 551 506 551 508 q 549 504 550 506 q 546 507 546 506 m 542 469 q 546 471 543 471 q 547 467 547 469 q 544 465 544 465 q 542 469 542 465 m 478 517 l 478 517 q 497 535 481 532 q 522 529 511 538 q 521 533 522 529 q 501 546 515 543 q 480 537 488 546 q 478 517 472 528 m 492 522 q 501 507 490 510 q 515 514 511 507 q 515 522 517 518 q 506 529 511 526 q 492 522 496 529 m 496 521 q 504 525 500 525 q 513 521 511 524 q 504 510 511 515 q 497 514 501 510 q 496 521 493 518 m 500 517 q 503 513 500 515 q 508 515 507 511 q 506 519 508 517 q 500 517 501 521 z "},",":{"ha":361,"x_min":47,"x_max":311,"o":"m 58 224 q 49 169 47 178 q 54 133 49 158 q 60 93 60 107 q 58 78 60 85 q 56 -39 53 51 q 63 -94 63 -87 q 63 -114 65 -100 q 61 -172 61 -108 q 58 -190 61 -178 q 54 -207 54 -201 q 63 -225 54 -218 q 110 -232 101 -236 q 154 -206 135 -225 q 192 -168 174 -186 q 222 -125 200 -157 q 251 -71 229 -114 q 272 6 269 -24 l 283 38 l 306 121 l 311 154 q 304 189 311 165 q 269 229 303 203 q 222 256 251 243 q 164 281 192 269 q 129 278 150 288 q 90 257 101 268 q 82 247 88 253 q 58 224 72 240 m 92 196 q 135 240 94 207 l 156 246 q 215 228 175 250 q 269 181 244 207 q 261 92 278 154 l 247 38 l 243 32 q 226 -21 239 14 q 156 -156 189 -117 q 111 -194 142 -169 q 93 -201 101 -200 q 96 -183 94 -196 q 101 -142 97 -169 q 100 -96 103 -126 q 94 -25 100 -86 q 92 43 89 29 q 93 119 96 76 q 83 168 83 163 q 92 196 83 185 m 175 231 m 200 224 m 106 187 q 105 184 106 187 q 103 175 104 182 q 107 163 100 168 q 119 163 111 160 q 122 167 122 164 q 118 174 122 168 q 115 184 114 181 q 113 189 115 188 q 106 187 108 192 m 201 75 m 235 140 q 244 133 236 138 q 254 138 251 133 q 260 148 257 143 q 260 157 263 153 q 253 168 257 160 q 254 175 253 168 q 249 178 251 176 q 253 157 240 167 q 251 149 254 153 q 236 147 246 150 q 235 140 235 147 m 106 133 q 109 123 101 128 q 125 119 117 118 q 131 128 132 121 q 131 136 126 133 q 153 157 138 143 q 168 147 158 154 q 154 79 164 132 q 139 61 147 74 q 133 13 136 51 q 136 -37 132 -29 q 160 -47 147 -51 q 176 -10 165 -46 q 188 36 186 26 q 178 68 190 54 l 183 103 l 192 146 q 210 143 200 149 q 224 110 214 132 q 219 106 224 110 q 217 100 215 103 q 226 92 218 94 q 240 93 231 89 q 236 104 244 99 q 228 111 233 106 l 214 149 q 225 156 218 150 q 231 189 243 168 q 179 219 214 214 q 140 211 157 222 q 133 178 119 199 q 146 164 136 169 l 146 161 q 134 150 142 158 q 122 138 126 142 q 106 133 115 139 m 147 118 m 131 88 m 111 100 m 129 99 m 229 76 m 208 71 m 106 29 m 122 24 m 154 24 m 176 -6 m 217 38 m 121 -49 m 196 29 m 147 -46 m 181 17 m 158 -53 m 188 -57 m 115 131 q 121 132 118 133 q 124 129 122 131 q 118 126 122 126 q 115 131 115 128 m 151 208 q 196 208 172 218 q 224 178 224 197 q 200 154 224 158 q 186 153 194 154 q 171 71 179 114 q 175 57 172 67 q 178 51 176 56 q 179 39 179 46 q 172 -7 179 19 q 151 -36 164 -40 q 139 -1 139 -31 q 147 56 139 33 q 160 69 151 68 q 178 153 164 96 l 176 156 q 143 176 154 161 q 151 208 131 196 m 244 144 q 249 144 247 146 q 250 140 251 143 q 246 140 250 140 q 244 144 242 142 m 225 104 q 232 104 228 106 q 233 99 233 101 q 228 99 228 99 q 225 104 224 100 m 147 183 l 149 183 q 182 194 156 199 q 215 178 203 192 q 215 183 215 178 q 192 204 211 196 q 157 204 171 211 q 147 183 143 197 m 169 183 q 168 171 165 175 q 179 161 171 165 q 201 164 193 157 q 204 174 204 168 q 192 185 200 179 q 169 183 179 188 m 175 181 q 189 181 182 183 q 199 172 197 176 q 194 164 200 167 q 183 164 189 163 q 174 171 179 165 q 175 181 169 178 m 181 174 q 182 167 179 172 q 192 168 189 164 q 189 174 192 171 q 181 174 183 176 z "},".":{"ha":538,"x_min":81,"x_max":301,"o":"m 294 18 q 242 -4 281 -8 q 178 -4 190 0 q 92 42 115 -1 q 81 94 81 63 q 92 147 81 126 q 165 185 113 185 q 193 183 179 185 q 238 164 224 172 q 269 128 261 149 q 275 94 274 121 q 290 67 278 75 q 294 18 301 36 m 236 135 q 231 144 238 142 q 221 140 225 147 q 224 129 221 136 q 236 135 232 129 m 201 165 q 189 171 197 171 q 183 157 182 167 q 199 153 186 153 q 201 165 199 153 m 247 69 l 247 74 q 233 82 247 74 l 232 76 q 239 72 235 76 q 247 69 243 67 m 146 144 l 146 150 l 133 165 l 146 144 m 286 51 q 285 54 286 51 q 279 57 283 57 q 267 39 276 57 q 285 42 272 44 q 279 31 286 39 q 242 26 267 18 q 221 15 233 25 q 249 6 232 6 q 264 8 257 6 q 289 39 289 29 q 286 51 289 44 m 211 113 q 174 138 203 138 q 158 135 165 138 q 146 107 144 125 q 163 74 146 88 q 176 71 168 71 q 189 74 183 71 q 211 113 217 96 m 236 56 l 236 58 q 222 64 232 64 q 208 58 213 64 q 236 56 218 60 m 239 43 q 228 47 233 47 q 201 24 204 47 q 206 21 204 21 l 206 24 q 222 38 208 33 q 239 43 236 42 m 153 46 q 138 51 151 50 q 133 36 133 49 q 143 31 135 35 q 153 46 157 38 m 119 74 q 107 79 115 81 q 106 69 104 75 q 113 64 107 64 q 119 74 117 65 z "},"?":{"ha":1072,"x_min":35,"x_max":813,"o":"m 810 924 q 804 815 807 840 q 776 717 797 757 q 735 636 760 692 q 672 560 726 621 q 632 472 631 513 q 633 390 631 458 q 626 310 636 340 q 574 213 611 260 q 588 139 561 157 q 597 88 597 121 q 599 36 596 49 q 528 -72 592 -47 q 463 -93 489 -93 q 438 -87 450 -93 q 328 -36 360 -89 q 308 88 296 17 q 344 142 314 118 q 351 164 356 154 q 328 185 346 176 q 300 199 304 194 q 232 357 221 268 q 241 393 231 371 q 251 428 251 415 q 307 542 264 468 q 422 636 332 576 q 456 651 426 640 q 485 674 476 660 q 479 749 504 715 q 401 790 435 796 q 293 738 321 788 q 300 693 285 707 q 314 688 306 688 q 346 699 324 688 q 360 736 354 710 q 368 731 365 738 q 372 724 371 724 q 340 669 374 706 q 271 653 308 653 q 131 700 204 653 q 43 819 72 738 q 35 869 40 836 q 125 1085 46 1013 q 272 1147 171 1126 l 428 1146 q 585 1132 479 1140 q 657 1117 621 1125 q 724 1086 699 1107 q 810 924 813 1031 m 286 1040 q 272 1050 282 1050 q 264 1044 269 1049 q 263 1036 263 1036 q 269 1040 263 1036 q 276 1038 274 1040 q 275 1028 275 1033 q 281 1026 275 1026 q 286 1040 288 1031 m 221 1093 q 210 1103 217 1101 q 199 1096 203 1104 q 199 1085 197 1094 q 211 1079 204 1078 q 221 1093 217 1081 m 250 968 q 240 972 246 974 q 235 963 232 969 q 243 957 238 954 q 250 968 250 957 m 275 953 q 268 967 275 958 q 264 961 265 964 q 263 953 264 954 q 244 939 256 942 q 226 949 238 940 q 218 963 225 956 q 213 950 213 957 q 231 921 217 928 q 258 919 250 914 q 275 953 275 925 m 208 978 q 192 997 204 986 q 178 969 181 982 q 201 963 186 967 q 208 978 207 969 m 169 963 q 167 971 171 965 q 129 993 143 971 q 110 986 121 997 q 114 965 100 978 q 128 964 119 961 q 143 965 138 967 q 169 963 167 960 m 713 902 q 710 916 713 902 q 683 983 707 929 q 557 1069 631 1058 q 468 1078 508 1076 q 369 1082 418 1081 q 271 1074 313 1083 q 219 1036 247 1064 q 210 1024 215 1033 q 200 1015 204 1015 q 193 1018 197 1015 q 186 1031 185 1024 q 190 1046 188 1039 q 175 1069 188 1056 q 153 1071 168 1075 q 136 1040 133 1058 q 160 1018 139 1024 q 168 1021 164 1021 q 179 1013 172 1021 q 193 1006 186 1006 q 200 1007 196 1007 q 209 997 204 1007 q 219 985 214 988 q 256 992 231 989 q 261 1017 256 1000 q 253 1040 257 1024 q 267 1056 257 1051 q 282 1056 274 1060 q 294 1036 296 1047 q 283 1018 296 1025 q 270 1008 272 1019 q 267 986 268 997 q 292 958 278 979 q 278 908 300 935 q 225 901 254 888 q 197 947 203 913 q 169 951 169 951 q 164 897 164 925 q 185 806 164 843 q 186 799 186 801 q 176 788 186 794 q 165 775 167 782 q 169 732 153 754 q 211 711 185 710 q 246 739 238 717 q 275 819 246 790 q 428 885 338 885 q 479 879 454 885 q 561 815 515 871 q 583 733 583 774 q 581 704 583 719 q 475 574 583 628 q 336 386 363 517 q 326 339 326 367 q 340 269 326 304 q 417 221 363 240 q 489 225 440 219 q 529 253 518 243 q 556 294 551 272 q 574 376 574 326 q 560 468 574 422 q 556 490 556 479 q 588 565 556 504 q 686 697 611 590 q 718 850 718 769 q 713 902 718 875 m 100 908 q 78 917 89 922 q 69 894 67 910 q 85 885 72 886 q 98 892 90 885 q 100 908 106 900 m 149 826 q 128 840 144 840 q 115 825 121 839 q 122 811 115 819 q 139 810 138 810 q 149 826 147 814 m 542 110 q 515 111 532 126 q 521 89 510 94 q 540 93 531 85 q 542 110 546 103 m 550 44 q 538 53 546 51 q 525 46 528 53 q 531 25 518 31 q 547 28 540 19 q 550 44 554 38 m 529 -21 q 515 -12 525 -14 q 503 -19 507 -12 q 508 -39 497 -33 q 528 -35 518 -44 q 529 -21 531 -24 m 478 38 q 474 72 483 57 q 426 94 458 97 q 392 69 406 92 q 393 28 382 54 q 439 4 410 1 q 478 38 471 7 m 483 -4 l 481 -4 q 442 -28 458 -26 q 376 1 397 -32 q 368 57 358 28 q 362 56 364 61 q 357 47 360 51 q 360 -18 342 18 q 432 -49 385 -54 q 483 -4 478 -37 m 679 882 q 664 763 686 806 q 638 724 658 747 q 631 742 631 726 q 629 761 631 757 q 532 903 615 833 q 464 922 510 922 q 392 926 404 924 q 358 999 358 964 q 361 1019 358 1010 q 393 1040 371 1035 q 439 1033 413 1044 q 478 1021 465 1021 q 517 1040 490 1029 q 563 1033 540 1043 q 606 1013 585 1024 q 619 986 617 1004 q 622 953 621 968 q 650 947 624 951 q 679 882 661 936 m 326 1001 q 325 988 326 1001 q 314 982 322 986 q 303 994 304 985 q 311 1008 300 1003 q 326 1001 321 1011 m 622 674 q 610 667 619 671 q 597 679 600 669 q 607 692 596 683 q 621 688 614 693 q 622 674 622 674 m 343 935 q 336 919 344 925 q 321 919 328 915 q 313 933 314 924 q 326 949 315 946 q 343 935 336 949 m 596 629 q 594 617 596 629 q 583 611 592 615 q 572 622 574 613 q 582 636 574 636 q 596 629 592 639 m 176 1051 q 175 1039 178 1047 q 161 1029 172 1031 q 149 1038 157 1029 q 150 1056 146 1042 q 164 1061 156 1063 q 176 1051 174 1061 m 272 860 q 254 828 272 839 q 215 824 236 818 q 189 858 192 831 q 192 879 188 867 q 232 843 207 842 q 269 860 249 840 l 272 860 m 204 749 q 203 747 204 749 q 193 742 203 744 q 175 751 179 742 q 178 767 172 758 q 192 774 183 775 q 203 767 201 772 q 206 758 206 763 q 204 749 206 753 m 451 467 q 449 454 451 467 q 438 449 449 454 q 426 460 429 450 q 435 474 424 468 q 451 467 444 476 m 543 331 q 536 318 546 322 q 522 324 529 317 q 533 340 519 338 q 543 331 539 340 m 451 411 q 449 399 454 404 q 438 393 449 399 q 426 403 431 394 q 435 418 424 413 q 451 411 444 421 m 501 285 q 494 274 500 278 q 479 282 483 271 l 476 347 q 485 358 479 357 q 499 350 490 361 l 501 285 m 451 344 l 449 253 q 439 247 447 247 q 433 249 436 247 l 429 257 l 431 347 q 442 353 433 354 q 451 344 450 351 m 403 307 q 404 281 403 307 q 394 260 404 265 q 381 268 388 257 q 379 294 381 268 q 388 317 379 311 q 403 307 399 321 m 367 304 q 358 292 368 294 q 349 297 354 292 q 354 313 347 304 q 367 304 364 313 m 460 61 q 456 46 463 51 q 439 44 450 40 q 436 63 433 56 q 460 61 446 79 m 582 899 q 582 958 586 932 q 579 1001 585 974 q 572 1001 575 1003 q 563 914 568 972 q 582 899 568 906 m 639 931 l 638 932 q 618 935 638 932 q 606 928 607 936 q 603 892 606 925 q 611 858 600 869 q 617 861 613 858 q 639 931 625 883 m 539 1013 q 529 1018 536 1018 q 519 1011 522 1017 q 519 940 519 989 l 526 935 q 536 936 533 929 q 539 1013 535 963 m 668 858 q 663 863 663 864 l 646 826 q 640 819 644 824 q 636 811 636 815 q 650 799 646 797 q 663 826 660 808 q 668 858 667 843 m 481 954 q 483 968 485 960 q 481 983 481 983 q 469 992 479 993 q 453 994 456 990 q 453 979 449 988 q 457 965 457 968 q 481 954 460 958 m 436 964 q 429 986 433 975 q 428 1008 425 997 q 415 1017 425 1015 q 403 1010 404 1018 q 422 960 404 983 q 436 964 428 958 m 169 1050 q 164 1053 168 1054 q 158 1047 160 1051 q 165 1042 158 1047 q 169 1050 171 1042 z "},"A":{"ha":650,"x_min":-35,"x_max":681,"o":"m 676 425 q 681 403 681 414 q 676 370 681 393 q 674 333 671 347 q 628 139 661 267 q 610 83 621 121 q 583 38 596 69 q 558 -8 569 6 q 543 -89 543 -46 q 524 -100 539 -99 q 474 -47 504 -97 q 440 8 449 -11 q 422 69 425 40 q 421 226 425 122 l 407 236 q 349 256 358 257 q 278 173 289 215 q 244 50 268 131 q 240 -6 244 49 q 224 -54 238 -37 q 197 -107 214 -87 q 163 -132 178 -132 q 141 -112 146 -129 q 133 -78 136 -94 q 101 21 121 -46 q 56 119 82 53 q 3 263 6 210 q -1 297 1 268 q -14 329 -3 319 q -24 358 -14 340 q -35 385 -33 375 q -28 472 -35 386 q -24 494 -25 479 q -19 515 -22 508 q 22 701 -7 578 q 31 763 31 726 q 29 806 31 778 q 28 850 28 835 q 88 1010 28 921 q 165 1139 103 1063 q 188 1144 175 1144 q 239 1128 197 1144 q 321 1094 253 1118 q 417 1051 356 1085 l 499 943 q 544 876 518 922 q 585 808 569 829 q 617 743 600 788 q 639 696 629 726 q 657 646 651 657 q 667 524 667 551 q 676 425 675 475 m 589 572 q 564 693 588 589 q 519 794 551 728 q 399 939 506 819 q 332 993 360 983 q 196 1053 281 1022 l 188 1046 q 143 957 160 1004 q 103 857 106 906 q 113 731 115 765 q 100 682 107 715 q 63 571 88 644 q 51 521 63 567 q 44 471 44 492 q 46 450 44 460 q 40 426 40 439 q 48 393 40 415 q 57 361 56 371 q 65 313 57 344 q 121 142 83 211 q 144 84 126 122 q 167 26 163 46 l 171 26 q 175 69 176 42 q 175 114 175 114 q 192 167 178 132 q 238 249 201 182 q 289 314 263 281 q 361 343 322 349 q 489 285 393 332 l 503 271 q 519 171 522 233 q 499 118 518 165 q 485 63 485 85 q 494 26 485 43 q 501 31 494 26 q 536 97 507 42 q 564 165 558 136 q 572 195 571 175 q 575 222 574 215 q 589 572 597 404 m 229 793 q 226 783 231 790 q 215 789 219 783 q 222 797 214 793 q 229 793 222 797 m 549 443 q 531 421 546 429 q 503 407 504 407 q 475 382 489 394 q 460 349 460 365 q 443 340 456 342 q 421 354 431 339 q 406 371 422 365 q 375 369 396 369 q 333 368 383 368 q 310 381 317 368 q 322 401 307 390 q 367 401 344 401 q 408 413 394 403 q 490 475 453 422 q 500 522 500 499 q 476 604 500 557 q 435 681 456 642 q 350 788 406 715 q 326 822 338 796 q 297 853 314 847 q 278 840 286 854 q 260 826 269 826 q 225 815 244 804 q 204 818 213 824 q 194 800 194 811 q 204 753 204 749 q 193 724 204 735 q 169 678 179 706 q 150 625 160 651 q 133 535 140 611 q 132 478 129 517 q 156 392 156 442 q 140 324 156 353 q 111 313 131 314 q 101 336 100 319 q 100 364 101 358 q 104 426 114 406 l 86 467 q 99 549 85 500 q 119 629 117 610 q 139 744 129 686 q 146 863 149 813 q 164 918 151 881 q 210 996 176 946 q 239 985 208 996 q 321 949 240 985 q 383 893 349 932 q 442 831 425 844 q 501 729 461 797 q 526 639 514 700 q 539 607 538 628 q 543 571 543 574 q 549 443 543 528 m 457 539 q 458 524 458 531 q 426 463 458 486 q 360 435 403 440 q 282 431 357 433 q 224 454 253 429 q 176 503 200 479 q 171 533 171 517 q 188 600 171 553 q 201 632 192 611 q 251 735 218 665 q 299 747 265 756 q 346 714 324 742 q 381 665 364 690 q 457 539 410 624 m 540 360 q 526 328 543 336 q 514 325 521 325 q 501 328 507 325 q 488 356 483 339 q 506 378 489 372 q 540 360 525 382 m 547 299 q 544 292 547 296 q 536 294 542 290 q 540 303 535 301 q 547 299 543 303 m 551 257 q 550 249 551 254 q 540 251 542 249 q 544 260 540 258 q 551 257 547 261 m 275 371 q 274 357 275 363 q 257 346 268 347 q 236 358 242 346 q 238 372 236 360 q 250 383 242 376 q 275 371 265 388 m 196 382 q 190 372 199 374 q 183 376 188 372 q 186 385 183 383 q 196 382 194 385 m 199 346 q 197 339 200 343 q 188 342 194 338 q 193 349 188 349 q 199 346 194 350 m 185 308 q 183 300 186 306 q 175 303 181 300 q 179 311 175 306 q 185 308 181 313 m 138 260 q 119 240 135 249 q 97 251 104 240 q 97 267 93 260 q 124 263 114 258 q 132 267 126 268 q 138 260 139 267 m 161 213 q 159 198 163 208 q 142 186 156 188 q 122 199 131 185 q 124 214 122 203 q 135 224 125 215 q 161 213 156 226 m 411 807 q 396 815 406 818 q 390 801 388 808 q 406 794 392 796 q 411 807 413 800 m 375 849 q 361 860 372 858 q 344 851 349 861 q 344 838 340 844 q 364 829 353 826 q 375 849 378 839 m 435 768 q 426 774 435 774 q 421 764 418 769 q 431 758 426 758 q 435 768 436 760 m 282 913 q 274 924 279 924 q 269 894 267 918 q 276 890 274 890 q 282 913 283 896 m 257 921 q 250 947 257 931 q 243 944 244 947 q 250 913 240 932 q 257 921 257 915 m 229 925 l 226 963 q 214 965 219 982 q 224 919 214 949 q 229 925 226 919 m 207 908 q 199 938 207 919 q 192 932 194 936 q 199 901 192 921 q 207 908 203 900 m 257 861 q 256 885 261 878 q 226 897 244 901 q 206 874 210 893 q 215 851 208 858 q 238 844 232 844 q 257 861 250 847 m 190 892 q 179 903 183 904 q 176 893 176 899 q 181 882 176 888 q 188 878 185 876 l 190 892 m 533 449 q 522 444 532 454 q 506 447 522 444 q 503 440 504 444 q 521 431 507 431 q 533 449 535 435 m 183 740 q 186 758 183 740 q 179 771 188 769 q 176 739 172 761 q 183 740 179 738 m 165 717 q 165 789 164 740 q 157 793 164 794 q 153 719 157 768 l 156 714 q 165 717 160 713 m 385 521 q 365 559 379 533 q 344 599 350 585 q 303 671 333 625 q 264 606 275 626 q 236 536 244 569 q 257 513 243 517 q 346 499 317 492 q 367 507 351 503 q 385 521 383 511 m 522 356 q 510 360 519 361 q 506 347 504 357 q 518 343 508 342 q 522 356 524 346 m 449 367 q 440 374 449 374 q 433 365 432 372 q 444 360 438 360 q 449 367 449 367 m 343 389 q 333 392 342 392 q 331 382 331 390 q 340 379 332 379 q 343 389 343 381 m 129 346 q 118 353 125 350 q 114 343 115 351 q 124 336 115 335 q 129 346 129 343 m 240 863 l 235 856 l 228 863 q 235 868 229 868 q 240 863 240 868 z "},"B":{"ha":771,"x_min":-114,"x_max":774,"o":"m 769 424 q 733 225 761 311 q 699 167 721 206 q 590 74 644 99 q 439 24 528 36 q 393 11 422 22 q 326 0 360 0 q 253 19 282 0 q 106 121 172 53 q 74 177 90 147 q 61 236 58 207 q 43 322 56 265 q 38 378 46 344 q 28 431 28 417 q 21 596 19 486 q 50 722 33 638 q 61 769 57 739 q 68 817 65 806 q 26 860 65 831 q -11 881 14 872 q -50 893 -44 890 q -90 913 -71 903 q -111 949 -114 926 q -81 980 -110 969 q -46 1000 -53 990 q 19 1049 -21 1025 q 89 1088 54 1068 q 176 1111 151 1111 q 200 1108 188 1111 l 235 1110 q 363 1096 347 1094 q 409 1071 381 1093 q 456 1046 438 1049 q 482 1046 464 1044 l 549 1036 q 665 936 619 1013 q 725 792 692 892 q 729 761 729 776 q 707 694 729 731 q 668 635 688 664 q 725 563 686 619 q 769 424 774 488 m 693 357 q 692 479 703 450 q 631 576 676 514 q 609 591 625 585 q 586 604 593 597 q 578 628 578 617 q 597 664 578 643 q 626 697 622 689 q 649 729 628 699 q 663 764 663 750 q 654 788 663 776 q 575 942 619 894 q 496 972 551 968 q 412 989 429 978 q 361 1022 394 1000 q 285 1035 343 1024 q 206 1044 238 1044 q 171 1042 188 1044 q 83 1007 129 1036 q 3 951 78 1004 q 6 943 0 950 q 72 911 53 935 q 122 869 76 910 q 139 833 139 856 q 133 799 139 822 q 128 765 128 775 q 119 715 128 747 q 110 669 111 683 q 97 611 108 654 q 90 550 88 575 q 86 508 86 531 q 111 358 86 471 q 122 274 111 322 q 144 193 133 233 q 185 140 154 165 q 240 100 186 140 q 285 79 263 90 q 332 67 313 67 q 360 72 347 67 q 500 107 365 74 q 553 133 519 111 q 639 203 604 153 q 678 275 665 229 q 693 357 685 317 m 607 774 q 589 725 610 764 q 567 696 578 711 q 536 676 551 679 q 513 675 514 674 q 488 724 483 689 q 508 810 508 768 q 489 874 508 849 q 404 935 465 919 q 296 951 350 943 q 281 954 288 954 q 208 913 243 954 q 197 885 203 900 q 175 876 192 871 l 147 910 q 118 932 135 915 q 93 954 110 938 l 94 960 q 161 993 115 974 l 233 999 q 296 990 265 994 q 351 968 332 985 q 379 953 361 958 q 407 942 406 943 q 449 933 428 938 q 493 931 475 928 q 549 907 499 929 q 596 818 550 904 q 602 798 596 813 q 607 774 608 783 m 474 679 q 468 671 475 674 q 463 676 463 675 q 467 683 460 682 q 474 679 474 683 m 464 797 q 431 722 457 758 q 358 689 400 683 q 253 747 275 700 q 229 779 236 756 q 221 819 225 799 q 265 906 217 883 q 303 910 283 910 q 406 889 336 910 q 464 797 460 863 m 581 561 q 578 551 581 557 q 569 557 571 553 q 574 564 568 563 q 581 561 579 564 m 440 651 q 436 643 440 643 q 429 650 429 644 q 433 654 429 654 q 440 651 439 654 m 413 624 q 401 626 404 618 q 410 631 403 632 q 413 624 415 631 m 190 826 q 186 818 192 824 q 179 821 186 818 q 182 829 179 825 q 190 826 189 829 m 417 590 q 411 582 419 585 q 406 586 407 581 q 407 593 406 590 q 417 590 411 594 m 385 613 q 379 606 386 608 q 374 610 374 606 q 375 618 372 614 q 385 613 379 618 m 190 793 q 186 785 190 792 q 179 788 182 785 q 182 797 179 792 q 190 793 190 797 m 638 299 q 622 260 636 281 q 599 225 599 225 q 533 179 554 179 q 517 182 525 179 q 497 213 499 189 q 508 236 496 231 q 548 238 519 242 q 588 247 576 235 q 607 294 606 261 q 610 349 608 343 q 553 449 604 397 q 524 483 543 460 q 449 554 482 514 q 439 583 440 563 q 474 617 449 617 q 522 594 479 617 q 533 567 529 588 q 546 536 536 546 q 585 513 556 526 q 628 483 615 499 q 657 390 657 449 q 638 299 657 342 m 189 757 q 183 749 192 751 q 178 758 181 751 q 189 757 186 761 m 585 304 q 582 299 586 303 q 574 301 575 299 q 576 310 574 304 q 585 304 585 313 m 583 268 q 581 261 585 264 q 572 264 578 261 q 575 271 572 269 q 583 268 582 271 m 557 271 q 553 264 556 268 q 547 268 547 268 q 550 276 543 275 q 557 271 557 276 m 511 318 q 364 224 475 258 q 325 222 349 218 q 286 228 294 228 q 247 285 257 244 q 246 319 244 296 q 243 353 247 342 q 240 511 235 446 q 279 556 242 525 q 368 532 313 563 q 458 475 397 511 q 504 433 476 464 q 524 365 524 399 q 511 318 524 339 m 335 611 q 328 596 336 603 q 306 604 319 596 q 294 629 306 622 q 271 620 275 631 q 254 596 267 610 q 217 596 250 594 q 186 579 193 597 q 185 567 185 572 q 191 536 185 556 q 197 507 197 517 q 192 486 197 497 q 194 365 192 446 q 200 285 197 325 q 238 218 206 236 q 251 182 257 201 q 238 169 247 172 q 222 176 231 167 q 228 190 225 183 q 224 204 232 200 q 206 197 215 206 q 203 190 206 193 q 188 207 203 190 q 167 282 179 232 q 147 411 158 324 q 132 486 146 413 q 135 565 129 514 q 149 601 142 582 q 172 631 157 621 q 163 653 174 640 q 151 675 151 667 q 151 686 151 679 q 158 704 151 693 q 165 718 164 715 q 193 725 189 728 q 217 713 215 714 q 232 693 229 704 q 301 653 250 674 q 324 635 313 644 q 335 611 336 625 m 514 158 q 507 143 517 147 q 493 149 497 142 q 500 165 492 163 q 514 158 504 167 m 475 188 q 474 174 478 185 q 461 167 472 169 q 447 179 449 171 q 456 194 450 190 q 475 188 465 201 m 400 179 q 393 165 403 171 q 386 168 389 164 q 394 182 383 178 q 400 179 397 182 m 432 124 q 411 117 426 110 q 404 128 410 117 q 414 143 403 136 q 429 139 422 144 q 432 124 435 129 m 351 164 q 349 156 350 156 q 340 160 340 156 q 346 168 342 164 q 351 164 351 163 m 310 136 q 290 122 301 125 q 267 129 279 119 q 261 154 257 147 q 281 174 265 164 q 302 166 290 175 q 310 136 314 157 m 583 772 q 579 794 585 785 q 558 801 567 803 q 547 793 558 801 q 544 772 540 779 q 565 760 551 760 q 583 772 574 763 m 556 717 q 553 718 554 717 q 531 715 540 713 q 520 728 525 718 q 513 740 515 738 q 506 721 508 736 q 521 699 508 707 q 546 700 531 694 q 556 717 556 710 m 393 807 l 388 814 q 311 790 347 817 q 328 767 313 772 q 375 763 361 754 q 393 807 394 793 m 156 940 q 142 960 142 958 q 131 960 138 964 q 126 943 125 953 q 149 932 136 928 q 156 940 156 936 m 506 565 q 506 582 510 574 q 483 594 500 594 q 468 585 475 592 q 467 565 464 572 q 488 551 475 551 q 506 565 497 551 m 607 460 q 608 467 608 463 q 607 474 608 471 q 596 467 600 472 q 583 470 590 464 q 572 476 575 476 q 571 461 567 468 q 589 450 576 449 q 607 460 603 450 m 207 688 q 186 696 201 701 q 178 676 175 690 q 190 665 181 669 q 206 672 196 667 q 207 688 208 685 m 251 626 q 251 644 254 635 q 233 656 244 656 q 215 644 222 656 q 214 628 214 628 q 235 614 222 614 q 251 626 242 617 m 454 358 q 449 389 457 365 q 415 419 438 399 q 358 408 381 422 q 343 378 346 400 q 338 343 338 344 q 338 293 332 303 q 350 292 343 288 q 364 294 361 294 q 454 358 426 315 m 531 218 q 521 226 526 228 q 515 215 514 224 q 525 210 519 208 q 531 218 528 213 m 297 154 q 286 160 294 158 q 283 151 283 160 q 290 144 282 149 q 297 154 294 147 m 571 781 q 565 768 572 769 q 554 772 558 767 q 558 785 553 781 q 571 781 563 786 m 496 572 q 489 563 493 564 q 478 569 479 564 q 486 578 476 576 q 496 572 494 579 m 242 632 q 232 625 242 628 q 224 632 224 628 l 225 638 q 242 632 232 638 z "},"C":{"ha":782,"x_min":-29,"x_max":792,"o":"m 792 499 q 774 413 785 471 q 749 300 769 363 q 710 194 729 247 q 665 128 704 161 q 600 74 600 74 q 390 1 490 -3 q 363 1 379 -1 q 336 4 343 4 q 132 122 226 13 q 64 229 115 140 q 13 339 46 253 q 1 383 11 354 q -21 561 -6 442 q -28 617 -29 583 q -25 676 -25 675 q -12 735 -18 694 q 0 793 -7 775 q 7 819 -1 806 q 18 846 18 846 q 51 919 26 872 q 88 965 63 942 q 131 1006 108 986 q 263 1076 131 1006 q 401 1108 363 1108 q 444 1110 418 1113 q 490 1106 478 1106 q 533 1093 501 1106 q 678 1039 624 1074 q 760 915 714 1006 q 778 818 778 833 q 774 786 778 801 q 767 732 776 763 q 750 682 750 682 q 690 589 740 636 q 600 515 671 569 q 583 488 592 501 q 557 471 571 472 q 514 492 528 469 q 503 574 510 518 q 469 642 501 615 q 406 640 424 656 q 357 507 357 588 q 363 453 357 481 q 401 392 371 410 q 451 376 421 376 q 487 379 463 376 q 522 382 511 382 q 581 440 547 397 q 640 499 614 483 q 726 522 685 526 q 769 528 751 540 q 792 499 788 519 m 697 431 q 692 438 697 435 q 635 381 668 421 q 578 319 597 336 l 565 313 q 463 278 522 278 q 299 354 381 278 q 265 400 285 378 q 246 482 253 432 q 235 569 240 526 q 263 718 247 675 q 363 822 292 797 q 392 825 376 825 q 476 800 435 825 q 576 633 546 743 q 576 615 578 631 q 585 603 576 604 l 656 671 q 676 717 668 688 q 693 764 690 758 q 682 894 701 847 q 654 940 672 904 q 618 982 638 969 q 546 1008 594 992 l 515 1015 q 451 1029 490 1029 q 356 1017 428 1029 q 169 907 249 961 q 122 851 140 888 q 96 788 121 849 q 86 749 96 786 q 75 686 83 733 q 68 622 68 647 q 79 517 68 582 q 94 410 92 432 q 122 322 99 379 q 147 268 128 299 q 179 218 164 243 q 293 114 211 140 q 301 117 297 117 q 315 109 306 117 q 329 101 324 101 q 450 85 397 76 q 579 161 522 106 q 612 188 594 174 q 632 219 629 203 q 678 353 650 263 q 697 431 688 369 m 586 765 q 583 757 586 763 q 575 761 575 757 q 581 768 574 767 q 586 765 582 768 m 644 792 q 625 725 636 769 q 610 697 624 714 q 583 710 599 697 q 589 739 579 724 q 607 767 599 754 q 613 790 610 778 q 606 811 614 804 q 597 814 604 813 q 564 785 575 783 q 553 799 558 785 q 407 876 481 876 q 381 874 394 876 q 233 779 274 865 q 211 732 222 756 q 197 681 199 704 q 188 608 188 608 q 186 568 182 594 q 206 414 192 515 q 215 383 208 404 q 251 335 226 374 q 293 292 271 303 q 299 256 304 279 q 269 232 294 232 q 232 247 258 232 q 206 300 211 267 q 197 365 201 333 q 178 408 193 383 q 154 450 158 442 q 147 496 147 472 q 169 593 147 544 q 160 613 168 607 q 148 601 154 614 q 128 574 142 589 l 122 579 q 132 689 118 661 q 169 825 144 785 q 188 853 171 838 q 211 878 208 874 q 367 964 307 943 q 408 978 369 967 q 485 972 435 979 q 516 964 497 974 q 543 953 535 954 q 582 942 571 947 q 610 913 603 932 q 643 842 626 892 q 644 817 647 832 q 644 792 642 800 m 669 388 q 646 304 663 360 q 614 258 632 272 q 604 261 610 258 q 618 282 610 268 q 624 311 624 311 q 613 320 618 315 q 613 332 608 325 q 639 359 625 344 q 656 388 653 374 q 669 388 667 401 m 607 299 q 600 282 608 289 q 586 290 593 279 q 590 304 585 299 q 607 299 600 317 m 560 267 q 554 258 561 260 q 546 261 547 258 q 551 271 546 267 q 560 267 553 272 m 531 253 q 525 244 533 246 q 517 250 521 243 q 524 257 517 256 q 531 253 529 258 m 493 233 q 488 226 493 229 q 481 231 488 226 q 485 238 481 238 q 493 233 493 239 m 456 235 q 453 226 456 235 q 444 229 450 226 q 447 238 444 236 q 456 235 450 238 m 131 536 q 129 517 133 529 q 104 510 118 504 q 93 529 94 514 q 107 549 94 543 q 131 536 117 547 m 126 486 q 121 478 128 482 q 115 481 118 479 q 118 489 113 488 q 126 486 122 490 m 135 454 q 132 446 135 447 q 124 451 125 444 q 128 457 124 454 q 135 454 132 458 m 144 417 q 140 408 144 408 q 133 411 140 408 q 136 419 133 414 q 144 417 139 419 m 181 342 q 163 329 178 335 q 139 336 153 326 q 132 367 126 351 q 154 383 136 378 q 181 369 174 383 q 181 342 186 350 m 557 900 q 553 918 560 917 l 539 903 q 525 903 533 899 q 510 908 514 908 l 510 900 q 536 885 521 883 q 557 900 547 886 m 517 943 q 504 940 517 954 q 496 936 501 936 q 485 940 493 936 q 474 944 478 944 q 483 926 474 933 q 503 925 504 925 q 517 943 515 932 m 585 828 q 586 836 586 832 q 585 846 586 842 q 563 860 576 860 q 546 850 556 857 q 544 831 542 838 q 567 817 550 819 q 585 828 572 815 m 483 911 q 478 915 481 915 q 471 910 476 915 q 461 904 465 904 q 451 908 458 904 q 440 911 444 913 q 453 890 440 897 q 469 890 461 886 q 483 911 485 901 m 175 665 q 151 675 167 682 q 142 658 144 672 q 153 644 146 647 q 158 643 156 643 q 165 644 163 643 q 175 665 178 650 m 283 276 q 279 279 282 279 q 271 275 276 279 q 263 271 265 271 q 258 272 260 271 q 244 293 256 274 q 235 276 240 293 q 246 256 235 264 q 269 254 253 251 q 283 276 283 263 m 164 365 q 154 371 161 372 q 147 358 144 367 q 158 354 151 353 q 164 365 165 356 m 571 844 q 565 836 569 836 q 557 842 557 836 q 563 850 554 847 q 571 844 569 851 m 164 664 q 161 657 164 660 q 154 660 157 656 q 158 667 154 665 q 164 664 160 667 z "},"D":{"ha":810,"x_min":-85,"x_max":822,"o":"m 818 589 q 818 471 814 553 q 815 353 822 393 l 814 329 q 775 253 794 292 q 725 181 751 207 q 621 92 683 126 q 486 36 578 69 q 413 19 474 32 q 269 6 367 13 q 192 0 244 6 q 147 28 167 0 q 119 76 132 51 q 72 150 106 101 q 58 188 64 163 q 47 222 53 213 q 51 374 46 344 q 49 603 64 538 q 42 632 49 613 q 35 664 35 651 q 11 724 21 686 q -8 788 -6 779 q -43 963 -26 906 q -82 1061 -46 1004 q -81 1090 -85 1082 q -25 1110 -64 1118 q 4 1101 -15 1106 q 58 1082 24 1097 l 311 1079 q 432 1072 353 1081 q 589 1035 521 1067 q 635 1007 604 1025 q 710 943 661 988 q 756 865 732 915 q 794 785 783 801 q 807 739 804 768 q 815 693 813 701 q 818 589 818 658 m 36 1004 q 36 1021 40 1011 q 8 1031 31 1036 q -1 1006 -4 1022 q 18 993 7 992 q 36 1004 32 993 m -6 1043 q -6 1058 -1 1051 q -31 1063 -15 1072 q -35 1044 -36 1046 q -18 1035 -31 1035 q -6 1043 -8 1036 m 743 590 q 744 599 743 590 q 743 635 746 607 q 742 681 739 667 q 719 775 739 714 q 664 875 704 810 q 619 928 643 910 q 576 956 606 938 q 453 999 529 989 q 313 1006 436 1000 q 246 1010 289 1010 q 178 1011 196 1010 q 128 1003 153 1007 q 81 986 99 997 q 50 908 46 963 q 57 838 54 854 q 75 772 63 799 q 87 727 76 751 q 107 682 97 703 q 115 646 108 668 q 122 619 117 639 q 125 588 126 599 q 129 526 131 564 q 131 464 129 479 l 121 322 q 132 196 115 235 q 206 75 154 156 l 243 74 q 349 85 279 76 q 497 114 440 94 q 565 146 507 121 q 631 188 608 165 q 688 254 654 210 q 739 346 697 267 q 746 419 746 378 q 743 485 746 440 q 740 553 740 531 q 743 590 740 574 m 696 589 l 694 482 q 679 474 689 475 q 658 488 669 472 q 651 531 661 506 q 640 567 640 557 q 643 721 657 658 q 547 858 624 800 q 400 894 489 894 q 344 892 374 894 q 307 885 331 892 q 264 868 293 878 q 218 838 247 861 q 197 813 206 829 q 179 782 188 796 q 183 724 176 760 q 186 668 189 688 q 194 629 188 654 q 201 582 196 617 q 206 533 207 553 q 203 503 204 507 q 185 478 199 485 q 175 479 179 476 q 176 506 172 489 q 178 532 181 524 q 167 638 175 568 q 156 678 167 651 q 139 735 156 699 q 121 792 122 771 q 110 829 121 792 q 97 907 107 869 q 101 922 97 913 q 104 939 106 932 q 136 956 114 951 q 171 963 167 960 q 242 969 157 963 q 346 969 293 969 q 443 954 406 968 q 501 938 468 951 q 557 911 529 924 q 635 824 607 883 q 683 722 667 775 q 693 594 683 721 l 696 589 m 696 442 q 693 424 700 433 q 675 419 686 415 q 669 442 664 425 q 682 450 674 450 q 696 442 692 450 m 672 382 q 660 375 669 379 q 646 385 650 375 q 653 400 643 393 q 672 394 667 406 q 672 382 675 388 m 633 464 q 624 438 632 456 q 615 408 615 419 q 621 385 615 403 q 624 357 626 367 q 600 347 621 353 q 572 363 581 347 q 578 422 561 388 q 626 465 594 436 q 633 464 629 467 m 667 342 q 661 335 667 338 q 656 339 656 339 q 660 347 654 347 q 667 342 664 349 m 597 551 q 569 479 594 519 q 528 413 549 446 q 451 340 504 369 q 360 294 406 318 q 301 282 324 282 q 262 294 276 282 q 242 367 247 307 q 242 419 242 367 q 250 467 242 450 l 251 569 q 240 663 253 603 q 226 757 226 724 q 264 814 235 793 q 392 850 332 850 q 535 804 469 850 l 551 788 q 594 681 593 728 q 600 617 603 657 q 597 551 596 563 m 639 313 q 636 304 639 310 q 628 307 632 304 q 631 315 626 311 q 639 313 633 317 m 597 307 q 593 301 596 306 q 585 304 586 301 q 588 313 583 308 q 597 307 592 313 m 551 328 q 547 321 550 325 q 536 326 540 321 q 540 335 535 333 q 551 328 551 338 m 517 301 q 510 294 515 296 q 503 299 510 294 q 508 308 500 306 q 517 301 515 307 m 479 278 q 474 272 476 274 q 467 275 468 272 q 468 283 465 279 q 479 278 476 286 m 431 258 q 425 253 429 257 q 418 257 419 251 q 424 265 415 264 q 431 258 426 261 m 222 453 q 211 435 224 439 q 196 443 200 435 q 207 463 193 463 q 222 453 219 463 m 215 414 q 213 406 217 411 q 204 408 206 406 q 207 417 204 415 q 215 414 214 417 m 183 424 q 175 408 186 415 q 157 415 163 408 q 158 428 157 417 q 172 435 164 435 q 183 424 183 433 m 213 383 q 211 369 215 381 q 199 363 210 367 q 183 375 189 361 q 193 392 186 389 q 213 383 208 394 m 338 924 q 324 918 336 924 q 307 924 315 917 q 300 919 303 925 q 311 904 301 908 q 333 908 325 899 q 338 924 340 918 m 272 943 q 264 938 269 942 q 240 943 260 933 q 239 932 236 939 q 256 921 242 925 q 272 929 265 922 q 272 943 278 936 m 217 876 q 213 919 226 899 q 183 942 204 933 q 128 923 147 950 q 124 869 108 896 q 174 844 138 846 q 217 876 207 847 m 528 569 q 531 597 531 583 q 525 643 531 614 q 519 685 519 672 q 485 710 503 697 q 447 724 467 724 q 414 718 436 718 q 379 718 388 719 q 356 657 353 703 q 353 372 350 600 l 356 371 q 447 428 389 386 q 517 533 471 464 q 528 569 519 546 m 611 376 q 610 378 611 378 q 608 379 608 379 q 596 376 601 376 q 585 379 590 376 q 583 371 578 376 q 601 363 588 360 q 611 376 613 365 m 165 796 q 165 807 168 804 q 157 803 163 807 q 133 807 151 797 q 132 797 126 804 q 150 786 138 786 q 165 796 156 785 m 197 896 q 179 889 192 882 q 171 901 174 890 q 182 914 175 911 q 197 907 190 915 q 197 896 200 897 m 196 871 q 168 858 193 861 q 136 876 144 861 q 139 915 125 893 q 178 928 160 938 q 154 900 157 917 q 171 872 153 885 q 182 871 176 871 q 193 872 189 871 q 196 871 196 869 z "},"E":{"ha":815,"x_min":-29,"x_max":864,"o":"m 864 272 q 833 232 839 264 q 844 193 839 219 q 831 150 831 160 q 833 135 831 143 q 860 97 844 124 q 838 43 849 71 q 792 11 821 13 q 608 19 696 -6 q 514 33 576 22 q 406 39 418 39 q 301 19 343 38 q 269 9 294 18 q 229 0 243 0 q 194 17 208 0 q 125 57 172 33 q 39 106 97 76 q -28 199 -29 150 q -11 260 -26 218 q 0 324 3 297 q 8 365 8 343 q -14 442 8 407 q -18 493 -18 465 q -14 544 -18 521 q 35 626 6 571 q 39 678 40 646 q 38 731 38 732 q 38 849 38 790 q 5 953 36 918 q -26 1029 -26 989 q -23 1054 -26 1040 q -4 1082 -19 1068 q 26 1108 11 1096 q 51 1111 38 1111 q 103 1106 65 1111 q 156 1103 135 1101 q 255 1097 189 1097 q 353 1092 321 1097 q 539 1094 413 1083 q 678 1083 639 1104 q 703 1035 700 1063 q 693 989 694 996 q 669 949 685 964 q 650 876 668 922 q 636 814 649 854 q 607 767 607 790 l 617 740 q 576 694 619 717 q 557 669 571 685 q 540 696 544 675 q 556 716 540 708 q 575 732 572 724 q 574 761 579 753 q 517 789 544 788 q 489 793 496 796 q 425 764 467 786 q 408 704 399 744 q 457 658 435 665 q 533 611 496 635 q 582 540 579 582 q 579 493 585 519 q 569 449 569 456 q 497 368 551 394 q 433 375 465 360 q 448 384 439 378 q 460 410 457 390 q 440 439 457 429 q 376 426 393 443 q 356 386 356 406 q 357 372 356 379 q 410 335 368 339 q 482 332 446 333 q 668 333 647 331 q 703 344 701 343 q 725 371 722 353 q 710 399 729 385 q 692 426 692 414 q 700 456 690 444 q 717 433 704 447 q 754 425 731 432 q 825 393 776 413 q 864 344 842 386 q 853 329 863 339 q 844 313 844 319 q 847 303 844 308 q 864 272 854 293 m 750 249 q 722 281 742 278 q 610 263 706 272 q 481 267 546 264 q 356 281 407 271 q 299 317 328 299 q 268 374 265 342 q 299 475 282 407 q 378 542 311 519 q 392 543 385 543 q 449 513 422 543 q 464 485 450 500 q 481 521 475 503 q 481 558 481 558 q 424 590 463 569 q 346 631 386 610 q 296 700 300 657 q 332 792 290 758 q 419 856 361 813 q 469 869 442 869 q 560 838 515 869 l 564 839 q 592 901 574 850 q 597 935 592 911 q 603 974 603 960 q 588 1013 603 997 q 562 1022 581 1021 q 536 1029 543 1024 q 286 1031 483 1022 q 104 1040 194 1032 q 83 1042 97 1039 q 63 1044 68 1044 q 39 1029 44 1044 q 75 964 42 1018 q 101 853 99 924 q 101 735 101 793 q 96 606 107 661 q 76 563 93 586 q 50 522 54 529 q 56 443 38 475 q 68 326 74 419 q 44 224 65 289 l 46 218 q 100 186 63 206 q 154 154 138 167 q 224 121 176 139 q 302 140 267 138 q 408 146 338 142 q 456 139 408 146 q 500 129 469 133 q 546 119 531 125 q 657 96 583 114 q 680 94 664 96 q 703 92 696 92 q 732 104 722 92 q 750 249 753 174 m 571 979 q 567 971 571 971 q 553 976 554 969 q 571 979 554 992 m 557 953 q 547 940 556 947 q 524 951 529 939 q 524 965 521 958 q 535 972 528 974 q 546 957 538 967 q 557 953 550 957 m 421 993 q 414 989 419 988 q 413 997 407 992 q 421 993 421 1006 m 472 904 q 469 897 472 904 q 461 903 461 896 q 465 907 461 907 q 472 904 469 908 m 438 914 q 432 907 438 908 q 428 915 428 908 q 438 914 433 921 m 413 904 q 410 897 413 904 q 401 903 403 896 q 407 908 403 907 q 413 904 411 910 m 396 879 q 390 872 394 875 q 385 878 388 872 q 389 883 383 883 q 396 879 396 885 m 549 913 q 540 897 549 906 q 476 921 518 901 q 426 936 442 936 q 397 924 408 936 q 368 892 383 918 q 332 867 353 865 q 299 829 314 856 q 271 789 281 797 q 257 669 254 758 q 186 579 260 618 q 174 579 176 578 q 165 604 160 585 q 179 658 192 628 q 168 679 171 665 q 168 704 167 688 q 169 728 171 722 q 196 786 181 746 q 214 802 204 793 q 222 821 224 811 q 206 849 219 840 q 186 844 200 853 q 169 818 178 839 q 147 790 161 797 l 140 790 q 142 893 140 825 q 134 926 138 904 q 126 960 131 949 q 149 993 124 979 l 153 994 q 310 988 206 994 q 368 983 329 988 q 419 972 397 972 q 453 981 439 972 q 479 982 465 982 q 507 981 494 982 q 511 943 506 967 q 528 921 519 926 q 549 913 536 921 m 108 997 q 106 989 108 994 q 99 992 100 989 q 103 1000 97 1000 q 108 997 104 1000 m 86 1014 q 83 1007 88 1010 q 75 1011 76 1007 q 79 1017 75 1017 q 86 1014 85 1018 m 206 826 q 204 811 208 821 q 190 808 196 804 q 186 825 181 815 q 194 832 188 828 q 206 826 199 833 m 400 564 q 396 558 400 564 q 389 564 390 558 q 393 569 389 567 q 400 564 399 571 m 372 576 q 368 568 372 569 q 361 571 365 569 q 364 579 361 575 q 372 576 369 581 m 168 778 q 164 769 169 769 q 158 775 160 771 q 163 781 158 779 q 168 778 167 781 m 286 633 q 283 626 286 629 q 275 629 279 626 q 278 636 274 635 q 286 633 285 636 m 151 742 q 149 733 151 739 q 142 736 144 733 q 146 744 140 744 q 151 742 149 744 m 313 561 q 306 544 315 551 q 300 543 304 543 q 296 544 297 543 q 290 563 285 551 q 301 569 293 569 q 313 561 310 568 m 147 701 q 142 693 149 693 q 139 704 133 693 q 147 701 142 704 m 286 526 q 283 521 286 524 q 275 525 275 519 q 279 531 274 531 q 286 526 286 532 m 343 583 q 340 575 344 578 q 294 585 311 589 q 258 532 265 563 q 260 507 258 524 q 261 483 261 490 q 242 446 261 456 q 219 443 229 439 q 201 471 203 450 q 227 526 199 494 q 258 572 256 557 q 313 603 292 607 q 343 583 324 596 m 163 639 q 156 628 163 635 q 144 626 156 628 q 139 644 133 633 q 153 650 143 653 q 163 639 163 649 m 219 426 q 215 418 221 418 q 210 421 213 418 q 213 429 210 424 q 219 426 217 429 m 161 517 q 157 467 175 490 q 122 450 140 450 q 81 478 93 451 q 88 524 72 500 q 135 539 108 546 q 161 517 153 533 m 207 396 q 204 389 206 389 q 197 392 197 390 q 200 399 196 396 q 207 396 207 397 m 193 364 q 190 356 193 361 q 183 358 185 354 q 188 367 182 367 q 193 364 189 367 m 122 425 q 114 417 121 419 q 113 425 113 418 q 117 426 114 426 q 122 425 119 426 m 131 393 q 128 385 131 390 q 121 388 122 385 q 124 396 121 394 q 131 393 128 397 m 181 329 q 178 322 182 324 q 169 325 171 322 q 172 332 169 329 q 181 329 176 332 m 133 369 q 131 363 133 365 q 122 367 122 361 q 126 372 122 369 q 133 369 131 374 m 132 336 q 129 328 132 329 q 122 331 124 326 q 125 339 122 333 q 132 336 129 339 m 347 910 q 329 918 340 925 q 322 903 321 913 q 339 893 325 889 q 347 910 350 899 m 228 961 q 203 979 219 975 q 156 963 174 986 q 151 914 138 940 q 192 889 165 888 q 226 907 215 892 q 228 961 244 932 m 240 781 q 232 786 238 788 q 229 776 231 785 q 236 774 232 772 q 240 781 236 774 m 225 743 q 214 753 222 753 q 206 740 203 747 q 215 733 206 738 q 225 743 224 735 m 219 700 q 197 708 213 715 q 188 689 186 703 q 210 678 193 674 q 219 700 221 682 m 215 640 q 207 643 214 643 q 204 636 203 642 q 213 633 206 633 q 215 640 215 636 m 210 618 q 204 621 206 621 q 200 615 201 619 q 206 610 201 611 q 210 618 210 610 m 192 601 q 185 606 188 603 q 183 597 179 603 l 188 596 q 192 601 192 599 m 242 461 q 242 474 250 471 l 231 468 q 222 474 229 468 q 214 472 217 476 q 224 457 215 461 q 242 461 233 453 m 150 478 q 153 494 153 486 q 150 511 153 503 q 110 525 132 538 q 92 486 89 514 q 122 461 99 464 q 150 478 143 465 m 203 961 q 194 944 206 949 q 179 951 185 942 q 182 964 179 958 q 193 968 185 969 q 203 961 200 967 m 218 921 q 188 903 213 907 q 165 919 172 904 q 160 940 157 933 q 176 929 160 940 q 206 929 186 924 l 218 939 q 218 921 224 938 m 128 511 q 124 503 129 508 q 115 508 118 500 q 119 514 114 513 q 128 511 125 517 m 143 489 q 126 471 139 475 q 103 483 114 467 q 101 494 101 485 q 104 497 103 497 q 113 492 107 497 q 122 488 118 488 q 131 490 125 486 q 139 494 138 494 q 143 489 142 493 z "},"F":{"ha":708,"x_min":-40,"x_max":728,"o":"m 724 881 q 696 807 701 864 q 678 765 671 788 q 667 743 681 756 q 634 715 651 740 q 599 688 617 690 q 579 685 589 685 q 513 713 539 685 q 508 740 506 733 q 521 747 510 744 q 538 724 529 736 q 561 713 547 711 q 585 729 579 714 q 576 768 592 753 q 496 788 561 783 q 453 769 479 785 q 422 714 422 740 q 424 701 422 708 q 454 665 426 679 q 496 638 488 647 q 549 619 532 628 q 593 586 576 607 q 597 571 597 579 q 591 547 597 563 q 585 521 585 531 q 589 500 585 514 q 593 476 593 486 q 543 382 593 438 q 507 379 532 372 q 497 389 497 389 q 528 407 510 392 q 526 421 529 410 q 465 451 499 451 q 446 447 456 451 q 413 431 429 439 q 392 400 393 418 q 389 378 389 389 q 418 294 389 346 q 433 201 433 260 q 415 82 433 138 q 414 44 411 68 q 417 6 418 14 q 421 -62 432 -19 q 399 -85 414 -74 q 375 -103 379 -97 q 360 -106 367 -106 q 326 -93 346 -106 q 293 -75 300 -78 q 256 -56 279 -62 q 215 -44 219 -47 q 69 -54 125 -28 q 13 -31 42 -58 q -36 26 3 -22 q -40 58 -40 43 q -24 119 -40 86 q 6 176 -10 149 q 8 246 6 204 q 0 353 8 246 q -4 390 -4 369 q 8 493 -4 374 q 22 553 15 510 q 39 611 29 592 q 50 686 49 638 q 57 763 53 743 l 56 765 q 57 806 54 779 q 60 847 60 838 q 42 903 60 883 q 19 932 22 929 q -8 956 6 949 q -24 997 -25 969 q -18 1043 -21 1021 q 32 1094 -11 1074 q 86 1099 57 1099 q 165 1093 113 1099 q 244 1088 217 1088 q 307 1085 258 1088 q 369 1085 346 1083 q 429 1094 403 1086 q 547 1110 550 1110 q 599 1110 574 1113 q 669 1094 632 1106 q 708 1065 683 1088 q 699 1043 707 1057 q 692 1021 692 1029 q 693 1011 692 1015 q 706 994 694 1007 q 715 974 717 982 q 699 950 707 967 q 714 922 700 940 q 728 894 728 904 q 724 881 728 888 m 679 886 q 669 913 685 901 q 643 933 643 933 q 633 951 633 942 q 642 976 633 960 q 651 1000 651 992 q 654 1021 658 1013 q 639 1029 650 1029 q 578 1044 615 1042 q 511 1044 544 1044 l 438 1032 q 325 1019 390 1019 q 188 1028 283 1019 q 81 1036 151 1032 q 56 1034 68 1035 q 39 1022 43 1033 q 36 1011 36 1017 q 56 983 36 999 q 79 960 75 968 q 106 914 92 938 q 121 863 121 886 q 113 693 121 804 q 96 592 115 653 q 74 493 76 524 q 57 407 57 458 q 71 278 57 407 q 68 196 69 275 q 43 100 67 129 q 33 82 43 100 q 28 61 26 69 q 60 36 40 36 q 88 42 69 36 q 114 49 106 49 q 169 47 132 47 q 185 49 176 49 q 219 44 197 49 q 254 39 242 39 q 271 40 263 39 q 300 54 293 49 q 319 86 315 65 q 324 243 325 146 q 292 353 297 303 q 294 406 293 379 q 313 454 297 438 q 350 504 332 479 q 404 532 376 532 q 519 476 474 532 q 543 486 535 469 q 538 530 540 507 q 522 565 536 553 q 431 597 493 578 q 354 651 403 611 q 318 729 318 708 q 322 750 318 740 q 376 840 338 782 q 469 878 408 851 q 489 882 479 882 q 553 842 507 882 q 588 823 569 833 q 624 815 607 813 q 653 849 639 826 q 679 886 671 878 m 614 983 q 610 975 614 975 q 604 978 607 975 q 606 986 603 981 q 614 983 611 986 m 592 999 q 586 990 594 993 q 582 994 583 990 q 583 1001 581 999 q 592 999 588 1001 m 600 949 q 597 942 601 944 q 590 944 593 942 q 594 951 590 951 q 600 949 597 953 m 535 931 q 522 921 532 925 q 506 932 513 921 q 514 950 503 940 q 535 943 526 957 q 535 931 539 938 m 526 904 q 524 899 526 901 q 515 901 517 899 q 521 907 514 907 q 526 904 525 907 m 496 915 q 492 910 496 914 q 485 913 488 910 q 488 921 485 915 q 496 915 493 921 m 324 988 q 318 979 322 979 q 311 985 314 979 q 317 992 311 988 q 324 988 317 992 m 365 889 q 364 881 365 889 q 351 879 363 874 q 351 890 350 888 q 365 889 360 903 m 215 986 q 211 976 217 981 q 201 982 203 974 q 207 990 201 989 q 215 986 211 990 m 336 856 q 332 843 336 851 q 321 847 324 843 q 326 860 319 858 q 336 856 332 861 m 290 763 q 285 751 289 764 q 275 757 278 750 q 281 769 274 767 q 290 763 286 771 m 503 544 q 496 536 504 538 q 490 540 497 536 q 494 547 490 546 q 503 544 500 549 m 158 883 q 150 878 158 875 q 149 888 149 888 q 153 889 151 889 q 156 886 156 889 q 158 883 157 883 m 522 508 q 519 501 522 510 q 511 507 511 500 q 515 513 511 510 q 522 508 515 513 m 469 557 q 464 550 468 554 q 458 554 463 550 q 463 563 457 561 q 469 557 468 564 m 165 857 q 163 850 165 858 q 156 853 158 850 q 158 863 156 857 q 165 857 164 864 m 293 731 q 292 721 294 725 q 281 719 289 713 q 279 732 275 725 q 293 731 288 743 m 614 894 q 593 868 614 878 q 569 869 585 863 q 544 921 539 896 q 557 947 554 935 q 544 968 556 957 q 513 968 544 968 q 478 935 496 967 q 438 913 461 908 q 339 901 379 929 q 294 842 313 886 q 257 776 275 792 q 256 756 256 765 q 288 686 256 717 q 272 639 289 669 q 200 600 272 639 q 181 540 181 575 q 213 436 181 493 q 219 382 219 407 q 182 297 219 324 q 171 296 176 296 q 124 321 144 296 q 121 363 124 338 q 115 403 115 393 q 111 422 111 413 q 121 456 111 436 q 138 488 129 471 q 136 525 139 497 q 136 565 135 551 q 150 599 139 586 q 158 628 150 608 q 164 660 165 647 q 160 744 181 708 l 161 799 q 181 860 181 828 q 167 901 181 885 q 131 954 153 918 q 128 979 126 963 q 176 986 151 999 q 190 968 178 986 q 208 957 197 957 q 236 972 215 960 q 267 982 253 983 q 292 974 278 983 q 315 964 307 964 q 390 982 371 982 q 411 981 400 982 q 431 972 419 972 q 476 989 428 972 q 551 997 525 1006 l 560 993 q 578 933 586 963 q 614 894 614 910 m 157 831 q 154 822 157 831 q 149 825 153 822 q 151 833 149 829 q 157 831 154 835 m 321 631 q 317 624 321 631 q 306 626 311 622 q 306 635 301 629 q 314 638 308 639 q 321 631 319 636 m 329 536 q 311 525 317 525 q 300 531 306 525 q 311 557 318 542 q 308 567 304 563 q 329 556 321 569 q 331 546 331 551 q 329 536 331 540 m 156 711 q 153 703 156 704 q 147 706 151 701 q 150 714 147 713 q 156 711 153 715 m 381 579 q 376 569 382 574 q 367 573 371 567 q 360 579 363 579 q 289 574 329 597 q 274 542 274 558 q 285 519 274 533 q 293 493 296 504 q 264 475 281 475 q 232 488 247 475 q 224 510 224 496 q 235 553 224 508 q 317 607 268 603 q 351 599 333 611 q 381 579 381 579 m 153 671 q 150 664 154 665 q 143 669 146 661 q 149 675 142 674 q 153 671 150 672 m 275 429 q 264 414 275 419 q 239 422 243 414 q 240 440 235 435 q 247 436 243 440 q 253 431 251 432 q 275 429 263 436 m 271 368 q 244 358 264 351 q 235 372 238 364 q 240 379 235 376 q 261 375 253 367 q 271 379 265 381 q 272 374 272 376 q 271 368 272 369 m 125 503 q 119 492 126 493 q 108 499 113 489 q 114 508 108 504 q 125 503 124 510 m 257 326 q 251 319 257 322 q 246 325 247 321 q 251 332 244 331 q 257 326 257 332 m 113 474 q 107 463 114 464 q 96 468 97 461 q 103 479 93 474 q 113 474 108 478 m 100 439 q 94 425 101 432 q 85 431 86 424 q 89 442 83 439 q 100 439 97 443 m 239 289 q 231 288 236 282 q 229 294 231 290 q 238 297 232 299 q 239 289 242 294 m 103 403 q 99 390 103 399 q 88 394 90 390 q 93 407 86 406 q 103 403 99 408 m 215 275 q 213 267 215 271 q 206 269 207 265 q 210 278 204 278 q 215 275 211 278 m 597 889 q 597 899 600 893 q 586 894 590 900 q 574 897 581 892 q 565 901 568 901 q 564 896 564 899 q 565 890 564 892 q 582 881 568 882 q 597 889 590 881 m 396 944 q 388 947 393 949 q 386 939 386 946 q 393 936 388 936 q 396 944 394 938 m 351 936 q 343 942 350 942 q 339 932 339 942 q 347 929 340 929 q 351 936 347 929 m 318 925 q 313 931 319 931 q 307 925 306 931 q 313 919 308 921 q 318 925 315 921 m 283 913 q 243 936 271 936 q 208 919 221 936 q 200 882 196 903 q 231 847 204 854 q 278 863 260 840 q 283 913 290 876 m 175 960 q 154 974 174 979 q 146 954 149 969 q 164 942 151 939 q 175 960 178 951 m 236 803 q 236 817 240 808 q 219 825 231 828 q 210 810 208 818 q 218 796 211 804 q 236 803 231 794 m 207 768 q 193 775 203 776 q 189 763 188 769 q 201 757 189 757 q 207 768 206 761 m 228 742 q 219 744 226 744 q 217 735 218 744 q 225 732 218 733 q 228 742 226 733 m 265 676 q 260 679 263 679 q 236 669 258 676 q 243 657 235 663 q 256 657 250 653 q 265 676 269 664 m 229 694 q 216 696 226 700 q 201 697 206 692 q 199 688 200 697 q 218 676 208 672 q 229 694 229 682 m 228 647 q 218 646 225 656 q 208 644 215 643 q 197 643 200 646 q 200 635 197 643 q 217 628 203 626 q 228 647 232 633 m 272 499 q 275 504 275 501 q 272 510 275 508 q 265 508 269 510 q 258 506 261 506 q 250 510 254 508 q 243 507 244 513 q 251 493 244 500 q 272 499 267 488 m 174 457 q 160 464 168 465 q 154 450 154 461 q 167 446 160 444 q 174 457 174 451 m 194 410 q 156 425 174 433 q 135 393 136 417 q 154 361 133 371 q 193 374 176 354 q 194 410 204 390 m 204 349 q 194 354 203 356 q 188 346 188 351 q 190 340 188 344 q 199 338 192 336 q 204 349 204 343 m 181 325 q 165 326 174 338 q 168 313 161 315 q 181 315 174 311 q 181 325 182 322 m 156 339 q 143 346 156 346 q 139 336 138 342 q 151 329 140 329 q 156 339 157 335 m 272 904 q 270 878 276 889 q 246 860 264 867 q 214 882 219 863 q 214 907 210 900 q 238 924 218 914 q 272 904 261 926 m 164 957 q 161 953 164 958 q 154 956 157 953 q 157 963 154 961 q 164 957 163 964 m 174 408 q 167 400 172 401 q 157 406 160 399 q 161 415 156 411 q 174 408 174 418 m 186 392 q 182 380 189 388 q 165 371 175 372 q 146 386 157 369 q 149 393 146 389 q 179 390 157 383 q 186 392 181 390 m 249 908 q 242 911 246 913 q 236 906 238 910 q 246 901 236 901 q 249 908 250 904 m 263 893 q 258 899 263 896 q 249 888 257 893 q 243 885 246 885 q 233 890 239 885 q 224 896 226 896 q 233 877 221 883 q 251 875 244 871 q 263 893 263 879 z "},"G":{"ha":914,"x_min":-22,"x_max":1006,"o":"m 1003 490 q 1001 462 1006 472 q 989 451 996 451 q 973 460 985 451 q 954 469 961 469 q 915 457 933 472 q 902 434 907 449 q 893 407 897 419 q 824 260 874 376 q 738 121 783 168 q 646 56 704 86 q 544 8 596 32 q 483 1 522 0 q 419 0 431 1 q 278 49 382 6 q 218 90 258 65 q 161 142 193 107 q 108 196 119 185 q 14 371 38 290 q -12 657 -22 493 q 8 764 -1 710 q 47 864 22 824 q 149 999 83 938 q 289 1086 214 1060 q 464 1111 360 1111 q 604 1101 528 1111 q 742 1025 672 1093 l 754 1010 q 811 804 793 935 q 885 747 836 750 q 881 717 894 732 q 838 692 867 703 q 792 674 801 679 q 675 651 686 651 q 628 661 649 651 q 518 700 597 664 q 497 716 508 703 q 482 732 486 729 q 444 740 464 740 q 363 718 410 740 q 317 638 326 701 q 304 514 297 581 q 368 369 296 433 q 517 314 453 314 q 549 317 533 314 q 596 367 594 336 q 565 418 592 406 q 528 417 550 429 q 518 390 515 403 q 529 365 518 381 q 526 357 529 360 q 442 376 468 361 q 389 453 411 393 q 399 490 388 464 q 402 558 400 522 q 425 611 404 593 q 456 646 440 628 q 492 663 472 664 q 546 653 514 663 q 599 639 589 640 q 761 601 654 629 q 792 599 772 603 q 821 596 813 596 q 839 599 831 596 q 886 593 871 596 q 926 574 911 588 q 1003 490 988 526 m 860 501 q 849 518 858 513 q 829 529 839 524 q 729 540 794 531 q 664 558 707 546 q 588 574 636 560 q 515 590 540 588 q 468 558 481 585 q 461 513 469 543 q 453 468 453 482 q 463 433 453 447 q 478 418 472 418 q 489 448 481 435 q 522 463 497 461 q 596 467 533 469 q 629 458 622 461 q 657 438 647 450 q 667 368 678 393 q 569 274 653 325 q 511 265 543 265 q 408 289 457 265 q 264 389 303 339 q 235 444 249 417 q 213 502 217 476 q 210 554 210 528 q 236 707 210 626 q 308 794 254 760 q 418 828 361 828 q 528 783 485 828 q 564 756 536 765 q 606 738 597 744 q 657 726 629 726 q 744 751 704 726 l 746 756 q 731 799 736 771 q 719 842 722 835 q 692 905 707 872 q 657 960 676 938 q 614 1007 653 989 q 568 1028 606 1010 q 519 1040 540 1040 l 510 1043 q 351 1035 393 1046 q 161 919 254 1017 q 68 738 83 810 q 50 579 50 661 q 94 342 50 443 q 133 271 114 307 q 188 210 158 232 q 376 89 244 133 q 421 85 390 89 q 468 81 451 81 q 504 85 488 81 q 585 107 532 90 q 675 193 654 154 q 733 297 704 246 q 778 407 765 358 q 787 438 782 422 q 808 460 792 454 q 840 476 824 467 q 860 501 857 486 m 682 800 q 653 781 675 779 q 613 821 618 781 q 613 861 613 824 q 604 900 613 888 q 581 940 592 919 q 542 964 564 963 q 540 972 540 965 q 554 981 543 979 q 577 969 564 981 q 597 956 590 958 q 632 894 614 925 q 676 836 653 857 q 682 800 686 811 m 594 832 q 578 824 590 824 q 565 831 568 822 q 551 842 561 840 q 532 847 542 844 q 516 837 526 846 q 497 829 506 828 q 468 849 474 833 q 456 861 468 858 q 435 865 439 863 q 421 861 432 865 q 407 861 413 858 q 393 876 397 867 q 407 901 394 896 q 425 897 408 903 q 443 874 426 886 q 453 871 446 874 q 464 869 460 868 q 471 901 476 889 q 456 912 469 907 q 444 928 443 917 q 453 944 444 933 q 478 938 469 951 q 483 904 475 926 q 525 894 496 893 q 540 913 536 896 q 557 931 544 931 q 574 918 567 931 q 574 904 578 913 q 551 893 569 896 q 529 878 533 890 q 546 856 524 864 q 554 851 550 851 q 566 858 558 851 q 578 865 574 865 q 585 863 582 865 q 594 832 600 850 m 796 496 q 788 476 799 482 q 772 476 779 472 q 764 490 765 483 q 778 507 764 504 q 796 496 790 507 m 729 397 q 721 365 724 372 q 706 338 715 349 q 697 342 697 338 q 704 429 713 389 q 676 475 697 454 q 629 500 654 496 q 510 500 594 510 q 494 499 510 500 q 499 536 490 519 q 538 556 521 561 q 633 518 568 538 q 726 443 714 496 q 729 397 736 406 m 690 310 q 682 293 693 297 q 668 300 672 290 q 668 311 665 301 q 678 318 671 315 q 690 310 689 317 m 226 764 q 221 743 228 754 q 194 739 206 731 q 183 758 183 747 q 194 779 183 769 q 226 764 222 789 m 504 975 q 496 971 503 969 q 483 972 486 974 q 368 907 431 969 q 357 875 363 901 q 336 853 353 854 q 281 826 310 850 q 233 785 257 806 q 217 791 228 785 q 199 797 206 797 q 180 783 185 797 q 169 757 175 769 q 183 731 167 740 q 196 722 189 731 q 179 647 188 699 q 172 474 172 621 q 236 364 199 407 q 238 353 238 358 q 235 343 238 349 q 219 332 233 338 q 183 356 196 332 q 160 403 169 381 q 150 468 154 415 q 125 528 147 511 q 117 521 118 526 q 124 485 115 504 q 139 451 138 451 q 128 428 140 433 q 108 439 115 425 q 99 507 101 465 q 94 578 94 576 q 94 628 94 594 q 106 706 96 654 q 151 828 111 747 q 215 914 168 860 q 369 993 303 985 q 493 992 419 1010 q 504 975 506 986 m 664 274 q 657 264 663 269 q 650 269 653 263 q 656 278 651 278 q 664 274 658 278 m 350 242 q 349 232 351 239 q 339 231 339 231 q 336 244 331 235 q 350 242 344 256 m 318 268 q 310 253 319 256 q 297 257 304 249 q 293 271 289 265 q 307 279 296 281 q 318 268 317 278 m 275 307 q 274 289 278 303 q 251 282 263 275 q 240 300 239 288 q 253 317 240 310 q 275 307 271 319 m 132 400 q 125 388 135 393 q 115 397 115 390 q 121 406 115 400 q 132 400 131 407 m 146 367 q 139 354 147 361 q 128 364 128 357 q 136 372 128 371 q 146 367 143 374 m 169 332 q 163 325 167 324 q 153 329 157 324 q 157 340 151 336 q 169 332 167 343 m 668 804 q 668 829 674 813 q 644 842 661 842 q 631 832 636 839 q 629 808 625 825 q 647 794 632 801 q 668 804 663 797 m 560 913 q 554 917 557 914 q 547 908 546 914 q 554 904 550 907 q 560 913 561 906 m 582 835 q 567 846 574 844 l 565 838 q 571 833 567 836 q 582 835 579 829 m 469 925 q 463 929 468 931 q 460 919 460 928 q 465 917 464 917 q 469 925 467 919 m 518 854 q 517 876 521 869 q 493 888 511 889 q 476 871 482 886 q 482 847 471 857 q 501 839 493 838 q 518 854 508 843 m 424 879 q 408 872 408 886 q 418 869 415 869 q 424 879 425 872 m 279 865 q 269 892 278 882 q 242 896 261 901 q 224 865 224 888 q 238 844 229 849 q 264 842 246 839 q 279 865 276 850 m 543 535 q 525 544 538 547 q 511 535 514 542 q 511 521 507 528 q 528 513 517 514 q 542 521 539 513 q 543 535 543 522 m 217 751 q 214 768 219 758 q 196 775 204 776 q 190 758 189 765 q 196 746 190 754 q 217 751 210 740 m 157 701 q 136 710 151 713 q 126 694 136 710 q 133 681 128 689 q 154 683 150 678 q 157 701 161 694 m 144 657 q 132 661 140 661 q 128 649 128 657 q 140 644 131 644 q 144 657 144 647 m 140 617 q 131 624 139 625 q 125 614 125 615 q 133 608 126 607 q 140 617 142 610 m 129 449 q 125 450 129 450 q 117 443 117 443 q 125 440 118 440 q 129 449 131 440 m 226 361 q 222 367 225 367 q 211 356 221 367 q 204 356 211 354 q 199 350 201 353 q 218 343 200 343 q 226 361 229 349 m 660 817 q 651 803 663 811 q 638 810 642 801 l 638 815 q 658 818 644 814 l 660 817 m 504 875 q 500 867 506 867 q 494 869 499 867 q 497 878 494 874 q 504 875 497 878 m 507 856 q 503 849 507 856 q 487 851 496 844 q 483 865 478 858 q 507 856 499 853 m 265 861 q 251 853 264 856 q 236 867 239 854 q 244 882 239 878 q 263 879 251 886 q 265 861 269 868 m 535 529 q 529 522 535 526 q 521 526 521 521 q 526 536 518 535 q 535 529 535 535 z "},"H":{"ha":836,"x_min":-72,"x_max":844,"o":"m 844 1067 q 843 949 843 1008 q 810 843 838 882 q 795 809 807 833 q 783 769 783 785 q 785 756 783 763 q 838 650 803 721 q 840 581 843 633 q 796 471 840 581 q 771 351 769 404 q 772 286 769 324 q 779 224 779 225 q 778 200 779 224 q 761 92 789 139 l 683 4 q 636 -1 657 -12 q 557 40 611 17 q 521 28 544 39 q 485 18 497 18 q 458 29 471 18 q 411 111 442 57 q 408 144 408 128 q 423 229 408 174 q 438 317 438 285 q 435 429 446 344 q 401 453 424 438 q 393 449 399 454 q 372 375 374 425 q 372 294 372 335 q 343 226 371 274 q 225 49 301 168 q 193 -18 193 24 q 217 -75 193 -60 q 235 -79 224 -75 q 213 -110 229 -106 q 181 -104 213 -110 q 125 -51 149 -92 q 88 19 106 -17 q 47 133 71 56 q 40 148 42 138 q 38 168 39 158 q 35 268 31 235 q 36 376 36 257 q 40 461 36 393 q 42 546 44 513 q -11 843 -12 665 q -61 1053 -10 956 q -56 1119 -72 1096 q -14 1128 -47 1132 q 69 1110 14 1121 q 236 1096 126 1107 q 278 1088 240 1093 q 310 1061 303 1082 q 319 988 317 1036 q 325 911 321 932 l 342 833 q 471 714 385 775 q 482 724 474 713 q 490 783 490 751 q 463 924 490 833 q 439 967 460 935 q 422 1013 422 993 q 424 1028 422 1019 q 447 1074 435 1050 q 479 1104 460 1097 q 569 1096 518 1096 q 665 1100 596 1096 q 763 1101 728 1103 q 786 1099 774 1100 q 807 1104 800 1097 q 833 1097 825 1104 q 844 1067 842 1089 m 757 1032 l 753 1038 q 625 1033 689 1036 q 499 1035 549 1031 q 486 1007 486 1014 q 539 886 522 950 l 551 794 q 543 717 550 754 q 493 619 519 653 q 468 613 481 613 q 425 629 450 613 q 386 657 406 643 q 342 690 369 664 q 300 722 314 715 q 253 824 258 743 q 221 994 251 865 q 211 1033 221 1010 q 143 1039 189 1038 q 75 1044 97 1040 q 36 1043 61 1047 q 28 1030 35 1039 q 21 1015 21 1021 q 50 776 51 938 q 68 658 50 722 q 103 550 85 604 q 99 408 104 503 q 94 267 93 314 q 107 154 89 231 q 147 49 117 118 q 168 100 153 65 q 250 292 183 147 q 264 324 250 297 q 279 397 275 342 q 302 465 282 446 q 345 506 322 485 q 390 526 368 526 q 404 525 397 526 q 465 490 435 507 q 496 429 499 467 q 503 367 503 401 q 482 203 503 363 q 476 180 482 196 q 471 156 471 164 q 475 139 471 147 q 494 111 478 125 l 542 129 q 557 131 549 131 q 624 106 581 131 q 650 90 649 90 q 685 136 663 106 l 683 203 q 682 281 686 229 q 688 436 681 332 q 708 519 689 471 q 738 600 733 579 q 728 656 740 624 q 704 710 717 683 q 703 806 697 731 q 756 926 725 844 q 757 1032 753 961 m 719 978 q 703 914 719 950 q 675 853 678 861 q 640 781 665 806 q 633 735 636 776 q 611 715 632 715 q 592 731 594 719 q 589 746 589 738 q 606 792 589 763 q 624 836 624 821 q 613 865 624 850 q 585 856 604 858 q 588 892 585 857 q 581 925 589 913 q 556 989 568 944 q 603 985 571 997 q 703 993 657 971 q 719 978 710 994 m 699 640 q 690 551 719 592 q 624 517 665 517 q 566 542 589 517 q 543 603 543 568 q 576 674 543 647 q 624 690 594 690 q 668 678 649 690 q 699 640 682 668 m 667 478 q 656 469 664 472 q 640 478 649 468 q 640 493 636 485 q 650 501 642 496 q 667 493 654 503 q 667 478 669 485 m 660 438 q 657 401 660 425 q 646 408 647 400 q 646 426 646 408 q 653 442 644 438 q 660 438 653 442 m 621 464 q 607 454 615 456 q 593 465 596 456 q 601 486 590 481 q 621 478 615 489 q 621 464 625 469 m 522 563 q 521 543 524 557 q 496 536 510 531 q 485 553 485 543 q 494 572 486 561 q 522 563 511 585 m 565 483 q 551 475 561 476 q 538 485 543 475 q 546 506 536 500 q 565 499 561 506 q 565 483 569 490 m 104 988 q 101 963 107 978 q 82 953 96 954 q 61 967 72 951 q 62 989 57 983 q 76 1001 67 994 q 104 988 92 1007 m 458 588 q 456 569 460 583 q 432 561 451 556 q 422 578 422 569 q 433 597 422 592 q 458 588 449 606 m 615 346 q 603 343 613 338 l 600 347 l 601 419 q 615 418 611 433 l 615 346 m 389 622 q 386 594 396 610 q 365 592 378 586 q 354 608 354 599 q 369 631 354 624 q 389 622 381 633 m 561 438 q 560 310 561 393 q 549 310 557 310 l 544 315 q 546 376 547 335 q 546 439 544 418 q 554 444 547 444 q 561 438 561 443 m 178 785 q 166 778 175 781 q 156 769 157 775 q 150 774 154 768 q 160 792 149 786 q 178 785 172 793 m 188 763 q 185 751 189 763 q 169 744 181 739 q 163 754 165 744 q 174 771 163 768 q 188 763 181 772 m 326 565 q 288 536 321 558 q 256 497 261 518 q 240 471 250 475 q 221 481 228 467 q 226 538 217 503 q 236 589 236 574 q 231 619 236 604 q 207 674 226 644 q 172 724 189 699 q 184 732 174 729 q 196 743 194 735 q 200 749 196 747 q 208 747 204 749 q 260 699 219 740 q 315 661 290 668 q 322 647 322 654 q 317 630 322 642 q 313 611 313 618 q 322 591 313 606 q 326 565 332 576 m 217 815 q 196 814 211 810 q 175 844 190 818 q 146 864 163 865 q 122 803 122 846 q 124 770 122 792 q 125 738 125 749 q 157 658 142 699 q 174 574 174 611 q 169 518 174 556 q 165 461 165 481 q 176 401 165 428 q 194 353 194 358 q 186 331 194 340 q 151 322 171 317 q 135 347 140 324 q 139 506 147 458 q 142 614 147 594 q 107 683 125 649 q 86 757 88 724 q 81 897 89 804 q 88 931 79 911 q 121 958 111 933 q 119 996 121 957 q 136 1001 125 1003 q 154 999 150 997 q 176 997 171 997 q 181 989 182 996 q 183 981 181 982 q 192 957 190 974 q 194 932 194 935 q 217 815 203 908 m 681 951 q 664 960 675 960 q 647 956 658 960 q 631 953 635 953 q 606 958 614 947 q 597 958 601 961 q 593 951 592 957 q 601 932 593 950 q 644 935 613 921 q 650 925 649 931 q 639 879 636 900 q 653 872 647 871 q 668 896 671 886 q 667 907 667 901 q 674 929 667 915 q 681 951 681 943 m 682 585 q 674 640 688 617 q 615 668 647 674 q 565 625 576 661 q 572 568 557 597 q 626 539 594 538 q 682 585 669 540 m 613 471 q 606 475 610 472 q 600 468 599 475 q 608 461 601 463 q 613 471 614 463 m 510 554 q 501 563 510 561 q 496 549 494 561 q 506 546 496 547 q 510 554 510 550 m 156 915 q 146 926 150 928 q 136 904 144 918 q 111 901 135 903 q 124 888 113 892 q 143 888 135 883 q 156 915 158 899 m 208 838 q 189 835 193 839 q 201 828 193 825 q 208 838 207 829 m 378 611 q 369 617 375 615 q 363 606 365 614 q 372 601 367 600 q 378 611 375 604 m 304 643 q 294 638 299 643 q 275 650 286 635 q 272 638 275 646 q 293 626 281 622 q 304 643 307 631 m 224 708 q 211 717 222 719 q 206 704 204 714 q 215 697 207 701 q 224 708 224 701 m 253 674 q 240 682 249 685 q 235 669 233 679 q 243 663 236 665 q 253 674 251 665 m 313 569 q 311 582 317 579 l 303 574 q 292 572 297 568 q 281 579 286 576 q 279 569 281 579 q 296 558 286 557 q 313 569 306 557 m 265 611 q 253 617 264 615 q 249 607 251 613 q 261 600 249 599 q 265 611 267 603 m 267 547 q 257 557 267 557 q 250 546 253 556 q 254 539 250 543 q 265 542 260 535 q 267 547 267 543 m 246 496 q 235 504 244 504 q 229 490 228 497 q 240 485 231 483 q 246 496 242 489 m 664 626 q 660 578 675 600 q 628 563 643 561 q 646 583 635 569 q 649 618 651 606 q 619 649 644 629 q 631 650 624 650 q 640 649 636 650 q 664 626 657 640 m 612 606 q 611 602 612 606 q 599 597 610 599 q 583 606 588 600 q 583 625 579 617 q 599 633 588 635 q 611 626 608 633 q 614 617 614 619 q 612 606 614 613 m 607 579 q 601 568 608 569 q 593 574 594 565 q 596 583 592 579 q 607 579 604 585 z "},"I":{"ha":496,"x_min":-24,"x_max":478,"o":"m 475 593 q 460 474 475 551 q 432 361 449 413 q 385 207 415 310 q 332 86 385 206 q 286 31 290 33 q 225 0 256 0 q 206 3 215 0 q 169 49 174 11 q 167 115 168 82 q 165 134 167 121 q 164 153 164 147 q 151 213 163 175 q 139 272 139 251 q 113 353 135 300 q 88 424 104 376 q 66 547 75 463 q 44 669 57 631 q -10 865 22 732 q 14 1007 -24 963 q 65 1054 28 1026 q 103 1064 82 1064 q 176 1044 133 1064 q 192 1040 183 1040 q 222 1055 203 1040 q 249 1072 240 1069 q 332 1111 296 1111 q 356 1108 344 1111 l 392 1106 q 424 1076 413 1099 q 446 1033 435 1054 q 472 847 468 976 q 475 593 478 724 m 408 763 q 404 901 406 832 q 374 1031 399 981 q 354 1040 368 1039 q 328 1042 340 1040 q 308 1033 319 1042 q 293 1019 293 1019 q 233 975 278 1014 q 168 947 197 944 q 89 982 142 961 q 51 929 64 972 q 76 778 51 899 q 140 496 117 700 q 185 356 143 474 q 210 246 196 319 q 235 81 229 190 l 239 81 q 272 121 253 92 q 313 210 282 151 q 378 404 333 275 q 406 538 389 447 q 408 763 411 607 m 367 753 q 371 732 371 742 q 360 694 371 718 q 349 657 349 669 q 357 631 349 643 q 347 607 361 618 q 342 606 344 606 q 328 614 338 606 q 313 618 319 622 q 289 592 290 607 q 301 542 289 574 q 314 494 314 511 q 310 470 314 482 q 303 444 307 458 q 288 429 299 431 q 271 439 275 429 q 274 463 271 438 q 253 541 278 494 q 226 613 228 588 q 239 647 226 613 q 261 679 247 669 q 258 744 267 690 q 221 750 254 750 q 181 711 185 740 q 179 700 179 706 q 181 681 179 693 q 183 664 183 669 q 168 644 183 649 q 160 654 168 644 l 161 656 q 152 698 157 676 q 136 732 147 719 l 135 763 q 115 806 125 783 q 106 850 106 829 q 101 865 103 854 q 99 880 100 875 q 96 896 99 885 q 93 913 93 907 q 100 928 93 922 q 143 906 124 919 q 172 904 158 904 q 250 938 221 904 q 300 979 267 953 q 339 985 328 989 l 347 975 q 367 753 361 925 m 365 566 q 364 564 365 566 q 351 560 363 563 q 339 568 347 560 q 340 583 335 575 q 353 590 344 590 q 365 582 363 590 q 367 575 367 579 q 365 566 367 569 m 371 532 q 357 514 371 518 q 342 524 346 514 q 350 543 339 538 q 371 532 365 549 m 203 608 q 188 586 203 590 q 161 599 172 581 q 160 611 160 601 q 170 609 164 614 q 179 604 176 604 q 185 609 182 606 q 196 621 189 613 q 203 608 196 621 m 240 481 q 217 463 236 465 q 193 481 200 465 q 194 503 189 496 q 211 517 199 511 q 233 511 225 517 q 240 481 247 497 m 294 372 q 275 369 289 365 q 269 392 264 381 q 276 394 274 394 q 283 388 278 394 q 293 383 288 382 q 294 372 300 381 m 289 319 q 274 311 282 311 q 261 322 263 314 q 269 340 258 336 q 289 333 278 346 q 290 326 290 331 q 289 319 290 322 m 271 282 q 263 261 274 271 q 243 274 247 257 q 251 290 239 285 q 271 282 264 297 m 336 729 q 336 750 336 750 q 322 739 329 744 q 307 735 315 733 q 288 750 301 742 q 290 726 283 740 q 314 714 296 713 q 336 729 328 715 m 197 849 q 175 865 190 863 q 153 851 163 863 q 150 826 146 836 q 172 808 156 814 q 192 815 183 810 q 197 849 206 835 m 226 489 q 215 496 224 497 q 208 483 206 492 q 218 476 208 481 q 226 489 229 478 m 186 838 q 178 817 188 821 q 165 825 174 815 q 167 839 165 825 q 186 838 176 856 z "},"J":{"ha":1022,"x_min":-33,"x_max":1092,"o":"m 1075 231 q 1028 297 1063 253 q 981 367 993 342 q 858 560 971 379 q 829 694 828 607 q 844 751 829 719 q 871 806 857 779 q 932 900 886 839 q 943 901 938 901 q 954 900 950 901 q 972 854 979 883 q 957 842 969 847 q 968 829 957 842 q 994 831 979 824 q 1018 868 1010 838 q 990 949 1018 921 q 876 1056 951 983 q 819 1092 853 1068 q 703 1107 776 1121 q 611 1099 692 1104 q 526 1078 556 1094 q 481 1064 521 1075 q 440 1038 453 1056 q 431 1011 431 1025 q 451 965 431 994 q 474 918 472 935 q 474 792 474 854 q 486 669 475 717 q 508 561 486 667 q 563 357 513 503 q 585 268 574 329 q 540 246 565 239 q 400 321 492 267 q 344 406 357 347 q 332 511 339 458 q 331 556 332 533 q 346 596 332 582 q 383 601 365 610 q 398 584 392 597 q 413 569 404 571 q 432 588 421 574 q 433 599 433 593 q 383 668 433 625 q 329 681 360 681 q 269 663 294 681 q 224 647 250 661 q 179 626 188 629 q 125 592 144 600 q -26 394 22 519 q 4 265 -33 307 q 133 132 46 218 q 308 7 232 46 q 351 0 324 0 q 396 0 396 0 q 532 17 442 4 q 685 13 583 18 q 740 3 711 8 q 793 3 769 -1 q 865 42 817 15 q 1018 113 913 69 q 1067 156 1018 113 q 1075 231 1092 189 m 918 165 q 769 63 872 126 q 675 78 738 67 l 510 76 q 383 61 508 76 q 363 58 372 58 q 310 76 339 58 q 261 106 267 103 q 164 189 228 132 q 122 228 151 196 q 44 313 93 254 q 32 356 32 333 q 51 417 32 382 q 86 472 68 444 q 203 567 132 531 l 232 574 l 235 569 q 229 528 229 551 q 233 484 229 517 q 235 433 236 451 q 239 382 233 415 q 267 325 253 354 q 311 282 283 292 q 554 178 382 222 q 646 213 611 169 q 653 247 656 225 q 646 283 649 265 q 603 428 635 333 q 560 610 578 486 q 546 676 558 633 q 533 813 532 729 q 533 949 535 929 q 536 1003 517 979 q 567 1018 544 1015 q 600 1025 594 1022 q 774 1042 682 1046 q 822 1004 792 1032 q 789 935 810 982 q 756 846 774 907 q 740 724 739 800 q 742 599 742 596 q 771 471 750 515 q 790 424 775 451 q 814 379 810 389 q 864 290 828 349 q 894 233 874 272 q 911 200 897 226 q 918 165 921 181 m 633 943 q 608 951 626 958 q 599 935 600 944 q 608 919 600 922 q 633 926 628 914 q 633 943 638 933 m 621 924 q 606 931 608 922 q 614 947 603 940 q 628 940 625 949 q 621 924 629 926 m 689 913 q 685 906 689 913 q 679 908 683 904 q 682 914 676 914 q 689 913 688 915 m 686 890 q 683 883 688 885 q 676 886 679 882 q 681 893 676 892 q 686 890 683 893 m 767 982 q 747 1001 764 997 q 715 1007 731 1004 q 694 1003 708 1007 q 672 999 681 999 q 583 978 643 993 l 578 972 q 581 946 581 960 q 574 878 581 922 q 568 811 568 835 q 572 769 568 789 q 592 708 572 744 q 618 650 614 665 q 619 585 617 628 q 632 582 622 582 q 650 624 650 596 q 640 671 650 643 q 611 775 611 717 q 621 828 611 828 q 628 819 622 828 q 640 813 635 810 q 656 853 656 825 q 656 872 656 860 q 654 890 654 885 q 663 924 654 911 q 710 947 671 936 q 717 931 718 940 q 690 833 701 893 q 665 754 681 807 q 664 726 665 715 q 676 703 665 710 q 699 710 688 697 q 706 807 718 744 q 714 856 710 832 q 729 903 718 885 q 753 940 732 908 q 767 982 767 964 m 749 976 q 743 967 750 969 q 735 974 735 968 q 740 981 735 979 q 749 976 746 982 m 633 613 q 640 610 639 614 q 638 603 642 607 q 631 604 633 601 q 633 613 631 608 m 629 844 q 614 853 618 846 q 615 861 614 856 q 622 857 618 857 q 630 860 625 857 q 638 863 635 863 q 642 860 640 863 q 629 844 643 846 m 621 892 q 629 889 625 892 q 624 879 632 881 q 617 885 621 879 q 621 892 617 885 m 640 924 q 622 910 633 911 q 601 916 613 907 q 593 944 589 925 q 610 960 597 953 q 642 944 629 965 q 640 924 646 931 m 686 756 q 694 754 690 758 q 694 746 699 750 q 688 744 689 744 q 686 756 683 747 m 689 713 q 674 721 679 710 q 684 722 676 725 q 694 724 692 719 q 697 722 697 722 q 689 713 697 718 m 676 956 q 668 960 671 956 q 672 971 668 968 q 683 965 682 972 q 676 956 682 957 m 714 967 q 706 972 707 968 q 713 981 704 979 q 719 975 715 978 q 714 967 722 971 m 653 785 q 650 776 653 778 q 643 782 646 776 q 653 785 644 792 m 647 751 q 644 743 647 749 q 636 746 642 743 q 640 754 635 753 q 647 751 644 756 m 583 690 q 574 678 585 685 q 560 686 568 679 q 567 701 558 699 q 583 690 582 707 m 700 660 q 692 646 699 654 q 676 653 685 644 q 685 669 674 665 q 700 660 696 674 m 600 647 q 599 631 600 649 q 578 626 593 622 q 572 649 568 633 q 600 647 588 668 m 701 619 q 696 604 703 608 q 685 604 686 603 q 679 622 675 613 q 692 628 683 628 q 701 619 699 626 m 607 592 q 599 575 611 579 q 585 583 593 575 q 592 597 583 596 q 607 592 606 600 m 668 576 q 665 572 668 576 q 658 574 663 571 q 661 582 658 576 q 668 576 667 582 m 610 549 q 607 544 610 549 q 600 546 604 543 q 603 554 600 549 q 610 549 608 554 m 644 551 q 643 544 646 549 q 635 547 640 543 q 639 554 635 553 q 644 551 642 554 m 686 493 q 679 486 685 489 q 681 496 674 492 q 686 493 683 494 m 178 464 q 163 474 174 478 q 154 461 156 471 q 160 451 154 457 q 165 449 161 449 q 171 451 168 449 q 178 464 179 456 m 169 458 q 161 464 161 457 q 165 469 161 468 q 172 467 169 471 q 169 458 172 464 m 208 414 q 206 408 207 413 q 197 411 201 408 q 200 419 197 418 q 208 414 207 421 m 204 389 q 175 407 192 392 q 178 433 174 417 q 206 474 206 439 q 206 529 204 525 q 194 535 203 536 q 160 511 189 531 q 133 481 140 497 q 122 456 135 467 q 101 435 101 435 q 83 426 93 435 q 89 407 78 413 q 94 406 90 406 q 100 407 97 406 q 108 426 111 413 q 136 451 117 436 q 143 443 139 449 q 83 367 126 415 q 88 349 78 356 q 104 351 99 344 q 106 367 104 356 l 140 418 q 157 433 144 425 q 164 426 163 432 q 161 397 165 417 q 132 369 140 393 q 146 318 125 336 q 181 308 168 307 q 215 338 207 314 q 204 389 222 374 m 147 456 q 147 472 143 464 q 163 485 150 479 q 186 472 179 485 q 186 454 189 464 q 169 443 185 453 q 147 456 153 442 m 197 331 q 190 323 197 331 q 160 324 182 315 q 143 342 153 326 q 149 379 138 361 q 182 390 161 397 q 204 369 190 385 q 197 331 213 346 m 186 375 q 167 385 175 388 q 158 365 154 376 q 175 356 160 360 q 186 375 189 363 m 174 365 q 165 369 167 364 q 168 378 163 376 q 178 375 174 379 q 174 365 178 369 m 68 369 q 67 349 67 349 q 86 336 68 344 q 81 329 88 332 q 60 333 72 326 q 53 360 47 340 q 68 369 61 374 m 196 357 q 183 338 196 347 q 157 343 164 333 q 151 353 154 347 q 160 351 154 354 q 169 346 167 347 q 194 358 176 346 l 196 357 m 785 354 q 706 563 738 458 q 693 571 703 569 q 679 564 683 572 q 646 522 672 536 q 633 485 633 506 q 641 442 633 469 q 649 403 649 414 q 678 317 644 350 q 765 282 706 301 q 788 292 781 282 q 785 354 797 308 m 693 349 q 688 344 689 344 q 667 421 667 369 q 669 509 668 507 q 675 519 669 511 q 687 513 682 521 q 693 504 692 506 q 693 349 693 504 m 735 321 q 724 324 735 321 l 717 331 q 718 433 714 399 q 733 432 719 435 l 739 425 q 735 321 740 339 m 776 311 q 760 306 768 301 q 754 325 749 310 q 765 332 758 332 q 776 324 774 331 q 776 311 779 319 m 246 290 q 254 296 249 296 q 257 290 257 294 q 254 283 257 286 q 239 275 246 275 q 221 286 228 274 l 221 296 q 233 290 222 296 q 246 290 240 288 m 699 289 q 694 285 696 288 q 686 283 688 285 q 676 272 676 278 l 672 272 q 671 286 672 278 q 683 296 674 293 q 699 289 693 297 m 125 286 q 135 292 129 292 q 136 286 136 290 q 135 279 136 282 q 119 271 122 269 q 100 283 108 269 l 101 292 q 113 286 101 292 q 125 286 119 283 m 832 282 q 831 275 832 279 q 822 276 824 275 q 826 283 821 283 q 832 282 828 285 m 183 265 q 193 271 186 271 q 194 265 194 269 q 193 258 194 261 q 178 250 181 249 q 158 263 167 249 l 160 271 q 171 267 160 271 q 183 265 178 263 m 801 263 q 796 256 801 257 q 792 258 796 256 q 794 264 789 263 q 801 263 799 265 m 288 253 q 288 236 292 243 q 274 226 283 226 q 256 236 264 226 q 254 243 254 239 q 257 251 254 247 q 267 261 260 254 q 288 253 281 263 m 765 246 q 725 271 751 271 q 682 228 686 271 q 696 196 685 204 q 728 183 710 183 q 765 208 754 186 q 768 226 768 217 q 765 246 768 236 m 714 251 q 731 244 725 258 q 722 228 733 232 q 707 236 710 226 q 714 251 704 244 m 751 208 q 743 199 751 208 q 717 196 736 190 q 696 219 700 200 l 696 222 q 707 215 700 221 q 719 211 714 210 q 742 225 731 210 q 738 254 746 236 q 754 243 746 254 q 751 208 765 225 m 831 246 q 825 239 831 240 q 821 242 825 239 q 822 247 818 247 q 831 246 828 249 m 329 217 q 321 200 332 204 q 303 207 308 199 q 311 226 301 222 q 329 217 322 229 m 811 217 q 808 213 811 217 q 800 215 801 213 q 804 222 800 221 q 811 217 808 222 m 364 197 q 356 185 367 186 q 346 193 350 185 q 353 203 347 197 q 364 197 357 204 m 397 189 q 394 181 397 185 q 388 185 389 179 q 397 189 390 188 z "},"K":{"ha":928,"x_min":-31,"x_max":976,"o":"m 974 922 q 951 889 976 903 q 913 892 931 881 q 900 947 888 919 q 915 993 915 986 q 906 1015 915 1006 q 883 1024 896 1025 q 854 1006 863 1022 q 846 971 846 990 q 851 926 846 958 q 854 875 856 893 q 793 735 832 776 q 743 696 781 717 q 692 653 706 675 q 714 611 694 617 q 753 599 751 599 q 876 549 835 581 q 907 463 907 525 q 917 368 907 435 q 928 269 928 301 q 917 206 928 231 l 893 149 q 778 10 832 63 q 643 -58 724 -26 q 631 -60 638 -60 q 524 -22 583 -60 q 525 15 522 -21 q 601 10 560 11 q 656 56 626 18 q 636 126 649 81 q 592 197 632 160 q 533 261 544 242 q 471 383 522 276 q 403 424 457 403 q 390 389 394 413 q 421 314 385 363 q 472 239 467 253 q 531 143 490 214 q 536 119 536 132 q 519 68 536 97 q 414 -22 481 24 q 401 -24 408 -24 q 350 -12 383 -24 q 303 1 307 1 q 265 17 286 17 q 235 7 249 17 q 175 -17 197 -26 q 138 21 154 -10 q 113 72 125 47 q 53 235 90 128 q 21 336 36 278 q -4 431 8 367 q -26 526 -18 501 q -29 675 -29 551 q -26 919 -31 774 q -15 1061 -25 967 q -1 1089 -14 1072 q 22 1108 13 1106 q 89 1107 43 1111 q 153 1108 132 1103 l 306 1108 q 335 1086 314 1106 q 365 1067 356 1067 q 414 986 385 1040 q 396 939 418 965 q 365 893 368 906 q 343 794 343 836 q 365 726 343 753 q 387 731 374 724 q 404 740 400 739 q 444 767 433 751 q 460 814 447 783 q 476 860 474 844 q 481 931 489 893 q 503 965 481 957 q 531 974 514 974 q 547 972 536 974 q 564 971 558 971 q 589 978 579 971 q 686 1038 632 997 q 778 1111 732 1074 q 879 1121 825 1138 q 914 1093 899 1118 q 936 1049 925 1071 q 938 971 961 1014 q 932 956 938 965 q 926 942 926 946 q 946 924 926 925 q 961 928 954 925 q 974 922 969 929 m 807 1006 q 807 1022 810 1014 q 783 1033 801 1035 q 772 1022 778 1031 q 772 1006 768 1014 q 789 996 776 996 q 807 1006 803 996 m 838 410 q 806 467 833 436 q 754 515 803 469 q 710 540 713 539 q 661 556 683 553 q 592 582 626 568 q 532 626 551 599 q 533 657 528 647 q 592 706 551 685 q 658 743 654 740 q 703 800 683 761 q 736 864 719 832 q 754 924 736 865 q 757 932 757 928 q 740 963 757 933 q 713 968 732 968 q 621 921 683 950 q 579 908 589 913 q 547 882 557 899 q 525 806 543 851 q 497 731 503 750 q 450 690 483 706 q 394 664 422 676 q 347 644 379 661 q 296 628 315 628 q 281 629 288 628 q 242 700 256 640 q 233 763 233 731 q 261 890 233 821 q 317 1008 272 919 q 303 1029 317 1015 q 72 1028 151 1032 q 43 1008 63 1024 l 39 935 q 32 751 32 797 q 72 496 32 629 q 110 356 88 433 q 150 219 126 306 q 172 171 156 197 q 200 128 199 131 q 243 122 214 113 q 263 129 253 129 q 315 105 279 129 q 368 83 350 81 q 408 124 385 97 q 410 132 410 128 q 393 169 410 146 q 371 203 372 200 q 325 279 367 218 q 296 354 292 329 q 307 418 304 407 q 342 474 318 454 q 390 489 361 489 q 457 472 421 489 q 531 406 501 458 q 575 315 553 360 q 638 240 588 290 q 692 163 682 196 q 735 69 708 118 q 831 214 775 124 q 840 308 843 243 q 838 410 839 411 m 700 897 q 679 844 697 875 q 651 794 656 806 q 614 765 633 768 q 596 776 603 765 q 599 799 592 785 q 643 844 629 822 q 638 854 646 851 q 614 853 622 858 q 599 833 611 851 q 576 825 589 822 q 585 853 581 839 q 599 874 589 867 q 683 904 622 876 q 700 897 690 904 m 572 796 q 565 779 575 786 q 553 779 560 775 q 546 792 549 782 q 554 806 547 803 q 572 796 568 807 m 489 650 q 479 628 492 639 q 471 626 476 626 q 464 628 467 626 q 453 644 453 636 q 457 654 453 649 q 475 650 463 650 q 482 654 478 654 q 489 650 488 656 m 751 379 q 740 331 753 365 q 704 344 724 326 q 699 364 699 353 q 700 381 699 369 q 701 397 701 392 q 694 419 701 411 q 657 457 676 454 q 619 442 633 463 q 622 411 615 431 q 626 381 628 392 q 611 368 622 375 q 586 389 594 368 q 574 421 575 421 q 515 488 560 447 q 461 515 499 499 q 435 565 435 547 q 439 582 435 574 q 450 592 443 585 q 477 579 463 594 q 503 567 492 564 q 510 589 500 578 q 567 546 528 561 q 632 521 599 533 q 744 449 722 500 q 751 414 744 449 q 751 379 754 394 m 429 619 q 418 596 432 607 q 400 600 417 594 q 393 618 390 607 q 413 617 399 614 q 429 619 426 629 m 389 568 q 378 549 389 556 q 358 550 364 546 q 353 572 347 560 q 356 574 354 574 q 363 570 357 574 q 374 568 369 567 q 389 568 386 579 m 417 526 q 376 503 404 503 q 335 540 336 503 q 353 525 339 533 q 399 526 372 510 q 417 554 411 538 q 417 526 424 549 m 332 583 q 324 561 332 575 q 306 563 324 561 q 299 586 293 574 q 313 583 299 586 q 326 589 321 582 q 332 583 325 589 m 213 697 q 204 676 215 686 q 194 675 199 675 q 185 678 192 675 q 178 693 178 682 q 188 710 178 700 q 213 697 210 715 m 250 976 q 225 910 240 956 q 210 863 221 894 q 207 756 200 800 q 193 735 207 742 q 172 743 179 732 q 179 888 160 833 q 168 917 179 899 q 142 907 146 917 q 131 733 115 840 q 182 613 136 686 q 201 593 185 604 q 214 572 214 582 q 213 563 214 568 q 196 553 203 553 q 174 565 188 553 q 153 578 160 578 q 138 568 144 578 q 193 443 154 507 q 192 426 193 443 q 171 418 181 413 q 140 468 163 424 q 115 553 133 497 q 90 667 106 590 q 75 815 75 729 q 72 856 75 839 q 75 903 71 872 q 78 949 76 925 q 99 981 81 972 q 140 992 117 989 q 183 992 156 992 q 227 989 218 990 q 250 976 236 988 m 239 631 q 228 614 236 617 q 208 615 214 610 q 203 635 199 628 q 229 640 213 632 q 239 631 235 640 m 283 522 q 279 475 296 496 q 243 457 268 461 q 200 485 211 460 q 205 528 189 506 q 254 546 221 551 q 283 522 276 536 m 253 417 q 244 399 256 403 q 225 407 231 396 q 233 426 222 421 q 253 417 247 429 m 679 879 q 665 886 676 889 q 657 871 654 881 q 668 863 660 864 q 679 879 683 867 m 628 793 q 613 800 624 807 q 607 786 606 793 q 621 779 611 776 q 628 793 629 782 m 218 950 q 208 950 215 954 q 199 946 201 946 q 181 958 192 951 q 181 943 176 951 q 201 932 188 931 q 218 950 218 938 m 646 489 q 625 499 639 506 q 618 485 621 496 q 626 472 619 475 q 638 472 628 469 q 646 489 649 478 m 740 369 q 714 371 722 367 l 713 361 q 732 353 717 350 q 740 369 743 357 m 589 499 q 569 507 583 510 q 560 488 557 499 q 574 478 564 478 q 586 485 583 479 q 589 499 589 490 m 133 933 q 133 947 136 942 q 122 942 126 947 q 99 947 113 938 q 96 938 97 947 q 114 922 101 924 q 133 933 128 924 m 535 528 q 518 539 531 538 q 508 531 515 538 q 507 518 507 518 q 524 508 511 508 q 535 528 540 514 m 474 568 q 461 575 474 569 q 450 565 453 572 q 453 551 446 554 l 464 561 q 469 563 464 563 q 474 568 475 564 m 619 400 q 614 404 615 404 q 603 399 613 400 q 593 393 593 399 q 610 383 599 381 q 619 400 614 385 m 111 861 q 99 869 108 868 q 90 864 96 868 q 93 849 85 856 q 106 847 106 847 q 111 861 113 851 m 196 768 q 183 775 192 778 q 178 763 176 769 q 188 753 181 758 q 196 768 199 760 m 110 806 q 110 817 114 811 q 96 822 108 822 q 89 813 92 822 q 94 801 89 808 q 110 806 104 796 m 113 771 q 99 778 110 779 q 92 764 89 774 q 107 756 94 754 q 113 771 114 761 m 121 718 q 104 728 121 732 q 99 711 97 724 q 111 704 100 708 q 121 718 119 706 m 201 578 q 193 585 199 582 q 183 583 188 588 q 181 574 179 579 q 194 564 185 561 q 201 578 203 571 m 151 614 q 150 631 154 628 q 115 624 142 619 l 115 617 q 135 603 124 603 q 151 614 143 604 m 269 517 q 242 533 260 533 q 218 522 228 533 q 214 488 204 507 q 243 471 221 475 q 268 483 257 472 q 269 517 279 501 m 181 444 q 168 453 179 451 q 161 438 158 450 q 175 432 165 429 q 181 444 182 433 m 246 517 q 242 506 246 508 q 228 510 236 504 q 232 521 228 517 q 246 517 238 522 m 263 500 q 254 483 265 489 q 233 481 243 476 q 226 486 231 482 q 250 488 235 486 q 263 500 254 493 z "},"L":{"ha":650,"x_min":-61,"x_max":667,"o":"m 657 29 q 626 6 653 8 q 574 3 600 3 q 415 13 519 3 q 257 24 311 24 q 178 19 215 24 q 116 10 158 14 q 54 0 74 6 q 19 25 28 1 l 13 47 q 15 274 10 219 q 3 522 15 456 q -3 579 0 540 q -11 656 -7 618 q -33 724 -18 699 q -61 888 -61 788 q -37 1018 -61 972 q 72 1106 -18 1047 q 176 1142 101 1114 q 196 1147 186 1147 q 233 1128 213 1147 q 267 1096 250 1113 q 303 1054 292 1069 q 322 1004 322 1026 q 326 939 326 975 q 323 864 326 914 q 319 788 319 814 q 324 719 319 793 q 331 485 321 640 q 328 456 328 471 q 331 412 328 443 q 333 363 335 381 q 408 322 351 336 q 433 319 417 324 q 456 315 449 315 q 476 322 468 315 q 508 349 479 326 q 529 381 528 363 q 510 424 533 397 q 532 442 515 440 q 561 433 549 444 l 649 350 q 661 297 661 329 q 653 229 661 272 q 657 124 650 193 q 664 76 660 100 q 657 29 667 47 m 592 269 l 572 289 q 558 290 565 290 q 522 276 542 290 q 490 254 497 257 q 454 250 474 250 q 358 267 431 250 q 269 349 281 296 q 261 476 269 411 q 264 508 264 490 q 261 542 264 526 q 260 911 256 665 q 260 982 264 967 l 242 1033 q 217 1057 236 1036 q 189 1078 199 1078 q 178 1072 182 1078 q 15 982 157 1064 q -6 871 -8 949 q 28 756 -4 838 q 81 261 82 561 q 76 169 76 226 q 76 75 76 78 q 110 75 76 75 q 333 86 153 85 q 419 80 363 86 q 503 74 475 74 q 540 76 522 74 q 563 94 553 81 q 583 121 574 108 q 592 269 583 171 m 556 256 q 551 247 557 247 q 542 251 546 247 q 546 258 542 258 q 556 256 550 260 m 223 676 q 225 671 223 676 q 226 657 226 667 q 219 619 226 643 q 213 582 213 594 q 215 565 213 574 q 179 469 218 521 q 178 460 178 464 q 192 422 178 446 q 207 386 206 399 q 182 340 210 374 q 175 347 176 340 q 160 408 182 374 q 132 429 146 418 q 115 456 118 440 q 110 504 110 489 q 133 564 110 544 q 139 597 139 579 q 108 667 139 639 q 93 728 100 683 q 75 789 88 768 q 53 858 53 833 q 64 894 53 879 q 194 963 107 926 q 218 946 210 960 q 208 790 221 893 q 203 767 208 782 q 197 743 197 751 q 200 732 197 738 q 212 703 204 722 q 223 676 219 685 m 556 225 q 554 217 556 222 q 544 221 550 217 q 550 228 544 226 q 556 225 551 228 m 519 233 q 518 226 521 231 q 510 229 511 226 q 514 236 510 236 q 519 233 515 238 m 556 193 q 554 186 556 190 q 544 189 550 186 q 550 196 544 194 q 556 193 551 197 m 519 203 q 518 194 521 200 q 510 197 515 194 q 514 206 510 204 q 519 203 517 206 m 560 157 q 558 150 560 154 q 550 153 554 150 q 554 161 549 160 q 560 157 556 161 m 115 594 q 108 592 113 592 q 104 601 104 601 q 113 604 108 607 q 115 594 118 601 m 479 225 q 478 217 481 222 q 469 221 475 217 q 474 228 468 226 q 479 225 476 228 m 435 225 q 433 217 436 222 q 425 221 431 217 q 429 228 424 226 q 435 225 431 228 m 208 451 q 207 444 210 449 q 199 449 199 444 q 204 456 197 454 q 208 451 206 453 m 249 314 q 247 297 253 307 q 228 306 243 304 q 217 296 217 296 q 214 314 208 303 q 228 326 217 321 q 249 314 244 325 m 240 269 q 239 261 240 267 q 229 265 235 261 q 235 272 229 271 q 240 269 236 272 m 144 360 q 119 353 138 346 q 110 369 110 356 q 121 386 108 379 q 144 378 132 393 q 147 369 147 374 q 144 360 147 364 m 236 196 q 182 126 232 153 q 164 132 167 126 q 178 200 193 160 q 129 267 160 221 q 154 321 122 301 q 172 319 169 324 q 167 303 167 311 q 203 250 167 293 q 236 196 233 232 m 138 168 q 121 157 133 158 q 103 168 107 158 q 103 186 100 178 q 119 196 113 196 q 138 186 128 196 q 138 168 142 176 m 194 879 q 196 889 196 886 q 185 884 196 893 q 167 881 174 875 q 149 900 161 888 l 146 885 q 172 867 153 868 q 194 879 183 867 m 182 811 q 183 817 183 813 q 182 824 183 821 q 178 822 181 824 q 174 819 175 819 q 160 819 167 815 q 149 825 149 825 q 146 818 146 822 q 149 811 146 814 q 165 800 153 800 q 182 811 178 801 m 118 836 q 118 865 125 850 q 94 875 111 882 q 81 849 82 869 q 93 828 82 838 q 118 836 106 822 m 171 744 q 169 754 171 749 q 143 757 168 753 l 142 746 q 158 736 149 735 q 171 744 167 738 m 200 669 q 185 678 194 681 q 178 658 176 672 q 192 650 186 647 q 200 669 203 654 m 143 696 q 124 706 136 699 q 131 690 118 697 q 143 696 138 689 m 222 197 q 215 215 215 215 q 200 226 210 225 q 197 221 197 224 q 203 212 197 217 q 211 203 210 207 q 214 192 213 200 q 219 185 215 185 q 222 197 222 186 m 125 182 q 119 185 124 185 q 114 178 113 185 q 121 172 115 172 q 125 182 126 179 m 113 853 q 108 838 114 843 q 94 846 99 835 q 103 860 99 860 q 113 853 111 857 z "},"M":{"ha":1038,"x_min":-94,"x_max":1067,"o":"m 1038 818 q 1017 668 1019 753 q 1015 522 1013 556 q 974 415 1006 483 q 972 399 972 407 q 983 350 972 382 q 993 297 994 318 q 965 201 997 272 q 929 107 947 154 q 910 7 907 51 q 927 -42 913 -17 q 954 -92 942 -68 q 943 -114 958 -107 q 896 -103 924 -121 q 824 -29 858 -79 q 769 57 796 14 q 728 111 740 93 q 696 169 707 142 l 688 175 l 675 164 q 672 107 671 143 q 671 49 674 65 q 672 36 672 43 q 671 22 672 28 q 650 11 663 8 q 578 60 617 18 q 553 114 568 78 q 500 204 539 144 q 493 182 493 199 q 492 160 493 165 q 468 68 492 156 q 425 -8 446 29 q 361 -69 399 -53 q 317 -85 319 -85 q 304 -82 311 -85 l 294 -72 q 296 13 290 -43 q 207 258 289 90 q 149 358 188 292 q 122 468 121 424 q 117 617 121 518 q 110 799 107 738 q -31 863 63 821 q -68 868 -36 867 q -94 886 -92 868 q -42 972 -83 924 q 25 1054 18 1044 q 72 1088 47 1071 q 119 1108 96 1106 q 257 1104 190 1117 q 301 1122 269 1107 q 347 1135 328 1135 q 364 1136 356 1136 q 418 1119 389 1136 q 467 1089 442 1104 q 568 974 529 1036 q 611 919 582 956 q 618 925 617 918 q 633 979 632 978 q 668 1025 644 1010 l 682 1031 q 813 1110 749 1083 q 838 1122 819 1118 q 863 1128 857 1125 q 919 1115 885 1129 q 969 1100 953 1101 q 999 1065 1001 1081 q 1008 1042 999 1065 q 1043 978 1013 1033 q 1067 911 1067 940 q 1056 864 1067 893 q 1038 818 1039 822 m 990 935 q 924 1021 974 967 q 906 1041 915 1031 q 885 1053 896 1051 q 776 1013 847 1043 q 707 971 753 1001 q 669 878 697 939 q 647 821 658 850 q 604 776 632 789 q 581 782 596 772 q 521 907 564 825 q 488 963 517 936 q 433 1001 460 982 q 390 1022 411 1013 q 344 1033 365 1033 q 331 1036 338 1036 q 291 1023 315 1036 q 250 1011 267 1010 q 208 1019 236 1011 q 165 1026 181 1026 q 147 1025 156 1026 q 58 906 92 981 q 89 893 61 904 q 164 857 126 875 q 226 800 208 835 q 233 772 233 788 q 226 733 233 760 q 218 692 218 706 q 214 442 217 608 q 249 324 226 363 q 279 265 256 303 q 329 169 288 244 q 371 69 363 110 l 372 69 q 413 175 382 106 q 429 247 421 199 q 449 368 449 294 q 447 496 449 432 q 457 521 447 506 q 481 511 472 528 l 482 442 q 553 264 483 379 q 583 190 564 240 q 587 183 585 190 q 594 178 589 176 q 601 217 594 192 q 625 319 597 251 q 693 449 660 367 q 713 461 707 463 q 725 439 725 451 q 721 417 725 432 q 717 394 717 403 q 718 382 717 388 q 717 283 713 349 q 821 100 761 158 q 846 71 828 88 q 857 104 849 82 q 921 279 876 164 q 925 306 925 293 q 916 358 925 325 q 906 407 907 392 q 922 475 903 439 q 954 535 939 506 q 963 635 954 536 l 961 747 q 976 842 965 763 q 988 888 982 865 q 990 935 993 915 m 779 546 q 776 539 779 543 q 768 542 774 538 q 772 549 767 549 q 779 546 775 550 m 946 919 q 943 899 949 911 q 939 881 938 888 q 931 840 940 865 q 925 799 929 826 q 919 749 924 782 q 917 651 915 717 q 908 650 914 646 q 896 683 906 653 q 885 714 896 685 q 861 736 878 733 q 849 681 843 718 q 864 639 853 667 q 865 576 864 640 q 850 518 865 538 q 846 472 843 500 q 851 426 851 426 q 850 385 860 400 q 838 378 846 382 q 816 392 822 379 q 797 436 810 406 l 796 561 q 771 583 785 568 q 749 608 754 604 q 735 601 742 610 q 740 574 735 600 q 733 511 747 521 q 722 510 728 510 q 713 511 717 510 q 699 531 710 513 q 679 543 690 543 q 654 535 671 542 q 628 529 638 529 q 604 493 604 504 q 607 482 604 488 q 593 461 607 464 q 567 472 574 457 q 557 553 556 496 q 542 633 558 610 q 529 642 539 635 q 513 650 519 650 q 509 635 508 646 q 506 621 510 625 q 485 607 503 611 q 467 590 468 603 q 447 579 461 583 q 425 593 433 583 q 417 624 424 601 q 411 653 411 642 q 414 670 411 663 q 417 683 417 678 q 390 739 417 701 q 381 733 386 739 q 381 681 383 724 q 393 632 378 647 q 400 504 404 583 q 381 492 392 490 q 358 503 367 490 q 343 528 350 517 q 324 610 322 564 q 307 619 317 618 q 292 594 300 615 q 274 574 285 574 q 261 576 268 574 l 257 583 q 257 646 257 614 q 274 701 260 681 q 274 796 279 721 q 267 820 275 808 q 250 843 258 832 q 189 893 229 874 q 119 925 154 910 q 164 979 139 964 q 244 971 190 975 l 296 975 q 317 985 300 975 q 338 992 329 992 q 353 986 346 992 q 457 908 417 976 q 521 808 496 860 q 544 760 532 793 q 575 733 553 749 q 621 735 597 733 q 654 753 644 736 q 711 863 686 785 q 738 926 722 883 q 760 953 740 943 q 792 969 788 965 q 875 1004 832 990 q 915 965 896 985 q 946 919 939 940 m 863 331 q 836 322 857 315 q 825 339 831 326 q 832 344 829 346 q 847 340 839 339 l 860 351 q 863 331 867 347 m 671 500 q 669 493 671 497 q 660 496 661 493 q 664 504 660 503 q 671 500 667 504 m 899 290 q 888 267 903 274 q 872 267 881 264 q 860 283 858 276 q 875 303 864 300 q 899 290 890 306 m 821 296 q 819 289 822 293 q 810 292 817 288 q 815 299 810 299 q 821 296 817 300 m 510 564 q 508 557 511 561 q 500 560 506 557 q 504 568 499 567 q 510 564 507 568 m 863 218 q 836 210 857 203 q 828 235 822 222 q 842 246 833 239 q 860 240 843 246 q 863 218 867 226 m 525 528 q 524 521 525 525 q 514 524 515 521 q 518 531 514 529 q 525 528 521 532 m 529 486 q 528 479 531 483 q 518 482 524 479 q 524 490 518 489 q 529 486 525 490 m 619 414 q 607 382 624 392 q 572 385 603 379 q 557 406 561 390 q 561 428 556 418 q 578 417 567 422 q 611 429 601 415 q 619 414 614 429 m 575 351 q 574 343 576 349 q 564 346 571 343 q 569 354 564 353 q 575 351 571 354 m 294 528 q 285 507 299 517 q 264 507 268 503 q 258 531 253 517 q 268 542 260 536 q 294 528 289 546 m 388 406 q 386 399 389 403 q 378 401 383 397 q 382 408 376 408 q 388 406 385 410 m 357 431 q 315 401 344 403 q 269 426 283 403 q 268 458 261 439 q 287 485 274 479 q 328 488 300 492 q 356 465 349 479 q 357 431 363 439 m 360 360 q 358 353 361 357 q 349 356 350 353 q 353 364 349 363 q 360 360 356 364 m 322 351 q 319 343 322 349 q 311 346 317 343 q 315 354 310 353 q 322 351 318 354 m 289 369 q 286 361 289 367 q 278 365 283 361 q 282 372 276 371 q 289 369 285 374 m 876 913 q 849 936 868 928 q 794 922 822 947 q 788 871 774 897 q 821 844 801 849 q 868 861 844 838 q 876 913 892 885 m 760 674 q 756 683 758 683 q 748 675 754 683 q 738 667 742 667 q 711 664 718 660 q 688 681 704 671 q 685 653 686 658 q 669 632 681 639 q 619 626 647 618 q 596 646 613 635 q 600 628 596 632 q 654 603 613 600 q 696 639 693 617 q 711 640 699 650 q 748 649 735 635 q 760 674 761 664 m 406 871 q 401 881 406 875 q 368 850 388 856 q 318 861 340 842 q 304 875 304 875 q 323 833 303 849 q 375 826 343 817 q 406 871 400 835 m 344 456 q 325 467 335 469 q 308 443 317 460 q 335 432 311 432 q 344 456 343 435 m 861 890 q 860 867 864 874 q 826 857 853 853 q 813 876 811 867 q 828 903 811 893 q 861 890 849 911 z "},"N":{"ha":861,"x_min":-25,"x_max":888,"o":"m 885 903 q 790 485 871 779 q 788 414 788 456 l 788 351 q 778 224 788 269 q 764 133 776 186 q 743 46 743 47 q 718 -12 739 42 q 675 -57 704 -47 q 622 -43 649 -61 q 579 -7 601 -25 q 492 113 540 24 q 397 224 446 194 q 351 251 358 247 q 314 290 326 269 q 307 296 307 296 l 303 290 q 297 165 308 213 q 258 60 296 121 q 206 -39 213 -11 q 190 -61 194 -57 q 169 -72 181 -72 q 125 -44 144 -72 q 96 3 110 -21 q 69 50 83 18 q 46 94 56 82 q 19 157 43 107 q 1 224 3 194 q -22 426 -25 322 q -11 522 -18 458 l -3 540 q 24 649 4 578 q 15 715 26 676 q -3 779 -1 765 q -3 840 -3 778 q 7 899 -4 878 q 38 969 11 921 q 61 1043 61 1013 q 72 1081 68 1069 q 92 1111 79 1100 q 128 1117 110 1117 q 192 1104 154 1117 q 254 1083 224 1094 q 415 942 372 1017 l 421 936 l 426 943 q 425 973 426 953 q 424 1003 424 993 q 464 1085 424 1064 q 522 1119 493 1101 q 585 1142 557 1138 q 718 1132 704 1135 q 840 1097 792 1124 q 888 986 888 1067 q 886 943 888 976 q 885 903 885 917 m 811 1022 q 792 1040 806 1035 q 765 1050 778 1046 l 706 1061 q 646 1067 685 1061 q 617 1071 632 1071 q 560 1056 590 1071 q 508 1025 535 1040 q 493 992 493 1017 q 494 950 494 949 q 511 875 503 926 q 531 731 528 831 q 535 675 531 713 q 550 579 535 669 q 571 522 558 561 q 558 491 572 503 q 529 482 544 479 q 499 503 513 483 q 481 536 490 519 q 463 590 475 564 q 425 758 446 644 q 406 821 411 790 q 278 983 350 931 q 219 1017 257 1003 q 157 1040 188 1028 q 144 1042 157 1040 q 133 1040 138 1044 q 85 906 128 979 q 69 786 71 882 q 97 664 97 693 q 93 628 97 646 q 64 513 79 571 q 49 393 49 444 q 56 324 49 357 q 67 256 56 297 q 83 189 81 208 q 108 132 93 171 q 158 39 122 100 l 161 39 q 167 50 163 42 q 235 257 235 128 q 233 299 235 276 q 228 364 231 332 q 240 428 226 404 q 292 453 254 453 q 321 431 310 450 q 342 392 332 411 q 386 315 353 365 q 497 229 439 286 q 527 189 510 218 q 561 149 544 160 q 614 79 583 111 q 638 76 624 72 q 660 81 650 78 q 685 113 669 85 q 706 222 694 149 q 715 374 715 272 l 715 392 q 718 486 715 453 q 746 590 719 490 q 801 808 767 663 q 811 1022 822 928 m 749 707 q 747 699 750 703 q 738 701 739 699 q 743 710 738 708 q 749 707 744 711 m 617 776 q 611 768 619 768 q 606 771 608 767 q 608 781 604 775 q 617 776 611 781 m 772 992 q 753 933 774 946 q 743 904 743 921 q 751 868 743 894 q 756 825 758 842 q 704 721 756 750 q 697 703 697 714 q 700 684 697 697 q 703 662 703 671 q 704 643 704 653 q 690 594 704 625 q 674 550 676 564 q 647 514 661 532 q 633 472 633 492 q 638 450 633 461 q 647 415 647 419 q 640 399 647 407 q 618 397 633 392 q 589 453 601 411 q 613 508 613 482 q 607 533 613 521 q 631 572 608 544 q 644 614 649 596 q 626 653 643 621 q 614 693 614 676 q 621 719 614 707 q 634 746 622 728 q 646 775 646 764 q 643 788 646 782 q 614 815 633 804 q 581 835 581 835 q 563 892 567 851 q 551 947 558 933 q 540 985 533 961 q 608 1022 563 1000 q 721 1010 647 1021 q 751 1006 736 1008 q 772 992 765 1003 m 615 617 q 614 610 617 614 q 606 613 610 610 q 610 621 604 619 q 615 617 611 621 m 569 422 q 568 414 571 419 q 558 417 564 414 q 564 425 558 424 q 569 422 565 425 m 668 314 q 633 290 661 293 q 600 313 608 293 q 603 350 592 333 q 613 331 606 343 q 632 318 619 319 q 657 333 643 318 q 663 350 658 340 q 671 328 671 342 q 668 314 671 321 m 478 353 q 458 340 472 346 q 433 353 442 339 q 418 383 425 368 q 407 453 414 417 q 367 500 400 490 q 324 515 356 510 q 281 536 292 521 q 275 557 275 546 q 291 606 275 574 q 307 650 307 638 q 271 688 307 675 q 253 680 263 688 q 236 664 244 672 q 217 611 219 647 q 210 553 213 582 q 213 519 210 553 q 206 489 214 499 q 168 464 199 479 q 144 432 144 454 q 158 364 144 388 q 147 339 160 344 q 128 340 143 336 q 96 401 118 361 q 97 454 90 422 q 106 507 106 497 q 132 590 115 533 q 140 649 140 613 q 138 708 139 678 q 122 760 136 724 q 111 813 111 792 q 120 858 111 838 q 146 918 129 878 q 162 951 156 928 q 174 982 168 974 q 257 938 200 976 q 308 883 278 922 q 332 853 322 872 q 351 817 342 833 q 358 794 350 808 q 367 776 365 781 q 381 731 375 761 q 394 682 389 696 q 404 636 399 668 q 396 575 419 603 q 385 560 388 568 q 413 532 392 538 q 440 503 426 517 q 451 467 456 485 q 450 447 450 457 q 478 372 450 411 q 479 363 479 368 q 478 353 479 357 m 551 375 q 550 367 551 372 q 540 371 546 367 q 544 378 540 376 q 551 375 547 379 m 514 403 q 513 396 515 400 q 504 399 510 394 q 508 406 503 406 q 514 403 511 407 m 278 640 q 276 633 278 638 q 267 636 272 633 q 271 644 267 643 q 278 640 274 644 m 250 603 q 249 596 250 600 q 239 599 244 594 q 243 607 239 606 q 250 603 246 607 m 542 304 q 518 297 535 290 q 507 314 508 300 q 521 331 510 329 q 542 322 533 333 q 542 304 547 313 m 650 175 q 624 167 643 161 q 615 193 610 174 q 632 204 621 204 q 650 193 644 204 q 650 175 654 185 m 250 543 q 244 535 250 536 q 239 538 243 533 q 243 546 239 544 q 250 543 246 546 m 179 300 q 178 276 183 286 q 160 265 168 265 q 136 281 142 265 q 138 301 135 285 q 157 314 140 308 q 179 300 172 314 m 676 972 q 633 996 661 996 q 594 976 608 996 q 583 932 579 956 q 621 892 592 900 q 676 913 656 883 q 676 972 696 942 m 732 810 q 724 813 731 817 q 714 807 718 810 q 678 813 703 803 q 686 789 675 806 q 704 783 693 783 q 715 785 710 783 q 732 810 729 793 m 229 897 q 229 914 233 906 q 207 924 222 926 q 196 914 203 922 q 194 906 194 911 q 198 894 194 900 q 213 886 201 889 q 229 897 225 888 m 283 846 q 275 846 281 847 q 267 843 268 843 q 256 849 261 843 q 247 857 250 856 l 243 853 q 255 832 242 838 q 272 828 268 826 q 283 846 285 836 m 342 571 q 321 583 336 582 q 303 572 313 582 q 314 543 296 550 q 340 550 328 536 q 342 571 344 565 m 192 501 q 189 528 194 524 q 174 511 185 521 q 144 526 158 507 l 142 524 q 149 492 135 508 q 165 486 164 486 q 192 501 182 485 m 668 924 q 647 906 665 915 q 606 915 622 899 q 600 960 589 931 q 632 982 607 976 q 661 969 644 982 q 668 924 678 951 m 331 560 q 324 549 329 550 q 315 557 317 550 q 321 565 314 560 q 331 560 328 568 m 657 936 q 638 950 657 949 q 626 942 632 949 q 626 926 622 935 q 646 919 633 917 q 657 936 656 924 z "},"O":{"ha":731,"x_min":-28,"x_max":771,"o":"m 767 758 q 710 433 761 549 q 653 254 681 325 q 624 189 646 226 q 588 126 588 128 q 386 7 526 47 q 313 0 358 0 q 76 125 199 1 q 29 185 46 144 q 6 258 18 222 q -4 350 1 289 q -10 410 -4 369 q -26 597 -18 471 q -21 717 -28 640 q -14 831 -14 793 q 53 1007 -7 879 q 197 1108 100 1074 l 210 1111 q 432 1104 374 1111 q 522 1090 476 1093 q 707 979 654 1063 q 767 758 771 900 m 661 701 q 650 804 661 726 q 569 929 642 869 q 472 976 538 947 q 397 1000 449 988 q 185 974 239 1003 q 136 926 167 960 q 82 850 99 903 q 58 757 69 803 q 63 565 57 597 q 79 433 65 519 q 86 354 79 404 q 93 276 92 299 q 128 204 101 251 q 243 113 143 150 q 388 92 293 82 q 428 108 403 93 q 468 126 454 124 q 539 193 519 147 q 597 319 568 232 q 653 507 607 369 q 661 701 661 701 m 476 801 q 475 794 476 799 q 465 797 471 794 q 469 804 465 804 q 476 801 472 806 m 631 557 q 617 549 625 550 q 601 558 607 549 q 610 578 601 574 q 631 571 622 586 q 631 557 635 565 m 592 583 q 578 572 589 576 q 560 585 568 571 q 571 607 557 600 q 592 597 586 610 q 592 583 596 590 m 296 840 q 293 833 296 836 q 282 838 286 832 q 289 847 283 846 q 296 840 294 847 m 596 810 q 594 703 606 751 q 589 631 608 653 q 579 635 581 629 q 582 654 582 644 q 531 754 582 689 q 513 790 529 754 q 485 822 501 813 q 369 838 454 842 q 335 846 342 843 q 311 871 315 853 q 278 876 307 878 q 263 845 265 871 q 243 815 260 819 q 217 813 225 818 q 208 791 210 808 q 193 771 206 774 q 151 735 158 760 q 151 436 154 635 q 151 401 156 424 q 136 396 142 393 q 126 414 128 400 q 124 476 126 414 q 113 567 115 503 q 108 590 110 574 q 106 614 107 607 q 111 767 96 704 q 121 793 113 776 q 128 836 124 814 q 151 865 132 858 q 171 901 160 872 q 229 938 190 924 q 292 964 283 960 q 368 961 329 963 q 428 924 411 954 q 454 908 436 913 q 483 904 468 907 q 596 810 585 879 m 236 792 q 228 790 233 790 q 231 800 218 797 q 236 792 236 800 m 607 531 q 593 479 601 513 q 582 450 593 479 q 573 410 576 438 q 564 371 569 383 q 506 233 546 290 q 481 272 481 240 q 507 313 481 292 q 539 346 533 333 q 571 528 565 432 q 582 539 575 536 q 607 531 583 539 m 182 736 q 181 728 182 733 q 171 732 176 728 q 175 739 171 731 q 182 736 178 739 m 531 475 q 494 368 529 440 q 465 338 485 353 q 432 311 439 317 q 342 279 381 279 q 300 290 319 279 q 199 453 208 317 q 199 571 201 493 q 200 661 199 653 q 242 738 207 711 q 354 792 307 785 q 489 722 432 801 q 514 679 506 706 q 529 628 522 653 q 526 565 536 589 q 531 475 533 504 m 456 190 q 435 167 450 176 q 401 169 418 160 q 385 203 383 188 q 404 233 386 221 q 432 236 422 240 q 451 218 440 233 q 456 190 458 201 m 249 276 q 247 269 250 274 q 239 272 244 268 q 243 279 239 278 q 249 276 246 281 m 263 244 q 261 238 264 242 q 253 240 258 238 q 257 247 251 247 q 263 244 258 249 m 276 218 q 275 210 276 215 q 265 214 271 210 q 271 221 265 219 q 276 218 272 222 m 249 226 q 247 219 250 224 q 239 222 244 219 q 243 229 239 229 q 249 226 246 231 m 186 329 q 182 293 194 311 q 150 278 169 275 q 122 296 135 278 q 128 339 106 318 q 167 347 139 351 q 186 329 179 344 m 217 265 q 215 249 215 267 q 189 243 207 238 q 182 258 183 247 q 194 276 179 272 q 217 265 208 281 m 263 192 q 261 185 264 189 q 253 188 254 185 q 257 196 251 194 q 263 192 258 196 m 226 214 q 222 204 228 206 q 214 208 218 204 q 218 217 213 215 q 226 214 225 217 m 231 197 q 229 189 232 194 q 221 192 226 189 q 225 200 221 192 q 231 197 228 199 m 190 214 q 189 206 192 210 q 181 208 186 206 q 185 217 179 215 q 190 214 186 217 m 165 226 q 164 219 165 224 q 154 222 160 219 q 160 229 154 229 q 165 226 161 231 m 582 779 l 581 789 q 575 793 576 793 q 572 785 574 793 q 564 778 569 778 q 552 781 558 775 q 542 788 546 788 q 540 779 542 785 q 553 760 540 765 q 571 760 561 756 q 582 779 583 772 m 396 911 q 399 919 399 917 q 394 924 399 924 q 388 922 393 924 q 381 922 383 922 q 372 926 375 922 l 369 921 q 376 907 371 915 q 396 911 385 906 m 238 876 q 224 890 232 885 q 202 888 215 894 q 189 864 189 882 q 210 846 194 847 q 236 856 219 847 q 238 876 240 868 m 182 810 q 182 822 186 815 q 160 831 172 838 q 151 813 150 824 q 168 799 154 801 q 182 810 179 803 m 451 452 q 454 468 451 452 q 457 514 457 485 q 393 661 457 611 l 364 667 q 283 593 319 668 q 274 486 274 524 q 294 388 274 425 q 350 354 303 365 q 415 392 385 364 q 451 452 444 419 m 438 215 q 422 224 435 219 q 408 217 417 222 q 407 203 407 203 q 428 196 411 194 q 438 215 438 196 m 225 865 q 218 850 225 858 q 206 858 210 851 q 214 872 203 868 q 225 865 222 874 z "},"P":{"ha":796,"x_min":-60,"x_max":813,"o":"m 811 753 q 722 563 808 632 q 644 522 683 542 q 557 504 599 501 q 451 517 529 501 q 458 450 453 528 q 468 342 467 419 q 483 236 468 269 q 499 171 492 204 q 511 103 513 117 q 394 -68 454 -32 q 361 -104 390 -71 q 325 -126 342 -126 q 307 -121 317 -126 q 243 -90 290 -117 q 179 -69 204 -69 q 158 -71 168 -69 q 96 -53 106 -75 q 76 3 96 -49 q 40 200 40 100 q 58 276 40 254 q 97 379 88 350 q 121 490 117 439 q 129 549 128 511 q 132 607 131 597 q 133 758 144 707 q 121 781 128 769 q 101 794 114 793 q 61 793 74 797 q 43 754 38 775 q 86 721 60 724 q 86 708 90 715 q 47 697 75 692 q -35 785 1 703 q -43 886 -44 815 q -54 986 -42 953 q -37 1051 -60 1024 q 17 1089 -11 1071 q 78 1111 50 1111 q 267 1099 146 1103 q 456 1088 401 1092 q 513 1090 486 1090 q 653 1057 597 1090 q 763 975 725 1033 q 797 924 774 957 q 811 753 813 872 m 714 815 q 708 917 715 850 q 603 1010 699 975 q 363 1032 540 1032 q 238 1039 322 1039 q 115 1044 154 1039 q 90 1050 103 1050 q 17 1015 69 1050 q 7 996 6 1010 q 12 974 10 983 q 18 915 14 965 q 18 849 17 893 l 22 849 q 86 875 39 871 q 157 825 118 876 q 197 751 192 797 q 197 644 203 707 q 189 539 193 592 q 163 376 185 482 q 142 315 158 351 q 117 257 121 269 q 103 204 103 240 q 119 100 103 165 q 144 13 132 57 l 150 4 q 179 8 164 8 q 251 -14 208 8 q 319 -46 304 -40 q 369 28 350 -21 q 400 114 385 71 q 381 353 399 131 q 372 572 368 497 q 390 607 376 597 q 417 617 403 617 q 454 604 432 617 q 492 586 483 589 q 572 594 510 582 q 683 703 619 622 q 704 757 697 722 q 714 815 708 786 m 686 871 q 649 701 692 749 q 565 647 613 647 q 547 650 557 647 q 521 679 524 663 q 571 747 519 708 q 629 750 590 753 q 651 767 643 750 q 661 793 657 779 q 646 886 669 865 q 633 876 640 888 q 607 835 628 860 q 586 844 592 832 q 588 872 582 856 q 594 896 594 889 q 593 906 594 900 q 571 944 572 942 q 533 969 554 967 q 460 972 506 972 l 411 974 q 347 976 372 974 q 342 983 340 979 q 345 991 340 989 q 354 996 350 993 q 554 996 456 1013 q 613 976 594 989 q 657 939 626 963 q 686 871 668 928 m 310 986 q 300 981 307 979 q 296 994 290 986 q 301 999 297 999 q 309 994 306 999 q 310 986 313 989 m 560 863 q 494 733 571 779 q 422 715 442 715 q 386 725 401 715 q 361 778 369 743 q 346 835 349 826 q 333 865 343 843 q 324 897 324 886 q 338 922 324 913 q 488 938 404 946 q 531 929 503 938 q 551 900 546 919 q 560 863 556 881 m 481 683 q 467 669 474 679 q 472 658 465 665 q 478 650 478 651 q 468 649 476 649 q 450 660 456 649 q 451 678 450 665 q 467 688 454 682 q 481 683 475 689 m 289 904 q 278 887 289 893 q 257 885 268 881 q 245 902 247 888 q 232 918 243 917 q 185 939 217 925 q 160 925 174 938 q 163 903 165 911 q 182 879 169 890 q 208 876 196 883 q 215 849 221 869 q 199 836 211 842 q 178 843 190 835 q 172 871 171 850 q 140 900 164 885 q 126 901 135 904 q 111 899 115 897 q 58 926 76 900 q 60 996 33 961 q 108 1022 79 1022 q 124 1021 117 1022 q 146 1010 132 1019 q 172 1003 160 1000 q 192 1003 179 1001 q 213 1006 208 1006 q 231 1022 218 1013 q 257 1010 249 1026 q 260 1000 260 1006 q 257 990 260 994 q 236 979 247 978 q 221 985 235 978 q 208 994 218 994 q 196 992 206 994 q 182 990 186 989 q 171 967 168 971 q 193 946 176 958 l 247 922 q 276 926 268 929 q 289 904 290 918 m 397 679 q 393 660 400 671 q 379 669 379 661 q 386 682 379 675 q 397 679 390 683 m 353 714 q 351 696 357 706 q 346 679 344 686 q 336 522 356 589 q 331 394 331 481 q 299 279 340 315 q 281 279 289 275 q 268 297 274 282 q 275 326 271 318 q 296 349 282 342 l 303 361 q 322 592 303 507 q 314 636 322 625 q 306 632 306 638 l 303 571 q 292 565 299 569 q 281 575 286 565 q 281 636 282 594 q 271 642 271 642 q 256 590 258 626 q 261 500 254 554 q 274 413 272 432 q 257 388 271 403 q 236 389 257 388 q 219 433 219 406 q 225 472 219 449 q 232 510 232 503 q 226 667 233 563 q 224 690 224 678 q 235 744 224 707 q 243 800 246 778 q 260 816 246 810 q 279 826 275 822 q 289 851 278 838 q 310 843 307 853 q 317 788 314 826 q 353 714 326 763 m 296 542 q 290 529 297 536 q 278 535 279 529 q 283 549 276 542 q 296 542 292 550 m 243 343 q 226 333 239 333 q 211 342 221 332 q 210 350 210 344 q 211 358 210 354 q 222 368 211 358 q 243 358 232 371 q 243 343 247 351 m 215 310 q 206 301 215 306 q 197 307 203 303 q 203 318 196 311 q 215 310 214 322 m 640 906 q 640 924 644 915 q 615 931 635 936 q 607 917 604 925 q 615 899 604 908 q 640 906 629 893 m 613 854 q 613 861 614 860 q 604 863 613 861 q 596 863 599 865 q 600 850 594 856 q 613 854 603 847 m 615 719 q 613 725 614 721 q 603 728 611 729 q 599 715 599 726 q 607 710 607 710 q 615 719 611 710 m 594 700 q 581 707 590 710 q 575 699 579 707 q 586 692 579 689 q 594 700 593 693 m 508 869 l 504 874 q 446 881 481 882 q 388 876 417 878 l 388 869 q 401 825 392 854 q 418 774 404 807 q 478 788 428 772 q 510 849 510 808 q 508 869 510 858 m 579 671 q 564 679 578 675 q 556 706 557 682 q 544 689 546 704 q 558 669 544 678 q 579 671 574 665 m 249 1004 q 240 1008 246 1004 q 235 996 235 1007 q 243 992 240 990 q 249 1004 250 993 m 279 906 q 268 911 276 913 q 263 901 263 907 q 275 896 267 899 q 279 906 281 900 m 300 835 q 293 839 299 842 q 289 832 288 838 q 297 828 289 828 q 300 835 300 831 m 151 943 q 146 983 160 965 q 119 1001 140 993 q 76 990 96 1008 q 72 939 60 967 q 117 918 89 915 q 151 943 142 921 m 275 790 q 265 794 272 796 q 261 786 260 792 q 271 782 264 781 q 275 790 275 788 m 206 856 q 197 861 204 863 q 189 854 189 861 q 200 846 192 849 q 206 856 201 850 m 332 665 q 322 672 332 675 q 318 664 317 671 q 328 658 321 661 q 332 665 328 658 m 315 713 q 314 726 319 724 q 300 718 310 724 q 286 739 294 719 q 276 735 279 747 l 278 676 l 274 671 q 254 674 267 675 q 261 661 254 668 q 279 660 275 657 q 288 679 289 665 q 286 703 286 708 l 292 708 l 293 707 q 315 713 308 701 m 256 439 q 249 444 254 444 q 244 438 244 438 q 251 432 247 431 q 256 439 258 433 m 261 408 q 261 417 265 414 q 256 415 260 418 q 238 419 246 411 q 232 414 235 419 q 240 403 235 406 q 261 408 256 399 m 307 303 q 282 311 297 303 q 279 301 281 311 q 297 292 286 289 q 307 303 300 296 m 633 918 q 625 904 636 906 q 614 914 617 904 q 621 924 615 918 q 633 918 628 925 m 114 978 q 104 958 117 964 q 89 958 104 958 q 85 979 79 967 q 97 988 85 981 q 114 978 106 990 m 140 958 q 125 932 139 940 q 88 939 97 928 l 88 942 q 125 960 115 942 q 131 982 125 968 q 140 958 139 976 m 101 978 q 96 982 101 983 q 92 976 90 981 q 99 971 93 971 q 101 978 101 972 z "},"Q":{"ha":1208,"x_min":-33,"x_max":1282,"o":"m 1282 76 q 1232 8 1275 22 q 1201 3 1232 8 q 1171 1 1182 -1 q 1143 0 1157 0 q 1083 4 1122 0 q 1024 8 1043 8 q 985 6 1003 8 q 889 6 985 6 q 785 53 854 10 q 739 60 754 64 q 603 19 697 38 q 457 7 538 7 q 279 18 382 7 q 183 44 231 32 q 99 103 129 64 q 28 196 72 132 q 1 278 19 222 q -26 524 -33 390 q -17 660 -25 569 q 78 942 -7 813 q 229 1069 144 1043 q 296 1089 251 1082 q 364 1104 347 1099 q 489 1111 414 1113 q 618 1108 632 1108 q 683 1094 618 1108 q 867 1003 765 1069 q 936 921 904 972 q 988 831 961 876 q 1021 713 1014 786 q 1025 583 1021 707 q 988 401 1014 521 q 985 333 979 374 q 1024 319 996 326 q 1063 303 1051 313 q 1083 226 1089 282 q 1078 208 1081 217 q 1081 192 1074 199 q 1097 195 1086 192 q 1115 199 1108 199 q 1194 183 1179 189 q 1258 138 1238 171 q 1282 76 1275 128 m 1201 106 q 1119 133 1175 140 q 1085 124 1108 133 q 1050 114 1063 114 q 1031 118 1040 114 q 994 158 996 136 q 993 175 996 163 q 993 192 992 186 q 1004 204 996 200 q 1010 253 1021 222 q 974 278 1003 265 q 911 304 933 272 q 893 364 893 329 q 902 428 893 386 q 913 486 911 469 q 921 564 921 519 q 911 696 921 586 q 878 803 908 721 q 831 893 835 885 q 756 967 799 943 q 628 1028 693 1017 q 568 1043 607 1039 q 506 1050 508 1050 q 438 1050 482 1047 q 288 1026 361 1040 q 225 1001 243 1011 q 169 960 192 985 q 72 800 104 888 q 50 713 63 772 q 33 513 39 617 q 67 271 28 371 q 107 189 76 242 q 135 161 115 174 q 168 139 168 139 q 343 89 221 111 q 501 96 406 85 q 615 119 574 104 q 696 150 642 132 q 708 169 708 157 q 696 192 708 186 q 686 194 692 193 q 682 200 681 194 q 706 210 692 210 q 736 203 717 210 q 761 194 756 196 q 856 121 817 183 q 876 88 860 117 q 904 61 889 68 q 981 49 936 49 q 1060 54 1001 49 q 1140 57 1111 60 q 1172 67 1147 61 q 1200 82 1193 69 q 1201 106 1206 89 m 831 556 q 814 551 821 547 q 810 568 806 556 q 831 567 821 582 q 831 556 832 557 m 869 526 q 865 511 871 515 q 853 515 861 508 q 849 528 844 521 q 860 533 851 533 q 869 526 868 532 m 797 597 q 792 583 797 586 q 780 587 789 581 q 775 599 771 593 q 786 604 778 606 q 797 597 794 604 m 824 468 q 807 460 817 460 q 788 469 792 461 q 788 486 783 478 q 799 481 789 486 q 814 478 808 475 q 818 482 815 479 q 824 483 821 485 q 824 468 826 482 m 1175 99 q 1168 83 1176 93 q 1142 92 1158 83 q 1115 100 1126 101 q 1088 93 1107 97 q 1086 101 1081 96 q 1135 117 1107 117 q 1171 107 1156 117 l 1175 99 m 883 571 q 871 563 882 564 q 856 576 865 561 q 851 706 856 619 q 838 750 849 724 q 818 792 821 785 q 781 828 803 822 q 772 822 778 826 q 782 796 772 811 q 794 774 792 781 q 835 601 819 718 q 828 590 835 596 q 813 596 821 588 q 794 707 808 633 q 768 756 793 729 q 750 747 754 757 q 776 665 756 718 q 783 652 778 663 q 788 636 788 642 q 781 624 788 628 q 764 635 765 625 q 718 742 721 739 q 633 822 686 801 q 497 860 536 860 q 465 857 481 860 q 364 833 431 853 q 254 718 257 778 q 236 649 247 708 q 219 640 232 642 q 200 646 214 644 q 187 626 190 643 q 169 611 183 610 q 161 632 163 614 q 144 650 160 650 q 133 641 138 649 q 126 626 129 633 q 139 513 122 603 q 136 438 147 463 q 101 433 128 428 q 84 469 88 446 q 79 513 81 492 q 88 628 78 551 q 109 677 97 651 q 144 713 121 703 q 156 742 151 715 q 142 781 157 757 q 126 818 126 806 q 135 840 126 829 q 222 946 178 913 q 418 1003 338 1010 q 484 999 442 1003 q 546 994 526 994 q 674 949 564 990 q 732 917 674 947 q 783 872 767 899 q 881 599 881 747 q 883 571 883 572 m 854 351 q 850 343 854 347 q 839 349 840 340 q 843 357 838 353 q 854 351 849 358 m 854 315 q 850 306 854 310 q 839 311 840 304 q 843 321 838 317 q 854 315 849 321 m 817 336 q 815 326 818 333 q 806 326 810 324 q 804 338 799 329 q 817 336 811 350 m 968 215 q 961 185 968 208 q 958 156 956 168 q 943 133 957 139 q 921 135 932 129 q 910 153 910 142 q 906 185 910 164 q 864 250 896 210 q 803 271 835 267 q 800 276 799 274 q 825 281 810 283 q 854 274 839 278 q 904 264 869 271 q 944 249 924 256 q 968 215 967 236 m 843 418 q 833 394 843 406 q 811 371 822 382 q 775 357 796 357 q 701 382 750 357 q 629 440 700 383 q 606 463 622 460 q 585 456 597 464 q 575 435 578 450 q 582 418 575 426 q 592 403 590 406 q 611 362 594 390 q 628 317 628 333 q 618 289 628 301 q 542 257 592 253 q 313 333 400 254 q 260 496 260 394 q 299 676 260 588 q 407 788 335 760 q 510 796 444 801 q 540 789 521 794 q 624 755 572 782 q 713 657 675 728 q 713 615 717 649 q 729 578 708 588 q 760 551 746 574 q 768 446 767 532 q 786 428 771 436 q 831 443 813 419 q 843 418 843 439 m 611 438 q 608 426 613 433 q 596 431 603 426 q 601 442 594 435 q 611 438 607 443 m 750 307 q 740 304 744 304 q 726 309 736 304 q 713 314 717 314 q 704 313 708 314 q 690 306 700 313 q 676 300 681 300 q 665 308 669 300 q 670 325 663 314 q 693 336 678 336 q 742 319 711 336 q 750 307 750 308 m 664 376 q 657 361 667 368 q 644 361 651 358 q 639 378 639 365 q 651 385 643 386 q 664 376 661 383 m 628 404 q 621 393 631 393 q 613 399 617 394 q 618 410 611 407 q 628 404 625 411 m 118 789 q 117 774 121 783 q 100 772 106 768 q 94 788 94 775 q 106 796 97 796 q 118 789 114 796 m 140 749 q 126 725 140 735 q 115 724 122 724 q 106 725 110 724 q 92 749 90 735 q 108 743 92 749 q 135 760 118 740 q 140 749 136 756 m 232 607 q 225 592 233 594 q 210 597 214 592 q 210 608 208 607 q 222 615 214 615 q 232 607 229 615 m 186 554 q 178 540 185 549 q 163 547 165 539 q 168 561 161 557 q 186 554 175 565 m 228 399 q 221 382 229 388 q 201 393 210 379 q 178 475 178 440 q 181 501 178 488 q 188 504 183 506 q 191 476 188 494 q 207 436 194 458 q 228 399 228 400 m 151 389 q 144 374 154 381 q 133 374 139 369 q 128 390 126 378 q 140 397 131 399 q 151 389 149 396 m 700 882 q 699 907 704 900 q 669 924 692 921 q 650 914 656 921 q 640 889 644 907 q 657 865 644 872 q 683 864 665 860 q 700 882 694 869 m 607 947 q 599 951 606 951 q 593 938 599 951 q 600 935 596 933 q 607 947 608 939 m 567 974 q 557 981 565 979 q 554 972 554 979 q 563 964 558 963 q 567 974 567 968 m 629 911 q 625 918 629 918 q 615 906 621 918 q 622 900 615 906 q 629 911 628 901 m 754 786 q 753 792 756 792 q 747 788 753 792 q 738 786 740 785 q 725 793 732 788 q 726 879 726 821 q 717 888 722 889 q 686 846 711 857 q 643 856 660 835 q 631 868 640 861 q 647 835 626 847 q 686 828 667 822 q 707 835 707 835 q 713 813 714 828 q 713 789 710 794 q 735 774 719 776 q 754 786 742 776 m 578 924 q 568 929 575 928 q 567 913 564 925 l 574 913 q 578 924 579 915 m 604 894 q 599 896 600 897 q 594 890 599 894 q 590 883 589 886 q 599 881 592 881 q 604 894 604 882 m 533 956 q 510 974 524 969 q 492 972 496 978 q 518 938 519 958 q 492 893 522 914 q 531 912 515 886 q 533 956 546 938 m 563 888 q 556 890 560 890 q 550 885 554 888 q 546 879 546 882 q 556 875 550 874 q 563 888 564 879 m 490 947 q 469 956 485 961 q 460 940 461 953 q 468 928 463 929 q 483 928 475 924 q 490 947 492 932 m 469 908 q 460 911 469 910 q 456 901 454 910 q 464 897 461 897 q 469 908 467 901 m 379 879 q 393 899 393 886 q 384 924 393 907 q 374 947 375 940 q 364 954 372 954 q 353 950 356 954 q 369 897 357 932 q 379 879 369 889 m 343 881 l 343 882 q 328 944 339 903 q 307 943 321 954 q 339 881 317 922 l 343 881 m 318 844 l 272 931 q 268 924 268 932 l 293 840 l 299 835 q 318 844 306 838 m 957 219 q 951 226 953 226 q 948 217 950 226 q 940 208 946 208 q 922 206 933 208 q 927 198 922 201 q 938 194 932 194 q 946 196 943 194 q 957 219 960 203 m 254 847 q 247 879 253 857 q 242 914 242 901 q 221 899 225 910 q 253 846 228 874 l 254 847 m 944 158 q 921 158 924 156 q 921 151 921 157 q 936 144 926 143 q 944 158 947 151 m 708 499 q 704 529 707 521 q 686 553 700 546 q 661 624 656 589 q 664 647 664 646 l 639 674 q 532 711 581 711 q 492 704 511 711 q 419 636 446 688 q 386 543 411 619 q 401 381 379 433 q 478 324 422 329 q 543 331 531 318 q 550 351 551 342 q 528 433 528 390 q 538 482 528 461 q 589 511 560 510 q 611 515 600 515 q 653 503 628 515 q 693 486 683 489 q 708 499 706 492 m 218 824 q 201 867 211 851 l 200 883 q 185 868 199 883 q 196 826 181 860 q 218 824 215 821 m 257 788 q 247 793 254 796 q 243 783 242 792 q 251 779 246 779 q 257 788 256 781 m 217 792 q 208 797 217 797 q 206 788 204 796 q 213 785 206 786 q 217 792 217 792 m 172 829 q 164 833 171 833 q 160 825 158 832 q 168 822 161 822 q 172 829 172 829 m 189 803 q 179 807 185 808 q 176 800 175 804 q 183 794 178 794 q 189 803 188 796 m 229 764 q 222 769 225 767 q 215 761 214 767 q 224 756 217 756 q 229 764 232 758 m 213 726 q 206 732 213 732 q 201 722 200 731 q 207 719 203 719 q 213 726 213 722 m 200 672 q 194 696 204 682 q 175 701 188 703 q 158 692 164 700 q 157 671 153 683 q 183 658 167 654 q 200 672 197 663 m 179 631 q 172 633 176 633 q 169 626 169 631 q 174 624 174 624 q 179 631 179 625 m 115 536 q 106 543 115 543 q 96 536 97 543 q 107 529 100 529 q 115 536 115 529 m 122 511 q 114 508 115 511 q 94 513 108 506 q 92 504 93 511 q 100 493 94 494 q 121 499 115 489 q 122 511 122 510 m 136 472 q 128 471 132 475 q 121 464 124 467 q 93 468 115 458 q 103 449 90 456 q 122 446 115 442 q 136 472 138 454 m 689 900 q 685 878 696 888 q 663 875 679 871 q 651 890 657 876 q 664 910 650 901 q 689 900 678 917 m 192 686 q 182 667 193 671 q 167 673 174 665 q 165 688 161 681 q 179 694 169 696 q 192 686 189 693 m 678 894 q 665 901 674 904 q 661 890 660 897 q 671 885 665 885 q 678 894 674 885 m 182 682 q 175 685 179 685 q 172 676 172 683 q 179 674 175 674 q 182 682 182 675 z "},"R":{"ha":844,"x_min":-46,"x_max":872,"o":"m 872 99 q 861 29 861 29 q 838 -22 850 4 q 800 -54 825 -49 q 765 -26 771 -50 q 754 26 754 18 q 744 44 754 26 q 728 51 738 56 q 581 4 650 4 q 492 32 529 4 q 429 92 458 51 q 383 164 407 128 q 357 238 363 213 q 325 296 347 258 l 318 294 q 297 274 308 285 q 285 253 285 264 q 289 240 285 247 q 296 174 296 211 q 292 106 296 149 q 286 36 286 54 q 250 -68 278 1 q 224 -86 243 -81 q 178 -60 197 -89 q 142 -12 150 -19 q 50 225 46 106 q 28 308 44 254 q 6 436 21 351 q 3 489 8 456 q 0 539 -1 522 l -3 557 l -1 904 q -10 1003 7 975 q -28 1047 -12 1019 q -46 1089 -44 1074 q -25 1125 -46 1118 q 19 1117 -10 1131 q 50 1100 36 1110 q 161 1099 88 1094 q 275 1103 228 1113 q 363 1086 310 1104 q 449 1065 422 1067 q 536 1067 443 1065 q 621 1050 592 1067 q 710 958 690 1010 q 736 888 729 932 q 746 811 740 850 q 713 606 750 688 q 688 578 707 592 q 657 554 663 560 q 578 475 626 531 q 592 447 581 464 q 610 422 608 425 q 641 392 625 407 q 672 372 657 376 q 760 319 722 331 q 835 269 786 307 q 872 192 868 246 q 872 99 872 146 m 801 168 q 780 196 792 181 q 753 211 768 211 q 670 226 718 204 q 583 301 622 247 q 526 400 568 324 q 507 431 524 407 q 494 464 494 449 q 493 481 493 472 q 517 535 493 510 q 564 582 539 550 q 603 636 603 636 q 635 782 635 699 q 632 835 635 808 q 544 946 613 901 q 468 986 517 975 q 381 1000 424 993 q 221 1026 326 1018 q 171 1013 203 1026 q 79 964 133 1003 q 72 861 72 940 l 69 851 l 71 544 q 74 498 71 531 q 76 446 78 465 q 110 286 83 390 q 121 235 110 283 q 203 25 121 121 l 210 25 q 217 85 215 44 q 224 142 219 125 q 226 165 226 153 q 219 215 226 182 q 213 263 213 247 q 240 319 213 297 q 283 357 242 321 q 331 379 308 379 q 347 376 339 379 q 431 235 404 326 q 456 182 433 213 q 488 132 482 143 q 583 75 550 75 q 604 79 594 75 q 672 103 628 81 q 740 126 715 126 q 765 123 754 126 q 797 96 776 119 l 800 99 l 801 168 m 515 833 q 528 774 528 807 q 504 701 528 728 q 369 603 458 635 q 321 590 347 590 q 289 597 303 590 q 236 669 256 621 q 203 753 203 753 q 211 800 193 776 q 252 820 222 814 q 292 833 282 826 q 357 860 313 836 q 424 881 397 881 q 515 833 500 881 m 590 756 q 525 606 576 650 q 486 567 506 586 q 442 536 461 543 q 414 494 414 506 q 415 486 414 490 q 440 467 418 475 q 458 444 458 460 q 451 418 461 433 q 419 414 433 406 q 400 467 403 425 q 371 511 397 504 q 353 515 365 513 q 336 517 342 517 q 313 503 319 517 q 314 483 310 497 q 322 476 315 482 q 329 465 329 469 q 322 455 329 458 q 307 454 314 451 q 292 517 290 464 q 311 546 296 528 q 371 560 331 553 q 550 699 514 613 q 568 817 576 744 q 474 908 561 879 q 403 919 440 919 q 314 897 350 919 q 232 865 274 881 q 161 814 183 846 q 163 725 149 763 q 201 628 172 692 q 219 601 203 621 q 229 571 232 585 q 208 525 228 550 q 181 483 185 496 q 189 454 178 467 q 211 429 199 447 q 199 399 213 404 q 169 403 192 393 q 144 474 140 446 q 163 508 153 490 q 168 542 172 525 q 113 638 133 588 q 128 843 108 710 q 122 872 128 851 q 117 903 117 893 q 128 935 117 922 q 168 963 140 953 q 214 981 190 972 q 250 979 236 988 q 349 961 285 976 q 547 897 492 947 q 572 871 563 889 q 589 835 582 853 q 594 794 592 815 q 590 756 597 771 m 482 364 q 468 353 479 357 q 444 365 453 351 q 457 392 442 383 q 479 388 467 396 q 482 364 488 376 m 353 488 q 350 479 354 483 q 343 482 346 478 q 347 490 342 490 q 353 488 350 492 m 374 460 q 369 450 374 456 q 363 454 365 450 l 361 456 q 367 461 361 460 q 374 460 371 463 m 268 544 q 265 538 268 540 q 256 540 261 538 q 258 547 256 546 q 268 544 267 547 m 521 306 q 507 285 521 293 q 488 288 499 281 q 479 308 476 304 q 513 310 504 304 q 521 306 522 310 m 631 138 q 604 110 624 122 q 557 117 574 101 q 540 172 533 132 q 576 203 551 197 q 617 192 603 204 q 631 138 642 167 m 239 504 q 233 499 238 500 q 226 501 231 497 q 232 510 226 510 q 239 504 236 511 m 261 475 q 254 474 261 475 q 253 485 247 476 q 261 483 257 488 q 261 475 264 479 m 219 475 q 217 469 219 474 q 207 472 213 469 q 211 481 207 478 q 219 475 219 482 m 249 444 q 243 435 249 436 q 236 439 240 436 q 240 447 236 446 q 249 444 246 447 m 119 561 q 108 557 115 550 q 107 564 108 560 q 113 568 108 568 q 119 561 119 568 m 138 531 q 133 522 138 528 q 126 531 129 524 q 132 533 129 533 q 138 531 135 533 m 188 335 q 169 324 179 324 q 149 336 154 325 q 147 343 147 339 q 149 351 147 347 q 161 347 153 351 q 174 343 169 343 q 180 344 176 343 q 188 346 183 346 q 188 335 193 340 m 171 283 q 168 278 172 281 q 160 281 161 278 q 163 288 158 285 q 171 283 171 289 m 171 246 q 168 238 171 246 q 160 242 165 238 q 164 250 158 249 q 171 246 167 250 m 179 208 q 175 199 181 200 q 164 206 169 199 q 171 213 165 211 q 179 208 175 213 m 181 169 q 178 161 181 164 q 168 167 169 161 q 174 172 168 171 q 181 169 178 172 m 229 933 q 194 943 215 956 q 181 919 181 935 q 197 897 185 900 q 225 904 211 890 q 229 933 231 910 m 453 797 q 451 802 453 797 q 422 810 449 807 q 283 754 378 788 l 283 746 q 318 667 292 718 q 399 694 340 665 q 457 776 457 749 q 453 797 457 786 m 608 143 q 611 156 611 149 q 608 169 611 164 q 574 182 597 186 q 560 169 568 179 q 560 143 557 165 q 586 128 568 128 q 608 143 603 132 m 215 919 q 207 906 218 911 q 194 911 200 904 q 201 928 193 925 q 215 919 211 928 m 596 168 q 588 151 597 154 q 572 157 578 150 q 576 174 568 164 q 596 168 589 186 z "}}}
